<svg width="423" height="145" viewBox="0 0 423 145" fill="none" xmlns="http://www.w3.org/2000/svg">
<path d="M40.8485 86.3803C40.8485 128.784 42.8677 142.325 42.8677 143.037C42.8677 143.75 41.9175 144.344 41.5611 144.344H1.77066C-0.842445 144.344 1.058 144.344 1.058 75.5716C1.058 63.9314 0.34533 61.6746 1.88944 61.6746H21.6065C31.5838 61.6746 33.3655 61.0807 39.5419 61.0807C40.4921 61.0807 41.9175 65.3567 39.7795 65.3567C38.3541 65.3567 25.7637 71.4144 16.9742 80.2039C16.7366 80.3227 16.6179 80.5602 16.3803 80.7978C21.9628 78.0659 28.4956 76.2842 30.8712 76.2842C38.7105 76.2842 40.8485 79.9663 40.8485 86.3803ZM11.1541 66.9008C11.1541 69.6327 11.1541 73.7899 10.9165 80.2039C21.1314 70.8205 28.3768 66.1881 28.6144 65.9506C29.0895 65.4755 16.6179 66.9008 11.1541 66.9008ZM31.3463 137.455C31.3463 134.604 31.2275 130.803 31.2275 125.458C31.2275 91.6065 32.8904 83.0546 23.5069 83.0546C17.8056 83.0546 10.7978 89.3498 10.7978 91.7253C10.5602 102.534 10.4414 117.262 10.3226 137.455H31.3463Z" fill="#FEFEFE"/>
<path d="M89.9546 74.1462C89.9546 76.7593 91.4987 76.6406 91.4987 76.7593C91.4987 77.9471 80.3336 84.7174 80.3336 83.5297C80.3336 77.2345 84.3721 70.8205 84.3721 69.8702C84.3721 69.8702 79.621 65.9506 71.5441 65.9506C63.3484 65.9506 58.7161 67.7322 58.7161 68.2074C58.7161 74.9777 60.6166 83.7672 62.9921 93.507C67.9808 90.5375 75.345 87.093 80.5712 87.093C83.4218 87.093 85.0847 95.7637 86.7476 95.7637C88.2917 95.7637 89.3607 95.1699 89.3607 95.4074C89.3607 96.9515 81.1651 102.89 79.621 102.89C77.9581 102.89 75.1074 93.9821 70.9502 93.9821C69.0498 93.9821 66.1991 95.2886 63.7048 96.714C66.5554 108.117 69.8812 120.351 71.4253 131.635C73.9196 122.489 77.9581 116.669 77.9581 112.393C77.9581 110.136 76.6515 109.423 76.6515 108.71C76.6515 107.879 87.5791 108.117 87.5791 108.829C87.5791 116.075 76.5328 127.715 76.5328 143.037C76.5328 143.987 75.8201 144.463 75.1074 144.463H64.7738C63.3484 144.463 63.3484 143.394 63.3484 143.037C63.3484 142.681 63.9423 139.118 63.9423 136.148C63.9423 125.339 48.9764 88.7559 48.9764 72.6021C48.9764 71.1768 59.0725 60.1305 74.3948 60.1305C89.8358 60.1305 94.1118 65.4755 94.1118 65.9506C94.1118 66.4257 89.9546 71.7707 89.9546 74.1462Z" fill="#FEFEFE"/>
<path d="M163.629 97.783C164.817 98.9707 158.759 117.262 158.759 136.267C158.759 140.662 160.66 143.156 160.66 143.987C160.66 144.225 160.541 144.344 160.303 144.344H148.901C148.426 144.344 148.069 143.987 148.069 143.75C148.069 115.124 153.889 104.078 152.82 103.128C151.87 102.059 116.474 107.048 110.06 107.048C109.11 107.048 112.198 124.152 112.198 142.918C112.198 143.512 111.842 144.344 111.011 144.344H102.34C101.865 144.344 100.558 144.344 100.558 143.275C100.558 142.087 101.865 137.217 101.865 120.588C101.865 107.998 98.4203 105.504 97.8264 104.91C97.2325 104.316 103.29 99.8022 105.547 99.8022C107.447 99.8022 109.229 99.8022 111.011 99.8022C111.961 96.0013 119.444 83.4109 124.551 83.4109H143.081C143.437 76.5218 146.644 69.2764 146.644 68.2074C146.644 67.0196 114.93 67.4947 114.455 67.4947C113.98 67.4947 116.712 70.1078 116.712 74.7401C116.712 75.6903 108.279 81.6292 106.26 81.6292C105.666 81.6292 107.21 80.0851 107.21 76.6406C107.21 70.2266 99.6081 62.3873 100.321 61.6746C101.033 61.0807 155.671 61.6746 156.978 61.6746C158.284 61.6746 152.108 71.1768 152.108 80.3227C152.108 88.0432 154.246 95.645 154.958 97.9017C160.303 97.5454 163.154 97.3079 163.629 97.783ZM119.8 99.5646C129.778 99.3271 138.092 98.9707 144.744 98.4956C144.268 96.4764 143.675 93.2694 143.318 89.9436C139.042 89.4685 132.153 88.9934 122.651 88.9934C122.057 88.9934 120.157 94.1009 119.8 99.5646Z" fill="#FEFEFE"/>
<path d="M206.829 62.6248C206.829 87.4493 217.519 124.508 217.519 143.156C217.519 143.631 217.281 144.344 216.45 144.344H207.423C206.591 144.344 206.473 143.512 206.473 143.037C206.473 142.918 206.473 142.681 206.591 142.206C206.591 138.405 206.354 134.366 205.997 130.328C204.81 125.221 202.197 120.588 196.02 120.588C189.012 120.588 184.38 122.37 181.648 124.033C180.817 127.24 180.342 130.447 180.342 133.654C180.342 140.424 182.123 144.344 181.173 144.344H171.433C171.077 144.344 170.602 144.106 170.602 138.167C170.602 113.462 194.832 95.645 196.139 67.2571C192.1 67.0196 181.886 66.782 181.886 67.4947C181.886 68.3261 184.736 77.7096 184.736 85.5489C184.736 93.2694 172.74 99.4458 172.146 99.4458C171.433 99.4458 170.602 98.852 170.839 98.4956C171.196 98.1393 174.521 95.645 174.521 89.1122C174.521 75.6903 169.295 70.7017 169.295 69.0388C169.295 67.4947 177.847 61.6746 179.035 61.6746C180.104 61.6746 205.641 61.6746 205.641 61.6746C206.235 61.6746 206.829 62.0309 206.829 62.6248ZM203.384 114.293C203.622 114.293 203.859 114.412 204.097 114.412C202.672 103.959 200.89 93.7445 199.465 84.8362C194.832 95.8825 186.993 107.285 182.955 119.282C187.349 117.025 194.357 114.293 203.384 114.293Z" fill="#FEFEFE"/>
<path d="M274.647 61.6746C275.597 61.6746 276.191 64.1689 276.072 64.2877C273.816 66.5445 275.36 83.7672 272.984 86.2615C267.996 91.1314 263.957 91.8441 263.957 91.1314C263.957 89.7061 265.858 88.0432 265.858 65.9506H252.198C252.317 72.9585 251.367 91.369 251.367 139.949C251.367 143.75 251.367 144.463 250.535 144.463H242.815C240.202 144.463 242.102 144.463 242.102 75.5716C242.102 71.1768 241.983 68.0886 241.865 65.9506H227.611C226.067 65.9506 231.768 93.3882 230.343 94.8135C228.799 96.3576 220.247 97.6642 219.772 97.1891C219.416 96.8327 221.078 93.8633 221.078 84.7174C221.078 75.6903 216.684 68.8012 216.684 68.0886C216.684 67.2571 223.573 61.6746 225.473 61.6746H242.815C251.486 61.6746 249.704 61.6746 250.417 61.6746H274.647Z" fill="#FEFEFE"/>
<path d="M322.122 61.6746C325.329 61.6746 322.953 62.1497 322.953 139.949C322.953 143.75 323.072 144.344 322.122 144.344H314.401C311.907 144.344 313.57 144.344 313.689 85.3113C306.443 96.1201 292.19 108.473 292.19 120.469C292.19 126.408 292.071 132.822 292.071 139.949C292.071 143.75 292.19 144.344 291.359 144.344H283.519C280.906 144.344 282.807 144.344 282.807 75.5716C282.807 63.9314 282.094 61.6746 283.638 61.6746C292.19 61.6746 290.527 61.6746 291.24 61.6746C293.734 61.6746 292.903 61.9122 292.309 100.277C299.911 92.0816 313.57 81.3917 313.57 68.5637C313.451 62.9811 313.332 61.6746 314.52 61.6746C323.072 61.6746 321.291 61.6746 322.122 61.6746Z" fill="#FEFEFE"/>
<path d="M357.799 24.0747C357.808 24.072 357.817 24.0701 357.826 24.069C358.13 24.0313 358.725 24.7945 359.719 26.0711C361.961 28.9488 366.234 34.4351 373.796 39.2338C374.119 39.4386 374.538 39.2515 374.578 38.8739C374.588 38.7712 374.598 38.6673 374.607 38.5623C374.621 38.4088 374.633 38.2528 374.643 38.0945C375.072 31.4312 372.626 20.5669 367.001 8.45604C366.962 8.37375 366.944 8.28416 366.951 8.1957C366.953 8.16952 366.957 8.14343 366.964 8.11766C367.732 5.06086 372.348 0.876218 374.896 0.0239435C375.118 -0.050097 375.349 0.0528486 375.464 0.260029C378.822 6.31614 385.19 22.3818 384.301 39.8902C384.279 40.3241 384.747 40.626 385.124 40.4181C391.43 36.9392 405.44 31.8486 419.499 37.1168C419.741 37.2074 419.864 37.44 419.844 37.6637C419.833 37.8014 419.768 37.9359 419.644 38.0318L410.913 44.7742C410.761 44.891 410.56 44.9152 410.378 44.849C406.972 43.609 396.287 42.8687 388.507 47.5225C388.358 47.6118 388.276 47.7578 388.264 47.909C388.25 48.0819 388.327 48.2612 388.497 48.3701C392.63 51.0204 404.933 56.6753 421.761 57.8487C422.101 57.8724 422.301 58.1749 422.276 58.4601C422.264 58.6059 422.192 58.7473 422.05 58.845L409.019 67.7971C408.897 67.881 408.748 67.9103 408.602 67.875C403.252 66.5772 393.436 62.9231 384.587 57.7984C384.271 57.6151 383.871 57.7879 383.791 58.1416C382.165 65.2774 377.264 78.4105 373.385 87.4552C373.253 87.7631 372.873 87.8648 372.596 87.6699L364.107 81.7049C363.946 81.5918 363.861 81.4036 363.875 81.2157C363.879 81.1687 363.889 81.1217 363.905 81.0759L372.165 58.0511C372.339 57.5659 371.787 57.123 371.353 57.3974C367.668 59.7297 360.163 64.1169 349.745 68.6039C349.501 68.7091 349.212 68.6157 349.072 68.3848L344.111 60.2084C343.933 59.9151 344.067 59.5363 344.386 59.4272L360.239 54.0158L369 50.6214C369.435 50.4527 369.454 49.8339 369.035 49.6137C366.01 48.0231 362.187 45.3995 358.355 41.4095C353.422 37.0046 348.255 31.5816 344.986 26.4589C344.761 26.1071 345.008 25.6553 345.42 25.6379C348.973 25.4878 354.581 24.5877 356.861 24.2216C357.33 24.1464 357.658 24.0937 357.799 24.0747Z" fill="#964445"/>
</svg>
