<svg width="125" height="33" viewBox="0 0 125 33" fill="none" xmlns="http://www.w3.org/2000/svg">
<path d="M12.13 15.5404C12.13 27.6837 12.7083 31.5614 12.7083 31.7655C12.7083 31.9696 12.4362 32.1397 12.3341 32.1397H0.939152C0.190826 32.1397 0.735063 32.1397 0.735063 12.4451C0.735063 9.11165 0.530974 8.46537 0.973166 8.46537H6.61962C9.47687 8.46537 9.98709 8.29529 11.7559 8.29529C12.028 8.29529 12.4362 9.51983 11.8239 9.51983C11.4157 9.51983 7.81014 11.2546 5.29305 13.7717C5.22502 13.8057 5.191 13.8737 5.12297 13.9417C6.72167 13.1594 8.59248 12.6492 9.27278 12.6492C11.5178 12.6492 12.13 13.7036 12.13 15.5404ZM3.62632 9.96202C3.62632 10.7444 3.62632 11.9349 3.55829 13.7717C6.48356 11.0845 8.55847 9.75793 8.6265 9.6899C8.76256 9.55384 5.191 9.96202 3.62632 9.96202ZM9.40884 30.1668C9.40884 29.3505 9.37482 28.262 9.37482 26.7313C9.37482 17.0371 9.85103 14.588 7.16386 14.588C5.53115 14.588 3.52428 16.3908 3.52428 17.0711C3.45625 20.1665 3.42223 24.3843 3.38822 30.1668H9.40884Z" fill="#151515"/>
<path d="M26.1928 12.0369C26.1928 12.7852 26.6349 12.7512 26.6349 12.7852C26.6349 13.1254 23.4376 15.0642 23.4376 14.7241C23.4376 12.9213 24.5941 11.0845 24.5941 10.8124C24.5941 10.8124 23.2335 9.6899 20.9205 9.6899C18.5734 9.6899 17.2469 10.2001 17.2469 10.3362C17.2469 12.275 17.7911 14.7921 18.4714 17.5813C19.9 16.731 22.0089 15.7445 23.5056 15.7445C24.3219 15.7445 24.7981 18.2276 25.2743 18.2276C25.7165 18.2276 26.0227 18.0575 26.0227 18.1256C26.0227 18.5678 23.6757 20.2685 23.2335 20.2685C22.7573 20.2685 21.9409 17.7174 20.7504 17.7174C20.2061 17.7174 19.3898 18.0916 18.6755 18.4997C19.4918 21.7652 20.4442 25.2687 20.8864 28.5001C21.6008 25.8809 22.7573 24.2142 22.7573 22.9897C22.7573 22.3434 22.3831 22.1393 22.3831 21.9352C22.3831 21.6971 25.5125 21.7652 25.5125 21.9692C25.5125 24.0441 22.3491 27.3776 22.3491 31.7655C22.3491 32.0376 22.145 32.1737 21.9409 32.1737H18.9816C18.5734 32.1737 18.5734 31.8676 18.5734 31.7655C18.5734 31.6635 18.7435 30.643 18.7435 29.7926C18.7435 26.6973 14.4576 16.2207 14.4576 11.5947C14.4576 11.1866 17.3489 8.02317 21.7368 8.02317C26.1587 8.02317 27.3833 9.55384 27.3833 9.6899C27.3833 9.82596 26.1928 11.3566 26.1928 12.0369Z" fill="#151515"/>
<path d="M47.2912 18.8059C47.6314 19.146 45.8966 24.3843 45.8966 29.8267C45.8966 31.0852 46.4409 31.7995 46.4409 32.0376C46.4409 32.1057 46.4068 32.1397 46.3388 32.1397H43.0734C42.9373 32.1397 42.8353 32.0376 42.8353 31.9696C42.8353 23.772 44.502 20.6087 44.1959 20.3365C43.9238 20.0304 33.7873 21.459 31.9506 21.459C31.6784 21.459 32.5628 26.3572 32.5628 31.7315C32.5628 31.9016 32.4608 32.1397 32.2227 32.1397H29.7396C29.6035 32.1397 29.2294 32.1397 29.2294 31.8335C29.2294 31.4934 29.6035 30.0988 29.6035 25.3367C29.6035 21.7311 28.6171 21.0168 28.447 20.8468C28.277 20.6767 30.0117 19.3841 30.658 19.3841C31.2022 19.3841 31.7124 19.3841 32.2227 19.3841C32.4948 18.2956 34.6377 14.6901 36.1004 14.6901H41.4067C41.5087 12.7172 42.4271 10.6423 42.4271 10.3362C42.4271 9.99603 33.3452 10.1321 33.2091 10.1321C33.073 10.1321 33.8554 10.8804 33.8554 12.207C33.8554 12.4791 31.4403 14.1799 30.8621 14.1799C30.692 14.1799 31.1342 13.7377 31.1342 12.7512C31.1342 10.9144 28.9572 8.66945 29.1613 8.46537C29.3654 8.29529 45.0122 8.46537 45.3864 8.46537C45.7606 8.46537 43.9918 11.1866 43.9918 13.8057C43.9918 16.0167 44.6041 18.1936 44.8081 18.8399C46.3388 18.7378 47.1552 18.6698 47.2912 18.8059ZM34.7398 19.3161C37.597 19.2481 39.978 19.146 41.8829 19.01C41.7468 18.4317 41.5767 17.5133 41.4747 16.5609C40.2502 16.4248 38.2773 16.2888 35.5561 16.2888C35.386 16.2888 34.8418 17.7514 34.7398 19.3161Z" fill="#151515"/>
<path d="M59.6625 8.73748C59.6625 15.8466 62.7239 26.4592 62.7239 31.7995C62.7239 31.9356 62.6558 32.1397 62.4177 32.1397H59.8326C59.5945 32.1397 59.5605 31.9016 59.5605 31.7655C59.5605 31.7315 59.5605 31.6635 59.5945 31.5274C59.5945 30.4389 59.5265 29.2824 59.4244 28.1259C59.0843 26.6633 58.3359 25.3367 56.5672 25.3367C54.5603 25.3367 53.2337 25.8469 52.4514 26.3231C52.2133 27.2415 52.0772 28.1599 52.0772 29.0783C52.0772 31.0172 52.5874 32.1397 52.3153 32.1397H49.5261C49.4241 32.1397 49.288 32.0716 49.288 30.3709C49.288 23.2958 56.227 18.1936 56.6012 10.0641C55.4447 9.99603 52.5194 9.928 52.5194 10.1321C52.5194 10.3702 53.3358 13.0574 53.3358 15.3023C53.3358 17.5133 49.9003 19.2821 49.7302 19.2821C49.5261 19.2821 49.288 19.112 49.356 19.01C49.4581 18.9079 50.4105 18.1936 50.4105 16.3228C50.4105 12.4791 48.9138 11.0505 48.9138 10.5743C48.9138 10.1321 51.3629 8.46537 51.7031 8.46537C52.0092 8.46537 59.3224 8.46537 59.3224 8.46537C59.4924 8.46537 59.6625 8.56741 59.6625 8.73748ZM58.6761 23.5339C58.7441 23.5339 58.8121 23.5679 58.8802 23.5679C58.472 20.5746 57.9618 17.6494 57.5536 15.0983C56.227 18.2616 53.982 21.5271 52.8255 24.9625C54.0841 24.3163 56.091 23.5339 58.6761 23.5339Z" fill="#151515"/>
<path d="M79.0839 8.46537C79.356 8.46537 79.5261 9.17968 79.4921 9.21369C78.8458 9.85997 79.288 14.7921 78.6077 15.5064C77.1791 16.901 76.0226 17.1051 76.0226 16.901C76.0226 16.4929 76.5668 16.0167 76.5668 9.6899H72.6551C72.6891 11.6968 72.417 16.9691 72.417 30.8811C72.417 31.9696 72.417 32.1737 72.1789 32.1737H69.9679C69.2196 32.1737 69.7638 32.1737 69.7638 12.4451C69.7638 11.1866 69.7298 10.3022 69.6958 9.6899H65.614C65.1719 9.6899 66.8046 17.5473 66.3964 17.9555C65.9542 18.3977 63.5051 18.7719 63.3691 18.6358C63.267 18.5337 63.7432 17.6834 63.7432 15.0642C63.7432 12.4791 62.4847 10.5063 62.4847 10.3022C62.4847 10.0641 64.4575 8.46537 65.0018 8.46537H69.9679C72.451 8.46537 71.9408 8.46537 72.1449 8.46537H79.0839Z" fill="#151515"/>
<path d="M92.6795 8.46537C93.5979 8.46537 92.9176 8.60143 92.9176 30.8811C92.9176 31.9696 92.9516 32.1397 92.6795 32.1397H90.4685C89.7542 32.1397 90.2304 32.1397 90.2644 15.2343C88.1895 18.3297 84.1077 21.8672 84.1077 25.3027C84.1077 27.0034 84.0737 28.8402 84.0737 30.8811C84.0737 31.9696 84.1077 32.1397 83.8696 32.1397H81.6246C80.8763 32.1397 81.4206 32.1397 81.4206 12.4451C81.4206 9.11165 81.2165 8.46537 81.6587 8.46537C84.1077 8.46537 83.6315 8.46537 83.8356 8.46537C84.5499 8.46537 84.3118 8.5334 84.1417 19.5202C86.3187 17.1732 90.2304 14.1118 90.2304 10.4382C90.1964 8.83953 90.1624 8.46537 90.5025 8.46537C92.9516 8.46537 92.4414 8.46537 92.6795 8.46537Z" fill="#151515"/>
<path d="M105.689 15.6715C105.814 15.7352 105.804 15.9259 105.67 15.9719L102.55 17.0485L96.9387 18.7546C96.8393 18.7848 96.7971 18.9026 96.8552 18.9878L98.6289 21.5914C98.6686 21.6497 98.744 21.6726 98.8103 21.6472C98.8103 21.6473 98.8104 21.6472 98.8103 21.6472C102.595 20.1977 105.296 18.7792 106.565 18.0587C106.692 17.9863 106.84 18.1148 106.785 18.2505L103.843 25.5554C103.815 25.6241 103.84 25.7023 103.903 25.7414L106.954 27.6511C107.032 27.6995 107.134 27.6706 107.174 27.5879C107.174 27.5881 107.174 27.5878 107.174 27.5879C108.551 24.7313 110.301 20.556 110.869 18.3127C110.893 18.2149 111.003 18.1649 111.092 18.2111C114.239 19.8408 117.743 21.0016 119.636 21.4076C119.636 21.4075 119.636 21.4076 119.636 21.4076C119.674 21.4158 119.713 21.4085 119.747 21.388L124.395 18.5439C124.524 18.4649 124.474 18.2661 124.324 18.257C118.329 17.8959 113.95 16.0962 112.504 15.2645C112.406 15.2081 112.412 15.0678 112.512 15.0141C115.28 13.5325 119.098 13.7806 120.27 14.1764C120.317 14.1925 120.369 14.1858 120.411 14.1571L123.525 12.0151C123.628 11.9442 123.608 11.7877 123.49 11.748C118.469 10.0591 113.461 11.7126 111.264 12.8084C111.156 12.8623 111.03 12.7787 111.038 12.6587C111.369 7.11581 109.093 2.02447 107.908 0.133215C107.875 0.0805862 107.815 0.0555698 107.755 0.0721461C106.863 0.317223 105.198 1.65242 104.923 2.62469C104.913 2.65988 104.919 2.697 104.936 2.72925C107.012 6.70947 107.861 10.2614 107.606 12.3231C107.593 12.4279 107.476 12.4832 107.384 12.4317C104.685 10.9169 103.163 9.17684 102.367 8.26682C102.016 7.86567 101.806 7.62582 101.699 7.63768C101.656 7.64244 101.535 7.65967 101.358 7.68505C100.545 7.80141 98.5341 8.0891 97.2832 8.13188C97.1599 8.13609 97.0858 8.27396 97.1571 8.37379C99.2892 11.359 103.734 14.6728 105.689 15.6715Z" fill="#964445"/>
</svg>
