<svg width="166" height="104" viewBox="0 0 166 104" fill="none" xmlns="http://www.w3.org/2000/svg">
<path fill-rule="evenodd" clip-rule="evenodd" d="M1.1929 56.672C2.84138 58.6311 3.20913 58.7811 10.1232 60.3139C17.7184 61.9975 25.3067 62.5039 51.9691 63.1058C69.719 63.5065 78.0959 63.8134 96.9285 64.7548L103.063 65.0612L100.596 67.168C93.0003 73.6563 89.6476 76.7972 87.6501 79.2947C86.4238 80.8279 84.5082 83.0641 83.3931 84.2634C80.5247 87.349 79.6103 89.6114 79.598 93.6548C79.5724 102.146 85.9161 105.828 94.0299 102.031C97.4678 100.422 99.156 99.1811 104.974 93.9891C107.238 91.9683 110.119 89.4956 111.377 88.4944C112.635 87.4927 114.769 85.6859 116.117 84.4788C119.654 81.315 120.973 80.4857 135.162 72.5086C154.867 61.4308 163.349 55.4796 165.181 51.4462C166.196 49.2127 166.28 45.3577 165.363 43.1617C164.561 41.2434 160.136 36.534 155.983 33.178C150.783 28.9782 135.046 19.5708 120.706 12.0909C115.774 9.51846 109.608 6.04449 107.003 4.37131C100.166 -0.0192898 96.8974 -0.786356 91.2677 0.680075C87.6428 1.62415 84.1917 3.56766 83.1726 5.239C80.8746 9.00662 82.7056 12.4239 94.5623 26.4968C97.6416 30.1509 100.163 33.2672 100.166 33.4218C100.178 34.0777 90.5249 34.794 73.1843 35.4239C48.7901 36.3103 37.1136 37.1666 16.4665 39.5821C4.73594 40.9548 3.60387 41.2214 2.14338 42.9573C0.892389 44.4438 -2.40519e-06 48.4992 -2.22171e-06 52.6967C-2.13039e-06 54.7857 0.218637 55.5139 1.1929 56.672Z" fill="#F7F7F7"/>
</svg>
