<svg width="1440" height="1024" viewBox="0 0 1440 1024" fill="none" xmlns="http://www.w3.org/2000/svg">
<g clip-path="url(#clip0_948_88)">
<path fill-rule="evenodd" clip-rule="evenodd" d="M272.489 692.686C273.889 724.243 278.688 784.374 280.572 794.006C286.465 824.103 324.596 866.865 362.434 885.805C388.296 898.754 434.963 907.545 454.105 903.072C461.953 901.24 481.189 892.225 496.852 883.045C550.573 851.549 599.731 831.785 755.507 779.048C781.625 770.208 823.901 754.663 849.461 744.503C880.234 732.271 900.188 726.798 908.549 728.294C919.715 730.291 924.815 766.907 1063.3 964.736C1233.64 1208.08 1261.84 1213.98 1301.15 1221.01C1338.4 1227.68 1394.79 1200.61 1425.64 1161.26C1438.96 1144.28 1441.18 1138.16 1448.1 1099.43C1455.32 1059.09 1501.57 1047.95 1493.48 1022.45C1479.21 977.449 1457.88 906.038 1370.55 790.332C1346.33 758.236 1213.53 625.749 1213.12 619.942C1212.56 612.022 1208.06 612.689 1218.94 605.112C1226.61 599.946 1308.26 567.11 1413.19 522.606C1610.75 438.823 1632.35 428.267 1668.13 398.007C1698.31 372.478 1712.84 350.737 1717.74 323.783C1728.07 266.854 1677.19 204.806 1610.28 192.748C1584.78 188.15 1577.77 188.738 1549.38 197.835C1531.74 203.489 1488.11 222.953 1452.43 241.079C1340.88 297.752 1229.18 344.172 1092.23 390.757C1040.48 408.363 1017.77 414.056 1006.99 412.128C994.737 409.936 985.924 402.318 953.977 366.311C902.735 308.554 900.378 305.222 788.435 132.212C734.875 49.4342 687.361 -23.1069 682.846 -28.9843C655.819 -64.2088 609.879 -62.4084 573.115 -24.6895C542.73 6.48517 524.131 74.6492 533.135 121.843C540.422 160.039 580.902 230.62 617.754 269.372C652.313 305.716 678.457 342.878 727.076 424.755C764.807 488.305 766.971 498.181 745.383 508.321C731.969 514.621 551.997 563.529 409.467 599.601C364.186 611.064 319.491 623.903 310.148 628.134C285.866 639.132 271.228 664.225 272.489 692.686Z" fill="#131313" fill-opacity="0.16"/>
</g>
<defs>
<clipPath id="clip0_948_88">
<rect width="1440" height="1024" fill="white"/>
</clipPath>
</defs>
</svg>
