<svg width="1346" height="445" viewBox="0 0 1346 445" fill="none" xmlns="http://www.w3.org/2000/svg">
<path d="M160.047 214.327C160.047 382.071 168.034 435.636 168.034 438.455C168.034 441.275 164.275 443.624 162.866 443.624H5.45926C-4.87789 443.624 2.64004 443.624 2.64004 171.569C2.64004 125.522 -0.179182 116.594 5.92913 116.594H83.9276C123.397 116.594 130.445 114.245 154.878 114.245C158.637 114.245 164.275 131.16 155.818 131.16C150.179 131.16 100.373 155.124 65.6027 189.894C64.6629 190.364 64.1931 191.304 63.2533 192.243C85.3372 181.436 111.18 174.388 120.577 174.388C151.589 174.388 160.047 188.954 160.047 214.327ZM42.579 137.268C42.579 148.075 42.579 164.521 41.6393 189.894C82.0481 152.774 110.71 134.449 111.65 133.509C113.529 131.63 64.1931 137.268 42.579 137.268ZM122.457 416.371C122.457 405.095 121.987 390.059 121.987 368.915C121.987 235.001 128.565 201.171 91.4455 201.171C68.8918 201.171 41.1694 226.074 41.1694 235.471C40.2297 278.23 39.7598 336.493 39.2899 416.371H122.457Z" fill="#131313"/>
<path d="M354.305 165.931C354.305 176.268 360.413 175.798 360.413 176.268C360.413 180.966 316.245 207.749 316.245 203.05C316.245 178.147 332.221 152.774 332.221 149.015C332.221 149.015 313.426 133.509 281.475 133.509C249.054 133.509 230.729 140.558 230.729 142.437C230.729 169.22 238.247 203.99 247.644 242.519C267.379 230.773 296.511 217.146 317.185 217.146C328.462 217.146 335.04 251.447 341.618 251.447C347.727 251.447 351.956 249.098 351.956 250.037C351.956 256.146 319.535 279.639 313.426 279.639C306.848 279.639 295.571 244.399 279.126 244.399C271.608 244.399 260.331 249.567 250.464 255.206C261.741 300.313 274.897 348.71 281.005 393.348C290.872 357.168 306.848 334.144 306.848 317.229C306.848 308.301 301.679 305.482 301.679 302.663C301.679 299.374 344.908 300.313 344.908 303.133C344.908 331.795 301.21 377.842 301.21 438.455C301.21 442.214 298.39 444.094 295.571 444.094H254.692C249.054 444.094 249.054 439.865 249.054 438.455C249.054 437.046 251.403 422.95 251.403 411.203C251.403 368.445 192.2 223.725 192.2 159.822C192.2 154.184 232.139 110.486 292.752 110.486C353.835 110.486 370.75 131.63 370.75 133.509C370.75 135.389 354.305 156.533 354.305 165.931Z" fill="#131313"/>
<path d="M645.753 259.435C650.452 264.133 626.488 336.493 626.488 411.673C626.488 429.058 634.006 438.925 634.006 442.214C634.006 443.154 633.536 443.624 632.597 443.624H587.489C585.61 443.624 584.2 442.214 584.2 441.275C584.2 328.036 607.224 284.338 602.995 280.579C599.236 276.35 459.215 296.085 433.842 296.085C430.083 296.085 442.299 363.746 442.299 437.985C442.299 440.335 440.89 443.624 437.6 443.624H403.3C401.42 443.624 396.252 443.624 396.252 439.395C396.252 434.696 401.42 415.432 401.42 349.65C401.42 299.844 387.794 289.976 385.445 287.627C383.096 285.278 407.059 267.423 415.986 267.423C423.504 267.423 430.552 267.423 437.6 267.423C441.359 252.387 470.961 202.58 491.166 202.58H564.465C565.875 175.328 578.562 146.666 578.562 142.437C578.562 137.738 453.106 139.618 451.227 139.618C449.347 139.618 460.154 149.955 460.154 168.28C460.154 172.039 426.793 195.532 418.806 195.532C416.456 195.532 422.565 189.424 422.565 175.798C422.565 150.425 392.493 119.413 395.312 116.594C398.131 114.245 614.272 116.594 619.44 116.594C624.609 116.594 600.176 154.184 600.176 190.364C600.176 220.905 608.633 250.977 611.453 259.905C632.597 258.495 643.874 257.555 645.753 259.435ZM472.371 266.483C511.84 265.543 544.731 264.133 571.044 262.254C569.164 254.266 566.815 241.58 565.405 228.423C548.49 226.544 521.237 224.664 483.648 224.664C481.298 224.664 473.781 244.869 472.371 266.483Z" fill="#131313"/>
<path d="M816.646 120.353C816.646 218.556 858.935 365.156 858.935 438.925C858.935 440.805 857.995 443.624 854.706 443.624H818.996C815.707 443.624 815.237 440.335 815.237 438.455C815.237 437.985 815.707 437.046 815.707 435.166C815.707 420.13 814.767 404.155 813.357 388.179C808.659 367.975 798.321 349.65 773.888 349.65C746.166 349.65 727.841 356.698 717.034 363.276C713.745 375.963 711.865 388.649 711.865 401.336C711.865 428.118 718.913 443.624 715.154 443.624H676.625C675.215 443.624 673.336 442.684 673.336 419.191C673.336 321.458 769.189 250.977 774.358 138.678C758.382 137.738 717.974 136.799 717.974 139.618C717.974 142.907 729.25 180.027 729.25 211.038C729.25 241.58 681.794 266.013 679.444 266.013C676.625 266.013 673.336 263.664 674.746 262.254C675.685 260.844 688.842 250.977 688.842 225.134C688.842 172.039 668.167 152.304 668.167 145.726C668.167 139.618 701.998 116.594 706.697 116.594C710.926 116.594 811.948 116.594 811.948 116.594C814.297 116.594 816.646 118.004 816.646 120.353ZM803.02 324.747C803.96 324.747 804.9 325.217 805.839 325.217C800.201 283.868 793.153 243.459 787.514 208.219C769.189 251.917 738.178 297.024 722.202 344.481C739.588 335.554 767.31 324.747 803.02 324.747Z" fill="#131313"/>
<path d="M1084.93 116.594C1088.69 116.594 1091.04 126.461 1090.57 126.931C1081.64 135.859 1087.75 203.99 1078.35 213.857C1058.61 233.122 1042.64 235.941 1042.64 233.122C1042.64 227.484 1050.16 220.905 1050.16 133.509H996.122C996.592 161.232 992.833 234.062 992.833 426.239C992.833 441.275 992.833 444.094 989.544 444.094H959.002C948.665 444.094 956.183 444.094 956.183 171.569C956.183 154.184 955.713 141.967 955.243 133.509H898.859C892.751 133.509 915.305 242.05 909.666 247.688C903.558 253.796 869.727 258.965 867.848 257.085C866.438 255.676 873.016 243.929 873.016 207.749C873.016 172.039 855.631 144.786 855.631 141.967C855.631 138.678 882.883 116.594 890.401 116.594H959.002C993.303 116.594 986.255 116.594 989.074 116.594H1084.93Z" fill="#131313"/>
<path d="M1278.17 119.887C1281.81 131.575 1276.02 184.718 1276.02 426.239C1276.02 441.275 1276.49 443.624 1272.73 443.624H1242.19C1232.32 443.624 1238.9 443.624 1239.37 210.098C1210.71 252.857 1154.33 301.723 1154.33 349.18C1154.33 372.673 1153.86 398.046 1153.86 426.239C1153.86 441.275 1154.33 443.624 1151.04 443.624H1120.02C1109.69 443.624 1117.21 443.624 1117.21 171.569C1117.21 125.522 1114.39 116.594 1120.49 116.594H1150.57C1160.43 116.594 1157.14 117.534 1154.8 269.302C1184.87 236.881 1238.9 194.593 1238.9 143.847C1238.62 130.586 1238.34 123.425 1239.17 119.819C1239.32 96.6303 1240.95 93.2676 1240.09 92.41C1239.41 91.7262 1237.19 90.9391 1233.52 90.0794C1230.47 89.3656 1225.51 88.0669 1222.5 87.1933C1204.51 81.9839 1198.64 80.6316 1191.57 80.0783C1189.51 79.9168 1187.12 79.5073 1186.27 79.1678C1184.19 78.3401 1180.41 74.4826 1178.83 71.5903C1176.53 67.3592 1175.75 60.8837 1177.16 57.689C1177.61 56.6666 1181.07 50.7375 1183 47.6986C1184.73 44.958 1187.73 43.5665 1190.71 44.119C1191.86 44.3317 1196.87 46.0405 1201.85 47.916C1217.51 53.8201 1237.5 60.9615 1239.17 61.2458C1241.84 61.7032 1242.28 60.6398 1242.89 52.2486C1243.68 41.4371 1243.65 36.2646 1242.79 30.6211C1241.87 24.6035 1242.68 15.3766 1244.49 11.3346C1246.71 6.34036 1252.89 1.18327 1257.75 0.248181C1263.64 -0.883128 1268.05 1.93782 1268.28 6.98664C1268.32 7.8294 1268.04 17.697 1267.66 28.9142C1266.86 52.3588 1266.86 52.8234 1267.89 61.5526C1268.53 66.9947 1268.86 68.2797 1269.86 69.2816C1270.74 70.163 1273.23 71.109 1279.21 72.8315C1295.04 77.3906 1308.49 80.3225 1322.6 82.2861C1327.11 82.9147 1332.45 83.9355 1334.47 84.5552C1337.71 85.5523 1338.41 85.9538 1340.49 88.042C1345.95 93.5222 1346.67 102.629 1342 107.274C1339.79 109.473 1337.02 110.559 1332.54 110.979C1327.23 111.478 1324.52 111.059 1300.62 106.031C1287.92 103.36 1278.16 101.115 1277.1 101.099C1275.59 101.099 1276.06 101.329 1275.59 102.105C1275.36 102.49 1277.02 112.212 1278.17 119.887Z" fill="#131313"/>
</svg>
