<svg width="387" height="331" viewBox="0 0 387 331" fill="none" xmlns="http://www.w3.org/2000/svg">
<path d="M2.56234 277.484C6.63106 294.572 9.81527 301.97 16.3606 309.193C22.9059 316.416 37.4118 324.695 40.9498 323.286C42.5419 322.582 45.0185 323.11 46.2568 324.167C47.4952 325.224 55.9864 326.457 65.1852 326.809C74.2072 326.986 85.175 328.043 89.5975 328.923C93.8432 329.804 103.75 330.333 111.533 330.157C139.484 329.1 168.318 327.514 176.102 326.633C180.525 326.281 193.615 325.4 205.114 324.872C216.612 324.343 226.696 323.462 227.403 323.11C229.703 321.701 239.433 325.752 240.494 328.571C242.617 334.208 263.314 329.276 270.39 321.525C275.167 316.063 279.943 315.535 293.741 318.53C300.64 320.115 311.608 320.644 325.583 320.115C343.45 319.411 349.111 318.53 361.317 314.126C375.115 309.369 376 308.665 376 303.908C376 299.68 375.469 299.152 371.931 299.856C369.808 300.385 362.732 301.794 356.01 302.851C348.757 304.26 344.158 305.846 344.158 307.255C344.158 311.483 325.406 315.711 311.254 314.654C304.178 314.126 297.456 313.245 296.395 312.54C295.51 312.012 298.871 308.665 303.824 305.317C308.955 301.794 316.738 295.628 321.161 291.224C325.583 286.996 331.244 281.359 333.898 278.893C339.912 273.256 339.912 272.903 334.959 266.738C332.836 263.919 330.713 260.043 330.536 258.106C329.298 250.002 325.76 242.427 320.807 236.614C317.8 233.267 315.677 230.272 316.031 229.92C318.33 227.629 341.151 223.578 351.765 223.401C361.317 223.225 363.263 222.873 359.194 221.816C356.187 221.111 350.349 220.231 345.927 220.054L337.966 219.702L345.042 218.117C348.934 217.412 357.425 216.707 363.971 216.707C370.693 216.531 376 215.826 376 214.946C376 208.251 333.898 212.127 314.262 220.583C308.424 223.049 307.716 222.873 297.279 217.236C291.264 213.889 285.073 211.246 283.304 211.246C279.412 211.246 270.567 206.666 262.783 200.676C252.7 192.925 246.685 191.516 239.963 195.744C235.541 198.562 232.533 199.091 225.988 198.386C217.32 197.153 216.435 197.153 196.446 193.454C189.547 192.221 181.232 191.34 177.871 191.34C174.51 191.34 162.127 190.107 150.451 188.697C135.946 186.936 124.27 186.583 113.302 187.464C104.457 188.169 94.197 189.05 90.3051 189.226C86.4133 189.578 77.5683 190.459 70.8461 190.987C63.9469 191.692 54.0405 192.397 48.7335 192.573C33.6969 193.101 16.1837 199.796 9.99217 207.194C4.15444 214.241 0.616426 224.811 0.970228 235.028C1.14713 238.904 0.793328 246.831 0.262625 252.645C-0.444978 259.867 0.262626 267.619 2.56234 277.484ZM9.99217 273.96C12.115 275.194 12.115 281.712 9.99217 281.712C9.10767 281.712 8.04626 280.655 7.51556 279.421C6.45416 276.427 8.04626 272.727 9.99217 273.96ZM8.93077 235.909C12.2919 235.909 12.2919 239.609 8.93077 244.013C6.45415 247.184 6.45415 247.007 6.27725 241.546C6.27725 237.671 7.16176 235.909 8.93077 235.909ZM10.1691 255.639C13.7071 256.873 14.2378 264.095 10.8767 264.095C8.93077 264.095 8.04626 262.51 8.04626 259.515C8.04626 256.696 8.93077 255.287 10.1691 255.639ZM9.99217 215.65C11.0536 214.946 12.2919 214.769 12.8226 215.474C14.2378 216.883 11.7612 225.339 9.81527 225.339C7.51556 225.339 7.51556 217.06 9.99217 215.65ZM12.6457 288.053C14.2378 283.826 17.7758 284.706 20.2524 289.815C21.8445 293.338 21.8445 295.1 20.2524 296.862C15.1223 303.027 9.46147 296.333 12.6457 288.053ZM14.7685 267.619C17.2451 267.619 22.5521 278.364 21.3138 281.359C20.4293 283.649 19.7217 283.297 16.8913 279.069C13.3533 273.784 12.2919 267.619 14.7685 267.619ZM16.0068 248.945C19.7217 253.702 19.5448 258.282 16.0068 255.287C14.5916 254.054 13.3533 251.411 13.3533 249.298C13.5302 245.598 13.5302 245.598 16.0068 248.945ZM15.1223 227.101C16.0068 227.101 17.9527 229.391 19.3679 232.21C21.8445 236.614 21.8445 237.495 19.5448 238.375C16.7144 239.432 13.5302 235.028 13.3533 230.096C13.3533 228.51 14.0609 227.101 15.1223 227.101ZM18.6603 213.008C19.5448 213.008 20.4293 214.241 20.4293 215.65C20.4293 217.06 19.5448 218.293 18.6603 218.293C17.5989 218.293 16.8913 217.06 16.8913 215.65C16.8913 214.241 17.5989 213.008 18.6603 213.008ZM23.2597 264.448C24.6749 262.334 26.6209 260.572 27.6823 260.572C30.5127 260.572 29.4513 266.209 26.0901 268.675C20.0755 273.256 18.6603 270.966 23.2597 264.448ZM29.982 223.578C33.8738 226.749 33.52 230.096 28.9206 232.562C25.7363 234.324 24.6749 233.971 22.729 231.329C20.7831 228.51 20.7831 227.629 23.7904 224.635C26.7977 221.816 27.8592 221.64 29.982 223.578ZM25.7363 246.831C29.2744 244.717 32.8124 245.246 32.8124 248.064C32.8124 249.298 25.2056 253.525 23.0828 253.525C20.6062 253.525 22.729 248.769 25.7363 246.831ZM26.0901 297.919C27.3285 298.447 28.7437 300.209 29.0975 302.147C29.6282 304.965 29.2744 305.141 26.7978 303.027C23.4366 300.209 23.0828 297.038 26.0901 297.919ZM26.6209 283.473C28.5668 283.473 29.0975 282.24 28.3899 279.421C27.6823 276.779 28.3899 274.489 30.1589 272.903C32.8124 270.613 33.8738 271.142 39.1808 276.955C42.5419 280.478 45.1954 284.706 45.1954 286.116C45.1954 289.287 37.9425 289.639 34.7583 286.468C32.8124 284.706 32.6355 285.059 33.52 288.053C34.4045 291.048 33.8738 292.105 30.8665 292.81C25.5594 294.219 23.9673 292.986 23.9673 287.701C23.9673 285.059 25.0287 283.473 26.6209 283.473ZM26.6208 207.723C28.0361 207.723 29.2744 209.308 29.2744 211.246C29.2744 213.184 28.0361 214.769 26.6208 214.769C25.2056 214.769 23.9673 213.184 23.9673 211.246C23.9673 209.308 25.2056 207.723 26.6208 207.723ZM34.0507 306.727C37.5887 307.431 38.827 311.483 36.5273 315.006C34.4045 318.354 31.0434 315.711 31.0434 310.602C31.0434 307.255 31.9279 306.198 34.0507 306.727ZM38.2963 294.924C41.3036 294.219 43.6033 294.572 44.4878 295.981C45.3723 297.566 44.8416 297.742 42.8957 297.038C38.4732 295.276 39.3577 297.214 45.1954 302.323C49.9718 306.198 50.8563 309.898 47.1413 309.898C44.3109 309.898 30.8665 298.799 32.2817 297.39C32.9893 296.685 35.8197 295.452 38.2963 294.924ZM34.7583 254.759C35.289 254.054 37.9425 255.992 40.4191 259.339C44.134 264.095 44.4878 265.681 42.7188 266.385C39.7115 267.619 29.982 259.163 32.1048 257.401C32.9893 256.696 34.0507 255.463 34.7583 254.759ZM33.1662 236.261C36.1735 233.267 37.2349 233.619 39.7115 238.904C42.5419 245.246 39.5346 248.241 34.5814 243.836C30.5127 240.137 30.3358 239.08 33.1662 236.261ZM34.0507 215.298C36.1735 214.593 42.365 225.339 40.7729 226.749C39.3577 228.158 30.8665 219.702 31.5741 217.588C31.9279 216.707 32.9893 215.65 34.0507 215.298ZM42.8957 249.65C45.7261 246.479 50.5025 245.246 50.5025 247.712C50.3256 250.707 43.4264 257.225 41.6574 256.168C39.1808 254.582 39.3577 253.525 42.8957 249.65ZM42.7188 210.542C45.1954 207.899 50.5025 206.666 50.5025 208.428C50.5025 210.542 42.0112 218.117 41.1267 217.06C39.1808 215.298 39.7115 213.536 42.7188 210.542ZM45.5492 269.556C48.9104 267.442 49.618 267.619 51.7408 270.261C53.6867 273.08 53.5098 273.784 50.3256 276.074C46.4337 278.717 41.6574 277.836 41.6574 274.313C41.6574 273.08 43.4264 270.966 45.5492 269.556ZM44.3109 228.863C46.4337 227.101 47.672 227.101 49.0873 228.51C51.387 230.8 46.0799 240.137 43.4264 238.552C40.7729 236.966 41.3036 231.329 44.3109 228.863ZM49.4411 297.566C49.9718 297.566 52.4484 298.447 55.1019 299.328C60.9396 301.618 58.463 305.67 52.4484 303.732C49.4411 302.851 46.9644 297.566 49.4411 297.566ZM50.5025 286.116C52.9791 284.53 60.9396 290.872 61.1165 294.395C61.1165 298.095 59.3475 298.271 53.156 295.452C48.7335 293.515 47.1413 288.23 50.5025 286.116ZM52.2715 257.049C54.3943 257.049 61.1165 267.442 61.1165 270.613C61.1165 274.665 57.9323 273.08 54.2174 267.09C50.1487 260.924 49.4411 257.049 52.2715 257.049ZM52.4484 240.313C54.5712 238.904 61.1165 244.365 61.1165 247.712C61.1165 250.707 59.3475 250.707 54.3943 247.184C50.1487 244.189 49.4411 242.075 52.4484 240.313ZM53.5098 218.469C60.9396 224.282 62.7086 228.334 58.463 229.92C54.3943 231.505 50.5025 227.277 50.5025 221.464C50.5025 216.531 50.8563 216.355 53.5098 218.469ZM61.4703 311.307C63.2393 311.659 64.6545 312.716 64.6545 313.597C64.6545 316.592 59.7013 317.297 55.6326 315.006C51.5639 312.893 51.5639 312.893 54.925 311.659C56.8709 310.955 59.8782 310.779 61.4703 311.307ZM56.5171 202.438C58.9937 202.438 61.4703 203.319 62.001 204.2C63.4162 206.49 58.463 208.428 54.925 207.018C50.6794 205.433 51.9177 202.438 56.5171 202.438ZM60.9396 280.302C66.7773 284.706 73.4996 291.224 73.4996 292.634C73.4996 294.572 65.1852 291.224 58.9937 286.82C54.925 283.826 54.2174 282.592 55.9864 280.655C57.5785 278.717 58.6399 278.541 60.9396 280.302ZM62.001 320.115C64.4776 320.468 66.4235 321.525 66.4235 322.405C66.4235 324.167 62.7086 324.519 58.6399 322.934C54.3943 321.348 56.8709 319.058 62.001 320.115ZM68.5463 248.064C75.0917 242.779 75.4455 242.603 79.868 245.598L84.6443 248.593L73.6765 254.759C67.4849 258.106 61.4703 260.396 59.8782 259.867C56.5171 258.458 58.463 255.992 68.5463 248.064ZM66.7773 229.567C78.099 222.344 81.1063 225.163 70.3154 232.914C65.1852 236.614 60.232 239.08 59.1706 238.552C56.694 236.966 58.6399 234.5 66.7773 229.567ZM66.6004 207.547C75.6224 198.739 78.8066 197.153 78.8066 201.029C78.8066 205.785 62.5317 221.111 59.5244 219.174C56.5171 217.412 56.8709 216.883 66.6004 207.547ZM65.1852 303.732C69.7847 303.732 69.6078 307.255 64.8314 307.784C62.001 308.312 60.9396 307.608 61.4703 306.022C62.001 304.789 63.5931 303.732 65.1852 303.732ZM68.0156 269.204C77.5683 259.867 81.8139 264.624 74.2072 276.074C69.6078 283.121 69.0771 283.297 66.0697 280.478C61.8241 276.603 62.001 275.194 68.0156 269.204ZM68.0156 295.805C70.1385 295.805 72.4382 299.328 71.1999 300.561C69.9616 301.794 66.4235 299.504 66.4235 297.39C66.4235 296.509 67.1311 295.805 68.0156 295.805ZM77.0376 305.494C80.9294 305.494 80.2218 310.602 76.5069 311.307C74.0303 311.836 73.3227 311.131 73.8534 308.665C74.2072 306.903 75.6224 305.494 77.0376 305.494ZM85.5288 234.5C90.3051 237.318 94.5508 245.422 92.6049 247.36C92.0742 248.064 87.2978 245.422 82.3446 241.899C73.4996 235.557 73.1458 235.204 76.8607 233.443C79.868 232.21 81.9908 232.386 85.5288 234.5ZM77.0376 280.831C80.5756 278.717 93.3125 284.002 94.9046 288.406C97.2043 294.395 97.0274 294.395 90.659 293.162C79.3373 290.696 71.9075 284.002 77.0376 280.831ZM81.2832 213.36C86.5902 212.656 91.1897 215.474 91.1897 219.35C91.1897 221.816 88.713 221.64 78.2759 218.821C73.6765 217.588 75.6224 214.065 81.2832 213.36ZM89.0668 312.54C90.659 314.126 82.8753 320.468 79.3373 320.468C77.7452 320.468 78.9835 318.53 82.3446 315.887C85.3519 313.245 88.3592 311.836 89.0668 312.54ZM79.6911 294.043C81.2832 294.043 82.8753 295.276 83.5829 296.862C84.8212 300.033 81.637 303.732 78.9835 302.147C75.9762 300.209 76.6838 294.043 79.6911 294.043ZM87.4747 263.214C91.5435 265.681 94.7277 268.499 94.7277 269.38C94.7277 270.437 90.8359 268.499 86.2364 265.505C75.9762 258.634 77.2145 256.696 87.4747 263.214ZM85.175 193.101C86.944 191.34 96.4967 199.443 96.4967 202.79C96.4967 207.194 94.9046 206.842 89.0668 201.205C83.9367 196.272 83.406 195.039 85.175 193.101ZM91.1897 254.406C92.0742 254.935 92.9587 256.696 92.9587 258.106C92.9587 259.515 92.0742 260.22 91.1897 259.691C90.1282 259.163 89.4206 257.401 89.4206 255.992C89.4206 254.582 90.1282 253.878 91.1897 254.406ZM97.735 311.659C100.565 311.659 111.179 322.934 109.057 323.638C107.818 323.991 104.457 322.229 101.627 319.411C96.6736 314.654 95.0815 311.659 97.735 311.659ZM98.9733 195.391C100.388 195.391 101.981 196.625 102.511 198.21C104.28 202.614 102.158 203.495 99.1502 199.619C95.966 195.391 95.966 195.391 98.9733 195.391ZM107.111 193.63C109.41 193.63 111.533 198.562 109.941 200.324C109.234 200.853 107.995 200.324 107.111 198.915C104.811 195.391 104.988 193.63 107.111 193.63ZM116.31 317.297C119.848 316.592 122.501 323.462 119.671 326.281C118.432 327.514 117.017 327.338 115.071 325.752C111.71 322.934 112.241 318.001 116.31 317.297ZM120.909 225.339C123.209 225.339 123.209 225.868 120.909 229.215C117.017 235.028 113.656 235.557 116.133 229.92C117.371 227.453 119.494 225.339 120.909 225.339ZM123.563 232.386C126.747 232.386 131.877 236.261 131.877 238.552C131.877 240.137 134.353 243.484 137.361 246.127L142.845 251.059L138.599 255.992C134.707 260.572 134 260.748 130.462 258.634C126.216 255.992 125.685 253.173 128.162 248.417C129.223 246.655 129.223 244.365 128.162 242.779C127.277 241.546 126.57 241.018 126.57 242.075C126.57 242.956 125.685 242.603 124.801 241.194C123.563 239.08 122.678 239.08 120.909 240.842C117.017 244.717 115.779 242.956 118.963 237.671C120.555 234.676 122.678 232.386 123.563 232.386ZM121.617 194.511C125.685 194.511 127.454 195.391 127.454 197.153C127.454 198.915 125.332 199.972 121.617 200.324C117.017 200.853 115.956 200.324 115.956 197.682C115.956 195.215 117.194 194.335 121.617 194.511ZM122.678 262.862C124.801 259.691 131.877 262.157 131.877 266.033C131.877 270.437 127.277 272.199 123.916 269.38C120.909 266.914 120.732 265.857 122.678 262.862ZM125.685 316.944C127.101 316.944 128.339 318.177 128.339 319.587C128.339 321.701 129.223 321.348 131.877 318.706C136.122 314.478 138.953 315.535 138.953 321.348C138.953 325.048 138.245 325.576 132.761 325.4C129.046 325.224 125.685 323.991 124.801 322.405C122.501 318.354 122.678 316.944 125.685 316.944ZM133.115 221.464C134.707 219.702 136.83 218.293 138.068 218.293C141.253 218.293 146.206 224.458 145.144 227.277C144.614 228.686 145.852 230.448 148.152 231.505C153.105 233.619 153.989 239.08 150.451 243.836C147.798 247.007 147.267 247.184 142.845 244.541C139.837 242.779 138.068 240.489 138.245 238.023C138.245 235.909 137.538 234.147 136.299 234.147C133.469 234.147 130.108 230.448 130.108 227.277C130.108 225.868 131.346 223.225 133.115 221.464ZM136.299 267.971C145.675 253.878 145.498 253.878 150.805 259.163C154.697 263.214 155.051 264.271 153.105 266.562C150.275 270.085 147.975 270.085 144.083 266.562C141.253 263.919 140.722 264.095 138.245 269.028C135.592 274.137 131.877 278.012 131.877 275.546C131.877 275.017 133.823 271.67 136.299 267.971ZM137.007 195.391C140.014 195.391 142.845 196.272 143.375 197.329C144.968 199.796 144.083 200.5 137.538 201.733C132.584 202.79 131.877 202.438 131.877 199.091C131.877 196.096 132.938 195.391 137.007 195.391ZM140.368 271.494C141.606 271.142 142.491 271.846 142.491 273.256C142.314 275.722 136.476 283.473 134.707 283.473C132.761 283.473 138.068 272.375 140.368 271.494ZM144.083 315.183C144.968 315.183 146.029 317.12 146.383 319.587C147.09 322.582 146.56 323.991 144.968 323.991C143.552 323.991 142.491 322.053 142.491 319.587C142.491 317.12 143.199 315.183 144.083 315.183ZM146.737 278.541C149.036 278.012 149.744 278.717 149.213 281.007C148.859 282.945 147.267 284.53 145.321 284.883C143.022 285.411 142.314 284.706 142.845 282.416C143.199 280.478 144.791 278.893 146.737 278.541ZM144.968 215.826C146.383 216.355 147.975 216.003 148.682 214.946C149.213 213.889 151.69 213.008 153.989 213.008C156.289 213.008 158.412 211.951 158.943 210.718C159.296 209.661 160.358 209.132 161.065 209.837C161.773 210.542 159.65 213.889 156.466 217.06C150.805 222.873 150.275 223.049 146.56 220.231C142.137 217.06 141.253 214.417 144.968 215.826ZM151.159 197.153C155.228 197.153 157.527 199.972 154.874 201.557C152.397 203.143 147.798 201.381 147.798 198.915C147.798 198.034 149.39 197.153 151.159 197.153ZM152.574 313.773C156.466 314.478 158.058 323.991 154.343 323.991C150.805 323.991 149.567 322.229 149.567 317.473C149.567 314.302 150.451 313.245 152.574 313.773ZM152.574 246.303C156.112 240.313 158.412 239.961 162.481 244.365C165.134 247.184 165.134 247.888 161.95 253.173C157.881 259.691 157.174 259.867 152.751 255.816C148.859 252.292 148.859 252.645 152.574 246.303ZM155.051 223.578C162.658 219.35 166.726 225.515 160.181 231.505C157.351 234.147 156.289 234.147 153.989 232.386C150.275 229.391 150.628 225.868 155.051 223.578ZM156.997 269.732C160.181 266.562 163.719 267.266 163.719 270.966C163.719 274.841 159.296 278.893 156.643 277.307C154.343 275.898 154.343 272.375 156.997 269.732ZM163.011 314.302C165.311 314.302 166.549 315.711 166.903 319.058C167.611 324.695 163.188 325.929 160.358 320.82C157.881 316.768 158.943 314.302 163.011 314.302ZM162.658 256.52C163.896 254.935 165.842 253.525 166.903 253.525C170.087 253.525 174.51 261.453 173.272 264.8C172.033 268.147 170.618 268.323 164.604 265.505C159.65 263.214 159.12 261.1 162.658 256.52ZM161.773 197.153C165.488 197.153 169.026 199.443 169.026 201.733C169.026 204.376 167.257 204.728 163.011 203.143C160.004 201.91 159.12 197.153 161.773 197.153ZM163.719 231.505C166.019 230.096 172.564 233.795 172.564 236.438C172.564 237.671 171.856 239.785 170.795 241.194C169.557 243.308 168.672 243.308 165.665 240.489C161.596 236.79 160.889 233.267 163.719 231.505ZM163.719 214.593C165.665 211.07 172.564 209.837 172.564 213.008C172.564 213.889 173.272 214.769 174.333 214.769C175.218 214.769 175.571 213.536 175.041 212.127C174.333 210.542 175.041 209.485 176.81 209.485C181.055 209.485 180.348 211.775 173.449 218.293C168.318 223.225 166.903 223.754 164.603 221.816C161.419 219.174 161.419 218.997 163.719 214.593ZM167.257 276.427C168.142 276.427 169.026 277.66 169.026 279.069C169.026 280.478 168.142 281.712 167.257 281.712C166.196 281.712 165.488 280.478 165.488 279.069C165.488 277.66 166.196 276.427 167.257 276.427ZM173.272 243.484L177.694 238.552L181.409 242.251C185.124 245.95 185.124 246.303 182.294 250.707C178.932 255.816 177.517 256.168 172.387 253.525C167.965 251.059 168.142 249.474 173.272 243.484ZM171.149 223.93C174.51 220.583 179.286 221.464 180.525 225.339C181.763 229.215 178.932 234.147 175.394 234.147C172.741 234.147 169.026 230.624 169.026 227.982C169.026 226.925 169.911 225.163 171.149 223.93ZM172.387 313.421C173.979 313.421 176.102 317.649 176.102 320.644C176.102 321.525 174.864 322.229 173.449 322.229C171.856 322.229 170.795 320.644 170.795 317.825C170.795 315.359 171.503 313.421 172.387 313.421ZM172.918 280.302C176.279 281.535 176.81 286.996 173.625 286.996C171.856 286.996 170.795 285.411 170.795 283.297C170.795 281.183 171.68 279.95 172.918 280.302ZM176.102 269.204C178.225 265.328 181.232 264.976 185.655 268.147C188.662 270.437 188.662 270.789 184.77 275.37C178.048 283.121 171.326 278.364 176.102 269.204ZM179.64 198.562C184.77 199.267 186.716 202.967 183.178 205.08C180.878 206.49 174.333 202.79 174.333 199.972C174.333 198.562 176.102 198.034 179.64 198.562ZM180.348 313.421C182.647 313.421 184.947 316.944 184.947 320.644C184.947 323.462 179.994 322.229 179.109 319.058C177.694 313.949 177.871 313.421 180.348 313.421ZM183.355 212.832C186.008 210.189 188.308 209.485 191.669 210.365C194.323 211.07 196.799 211.775 197.153 212.127C197.507 212.479 194.854 215.65 191.139 219.174C184.947 225.163 184.416 225.339 182.117 222.344C178.932 218.117 179.109 217.06 183.355 212.832ZM184.239 255.111C187.424 252.468 191.139 254.23 194.854 259.867C196.623 262.51 196.623 263.743 194.677 266.562C192.377 269.732 192.023 269.732 186.893 265.857C180.701 261.629 179.994 258.634 184.239 255.111ZM184.416 232.386C186.539 232.386 192.023 238.199 192.023 240.665C192.023 243.66 190.254 243.66 186.362 239.961C183.178 237.142 181.94 232.386 184.416 232.386ZM193.085 273.784C200.691 267.442 201.222 267.266 204.406 270.261C209.006 274.489 205.821 278.893 199.453 277.307C195.561 276.427 195.207 276.779 196.269 280.655C197.153 284.53 196.799 284.883 191.139 284.883C182.647 284.883 183.178 281.712 193.085 273.784ZM192.377 313.773C196.799 314.126 198.392 315.183 198.745 318.177C199.276 321.525 198.568 322.229 194.854 322.229C190.962 322.229 186.893 318.53 186.716 314.654C186.716 313.773 189.37 313.421 192.377 313.773ZM192.2 221.111C196.446 215.826 198.745 215.298 201.93 219.526C205.114 223.93 204.937 225.868 200.691 231.329L196.976 236.085L192.731 232.21C187.601 227.453 187.601 226.925 192.2 221.111ZM193.085 199.619C194.677 200.148 196.976 200.676 198.392 200.676C199.807 200.676 200.868 201.91 200.868 203.319C200.868 205.961 193.792 207.018 191.492 204.728C189.016 202.438 190.254 198.562 193.085 199.619ZM196.092 245.07C199.63 244.365 202.106 249.474 199.453 252.116C196.799 254.759 191.669 252.292 192.377 248.769C192.731 247.007 194.323 245.422 196.092 245.07ZM202.637 236.085C204.76 233.795 207.237 232.386 208.829 233.09C212.19 234.324 212.19 237.671 208.652 242.603C206.529 245.774 205.291 246.127 202.46 244.717C198.215 242.427 198.392 241.37 202.637 236.085ZM209.006 214.769C211.482 216.883 212.544 221.816 210.421 221.816C209.89 221.816 207.237 220.054 204.583 217.764C200.161 214.241 199.984 213.889 202.991 213.36C204.937 213.008 207.59 213.712 209.006 214.769ZM204.052 311.659C207.414 311.659 212.19 319.234 210.244 321.172C208.298 323.11 202.991 322.229 202.106 319.939C200.161 315.183 200.868 311.659 204.052 311.659ZM203.875 255.287C207.944 255.287 215.02 262.157 213.782 265.152C212.544 268.675 209.713 268.147 205.291 263.567C200.337 258.81 199.807 255.287 203.875 255.287ZM210.067 203.143C212.367 203.671 214.666 204.2 215.374 204.2C216.259 204.2 216.789 204.904 216.789 205.961C216.789 206.842 214.313 207.723 211.482 207.723C207.767 207.723 206.175 206.842 206.175 204.904C206.175 202.79 207.237 202.262 210.067 203.143ZM212.544 279.069C214.666 279.069 216.082 280.478 216.435 282.945C217.143 287.525 216.435 287.877 211.482 284.883C207.237 282.24 207.767 279.069 212.544 279.069ZM212.367 243.836L216.789 238.552L220.681 242.427C224.573 246.303 224.573 246.303 221.212 252.645C217.32 259.515 215.905 260.043 211.128 255.816C207.06 252.116 207.237 250.178 212.367 243.836ZM214.843 309.898C218.381 309.898 220.327 313.069 220.327 318.882C220.327 323.286 217.674 323.11 214.313 318.354C210.598 313.069 210.775 309.898 214.843 309.898ZM214.136 222.344C215.728 221.816 217.497 221.992 218.204 222.521C219.62 223.93 216.435 229.215 213.605 230.272C210.421 231.329 211.128 223.578 214.136 222.344ZM220.15 267.971C223.511 267.442 224.042 267.971 223.158 270.261C222.627 271.846 222.096 273.608 222.096 273.96C222.096 274.313 220.504 274.665 218.381 274.665C213.251 274.665 214.666 268.675 220.15 267.971ZM229.526 251.764C232.71 251.764 233.064 257.401 230.057 260.572C227.58 263.214 226.165 263.567 223.511 262.157C219.973 260.22 220.15 260.22 224.042 255.992C226.165 253.702 228.642 251.764 229.526 251.764ZM225.104 229.215C227.226 227.982 228.995 228.334 231.295 230.624C234.126 233.267 234.302 234.324 232.533 238.375C231.295 240.842 229.526 242.956 228.288 242.956C222.45 242.956 219.797 232.033 225.104 229.215ZM223.865 204.2C224.75 204.2 225.634 205.433 225.634 206.842C225.634 208.251 224.75 209.485 223.865 209.485C222.804 209.485 222.096 208.251 222.096 206.842C222.096 205.433 222.804 204.2 223.865 204.2ZM227.226 309.898C230.234 309.898 232.71 313.069 232.71 317.12C232.71 318.882 226.873 319.234 225.104 317.473C222.45 315.006 223.865 309.898 227.226 309.898ZM227.226 275.722C230.588 272.551 234.479 273.08 234.479 276.603C234.479 279.069 226.873 285.059 225.28 284.002C222.804 282.592 223.688 278.893 227.226 275.722ZM234.833 206.314C242.617 207.018 244.209 213.008 236.602 213.008C230.941 213.008 229.172 211.775 229.172 208.251C229.172 206.49 230.941 205.961 234.833 206.314ZM234.302 241.194C237.133 237.671 238.017 237.318 240.494 239.256C244.209 242.251 244.032 244.189 240.14 249.121C237.664 252.116 236.248 252.821 233.949 251.411C230.057 249.298 230.234 246.655 234.302 241.194ZM238.371 260.924C242.794 260.043 245.27 266.033 242.263 270.085C240.317 272.903 239.433 273.08 237.133 271.142C233.595 268.147 234.302 261.629 238.371 260.924ZM241.909 310.25C249.693 310.955 251.285 316.944 243.678 316.944C238.017 316.944 236.248 315.711 236.248 312.188C236.248 310.426 238.017 309.898 241.909 310.25ZM243.324 251.764C244.563 249.826 245.801 249.65 248.101 251.059C252.169 253.525 252.523 255.639 249.516 259.515C244.563 265.857 238.902 258.81 243.324 251.764ZM250.754 321.877C257.3 321.348 258.715 320.644 261.014 315.711C264.199 308.841 269.329 308.488 268.444 315.183C268.09 317.649 267.029 320.468 266.145 321.525C263.845 324.343 250.754 327.866 246.862 326.633C241.025 324.695 242.971 322.405 250.754 321.877ZM246.332 207.723C247.216 207.899 249.693 208.956 252.169 210.365C256.061 212.479 256.238 212.832 253.408 213.889C249.339 215.474 245.093 213.712 245.093 210.365C245.093 208.956 245.624 207.723 246.332 207.723ZM250.4 242.956C251.285 242.956 253.762 244.365 255.707 245.95C258.184 248.241 258.715 249.474 257.123 251.235C255.531 253.173 254.646 253.173 251.993 250.707C248.454 247.536 247.57 242.956 250.4 242.956ZM254.469 308.136C257.83 308.136 259.245 309.898 258.007 312.716C256.592 316.416 252.169 315.711 252.169 311.659C252.169 309.722 253.231 308.136 254.469 308.136ZM265.791 215.298C268.621 218.117 268.621 218.293 265.26 218.293C263.314 218.293 261.014 217.764 260.307 217.06C259.776 216.355 259.953 215.122 261.014 214.065C262.253 212.832 263.845 213.184 265.791 215.298ZM285.427 217.764C287.55 218.293 288.788 219.35 288.257 220.231C287.726 221.111 285.781 220.935 283.835 219.878C279.235 217.588 280.12 216.355 285.427 217.764ZM288.434 300.737C294.272 298.095 298.164 301.09 294.626 305.494C291.264 309.545 284.012 308.665 284.012 304.26C284.012 303.38 285.957 301.794 288.434 300.737ZM303.648 295.276C306.655 298.271 303.824 301.794 300.64 299.152C298.871 297.742 298.517 296.509 299.933 295.1C301.171 293.867 302.232 293.867 303.648 295.276ZM310.547 287.877C314.439 287.877 313.731 292.986 310.016 293.691C307.539 294.219 306.832 293.515 307.362 291.048C307.716 289.287 309.131 287.877 310.547 287.877ZM313.908 278.541C315.854 275.37 322.045 276.603 322.045 279.95C322.045 281.535 320.099 282.769 317.092 283.121C312.139 283.649 311.254 282.592 313.908 278.541ZM347.696 312.716C351.411 312.012 353.18 312.188 352.118 313.245C351.057 314.126 346.811 315.359 342.389 315.887C333.544 317.12 337.436 314.654 347.696 312.716Z" fill="#EF83B4"/>
<path d="M13.5623 90.4837C17.6311 107.572 20.8153 114.97 27.3606 122.193C33.9059 129.416 48.4118 137.695 51.9498 136.286C53.5419 135.582 56.0185 136.11 57.2568 137.167C58.4952 138.224 66.9864 139.457 76.1852 139.809C85.2072 139.986 96.175 141.043 100.598 141.923C104.843 142.804 114.75 143.333 122.533 143.157C150.484 142.1 179.318 140.514 187.102 139.633C191.525 139.281 204.615 138.4 216.114 137.872C227.612 137.343 237.696 136.462 238.403 136.11C240.703 134.701 250.433 138.752 251.494 141.571C253.617 147.208 274.314 142.276 281.39 134.525C286.167 129.063 290.943 128.535 304.741 131.53C311.64 133.115 322.608 133.644 336.583 133.115C354.45 132.411 360.111 131.53 372.317 127.126C386.115 122.369 387 121.665 387 116.908C387 112.68 386.469 112.152 382.931 112.856C380.808 113.385 373.732 114.794 367.01 115.851C359.757 117.26 355.158 118.846 355.158 120.255C355.158 124.483 336.406 128.711 322.254 127.654C315.178 127.126 308.456 126.245 307.395 125.54C306.51 125.012 309.871 121.665 314.824 118.317C319.955 114.794 327.738 108.628 332.161 104.224C336.583 99.9965 342.244 94.3592 344.898 91.893C350.912 86.2557 350.912 85.9034 345.959 79.7377C343.836 76.9191 341.713 73.0435 341.536 71.1057C340.298 63.0022 336.76 55.4271 331.807 49.6137C328.8 46.2666 326.677 43.2718 327.031 42.9195C329.33 40.6294 352.151 36.5776 362.765 36.4015C372.317 36.2253 374.263 35.873 370.194 34.816C367.187 34.1113 361.349 33.2305 356.927 33.0544L348.966 32.702L356.042 31.1166C359.934 30.4119 368.425 29.7073 374.971 29.7073C381.693 29.5311 387 28.8264 387 27.9456C387 21.2514 344.898 25.127 325.262 33.5829C319.424 36.0491 318.716 35.873 308.279 30.2357C302.264 26.8886 296.073 24.2462 294.304 24.2462C290.412 24.2462 281.567 19.6659 273.783 13.6764C263.7 5.92519 257.685 4.51588 250.963 8.74381C246.541 11.5624 243.533 12.0909 236.988 11.3863C228.32 10.1531 227.435 10.1531 207.446 6.45368C200.547 5.22054 192.232 4.33972 188.871 4.33972C185.51 4.33972 173.127 3.10658 161.451 1.69727C146.946 -0.0643614 135.27 -0.416688 124.302 0.46413C115.457 1.16878 105.197 2.0496 101.305 2.22577C97.4133 2.57809 88.5683 3.45891 81.8461 3.9874C74.9469 4.69206 65.0405 5.39671 59.7335 5.57287C44.6969 6.10136 27.1837 12.7956 20.9922 20.1944C15.1544 27.241 11.6164 37.8108 11.9702 48.0283C12.1471 51.9039 11.7933 59.8312 11.2626 65.6446C10.555 72.8673 11.2626 80.6185 13.5623 90.4837ZM20.9922 86.9604C23.115 88.1935 23.115 94.7116 20.9922 94.7116C20.1077 94.7116 19.0463 93.6546 18.5156 92.4215C17.4542 89.4267 19.0463 85.7273 20.9922 86.9604ZM19.9308 48.9091C23.2919 48.9091 23.2919 52.6085 19.9308 57.0126C17.4542 60.1835 17.4542 60.0074 17.2773 54.5463C17.2773 50.6707 18.1618 48.9091 19.9308 48.9091ZM21.1691 68.6394C24.7071 69.8725 25.2378 77.0952 21.8767 77.0952C19.9308 77.0952 19.0463 75.5098 19.0463 72.515C19.0463 69.6964 19.9308 68.2871 21.1691 68.6394ZM20.9922 28.6503C22.0536 27.9456 23.2919 27.7695 23.8226 28.4741C25.2378 29.8834 22.7612 38.3393 20.8153 38.3393C18.5156 38.3393 18.5156 30.0596 20.9922 28.6503ZM23.6457 101.053C25.2378 96.8255 28.7758 97.7064 31.2524 102.815C32.8445 106.338 32.8445 108.1 31.2524 109.862C26.1223 116.027 20.4615 109.333 23.6457 101.053ZM25.7685 80.6185C28.2451 80.6185 33.5521 91.3645 32.3138 94.3593C31.4293 96.6494 30.7217 96.2971 27.8913 92.0691C24.3533 86.7842 23.2919 80.6185 25.7685 80.6185ZM27.0068 61.9452C30.7217 66.7016 30.5448 71.2818 27.0068 68.2871C25.5916 67.0539 24.3533 64.4115 24.3533 62.2975C24.5302 58.5981 24.5302 58.5981 27.0068 61.9452ZM26.1223 40.1009C27.0068 40.1009 28.9527 42.391 30.3679 45.2097C32.8445 49.6137 32.8445 50.4946 30.5448 51.3754C27.7144 52.4324 24.5302 48.0283 24.3533 43.0957C24.3533 41.5102 25.0609 40.1009 26.1223 40.1009ZM29.6603 26.0078C30.5448 26.0078 31.4293 27.241 31.4293 28.6503C31.4293 30.0596 30.5448 31.2927 29.6603 31.2927C28.5989 31.2927 27.8913 30.0596 27.8913 28.6503C27.8913 27.241 28.5989 26.0078 29.6603 26.0078ZM34.2597 77.4476C35.6749 75.3336 37.6209 73.572 38.6823 73.572C41.5127 73.572 40.4513 79.2092 37.0901 81.6755C31.0755 86.2557 29.6603 83.9656 34.2597 77.4476ZM40.982 36.5776C44.8738 39.7486 44.52 43.0957 39.9206 45.562C36.7363 47.3236 35.6749 46.9713 33.729 44.3288C31.7831 41.5102 31.7831 40.6294 34.7904 37.6346C37.7977 34.816 38.8592 34.6398 40.982 36.5776ZM36.7363 59.8312C40.2744 57.7173 43.8124 58.2457 43.8124 61.0644C43.8124 62.2975 36.2056 66.5254 34.0828 66.5254C31.6062 66.5254 33.729 61.769 36.7363 59.8312ZM37.0901 110.919C38.3285 111.447 39.7437 113.209 40.0975 115.147C40.6282 117.965 40.2744 118.141 37.7978 116.027C34.4366 113.209 34.0828 110.038 37.0901 110.919ZM37.6209 96.4732C39.5668 96.4732 40.0975 95.2401 39.3899 92.4215C38.6823 89.779 39.3899 87.4889 41.1589 85.9034C43.8124 83.6133 44.8738 84.1418 50.1808 89.9552C53.5419 93.4784 56.1954 97.7064 56.1954 99.1157C56.1954 102.287 48.9425 102.639 45.7583 99.468C43.8124 97.7064 43.6355 98.0587 44.52 101.053C45.4045 104.048 44.8738 105.105 41.8665 105.81C36.5594 107.219 34.9673 105.986 34.9673 100.701C34.9673 98.0587 36.0287 96.4732 37.6209 96.4732ZM37.6208 20.7229C39.0361 20.7229 40.2744 22.3084 40.2744 24.2462C40.2744 26.184 39.0361 27.7695 37.6208 27.7695C36.2056 27.7695 34.9673 26.184 34.9673 24.2462C34.9673 22.3084 36.2056 20.7229 37.6208 20.7229ZM45.0507 119.727C48.5887 120.431 49.827 124.483 47.5273 128.006C45.4045 131.354 42.0434 128.711 42.0434 123.602C42.0434 120.255 42.9279 119.198 45.0507 119.727ZM49.2963 107.924C52.3036 107.219 54.6033 107.572 55.4878 108.981C56.3723 110.566 55.8416 110.742 53.8957 110.038C49.4732 108.276 50.3577 110.214 56.1954 115.323C60.9718 119.198 61.8563 122.898 58.1413 122.898C55.3109 122.898 41.8665 111.799 43.2817 110.39C43.9893 109.685 46.8197 108.452 49.2963 107.924ZM45.7583 67.7586C46.289 67.0539 48.9425 68.9917 51.4191 72.3388C55.134 77.0952 55.4878 78.6807 53.7188 79.3854C50.7115 80.6185 40.982 72.1627 43.1048 70.401C43.9893 69.6964 45.0507 68.4632 45.7583 67.7586ZM44.1662 49.2614C47.1735 46.2666 48.2349 46.619 50.7115 51.9039C53.5419 58.2457 50.5346 61.2405 45.5814 56.8364C41.5127 53.137 41.3358 52.08 44.1662 49.2614ZM45.0507 28.298C47.1735 27.5933 53.365 38.3393 51.7729 39.7486C50.3577 41.1579 41.8665 32.702 42.5741 30.5881C42.9279 29.7073 43.9893 28.6503 45.0507 28.298ZM53.8957 62.6498C56.7261 59.4789 61.5025 58.2457 61.5025 60.712C61.3256 63.7068 54.4264 70.2249 52.6574 69.1679C50.1808 67.5824 50.3577 66.5254 53.8957 62.6498ZM53.7188 23.5415C56.1954 20.8991 61.5025 19.666 61.5025 21.4276C61.5025 23.5415 53.0112 31.1166 52.1267 30.0596C50.1808 28.298 50.7115 26.5363 53.7188 23.5415ZM56.5492 82.5563C59.9104 80.4423 60.618 80.6185 62.7408 83.261C64.6867 86.0796 64.5098 86.7842 61.3256 89.0744C57.4337 91.7168 52.6574 90.836 52.6574 87.3127C52.6574 86.0796 54.4264 83.9656 56.5492 82.5563ZM55.3109 41.8625C57.4337 40.1009 58.672 40.1009 60.0873 41.5102C62.387 43.8003 57.0799 53.137 54.4264 51.5515C51.7729 49.9661 52.3036 44.3288 55.3109 41.8625ZM60.4411 110.566C60.9718 110.566 63.4484 111.447 66.1019 112.328C71.9396 114.618 69.463 118.67 63.4484 116.732C60.4411 115.851 57.9644 110.566 60.4411 110.566ZM61.5025 99.1157C63.9791 97.5302 71.9396 103.872 72.1165 107.395C72.1165 111.095 70.3475 111.271 64.156 108.452C59.7335 106.515 58.1413 101.23 61.5025 99.1157ZM63.2715 70.0487C65.3943 70.0487 72.1165 80.4423 72.1165 83.6133C72.1165 87.665 68.9323 86.0796 65.2174 80.09C61.1487 73.9243 60.4411 70.0487 63.2715 70.0487ZM63.4484 53.3132C65.5712 51.9039 72.1165 57.3649 72.1165 60.712C72.1165 63.7068 70.3475 63.7068 65.3943 60.1835C61.1487 57.1888 60.4411 55.0748 63.4484 53.3132ZM64.5098 31.4689C71.9396 37.2823 73.7086 41.3341 69.463 42.9195C65.3943 44.505 61.5025 40.2771 61.5025 34.4637C61.5025 29.5311 61.8563 29.3549 64.5098 31.4689ZM72.4703 124.307C74.2393 124.659 75.6545 125.716 75.6545 126.597C75.6545 129.592 70.7013 130.297 66.6326 128.006C62.5639 125.893 62.5639 125.893 65.925 124.659C67.8709 123.955 70.8782 123.779 72.4703 124.307ZM67.5171 15.438C69.9937 15.438 72.4703 16.3188 73.001 17.1997C74.4162 19.4898 69.463 21.4276 65.925 20.0183C61.6794 18.4328 62.9177 15.438 67.5171 15.438ZM71.9396 93.3023C77.7773 97.7064 84.4996 104.224 84.4996 105.634C84.4996 107.572 76.1852 104.224 69.9937 99.8203C65.925 96.8255 65.2174 95.5924 66.9864 93.6546C68.5785 91.7168 69.6399 91.5406 71.9396 93.3023ZM73.001 133.115C75.4776 133.468 77.4235 134.525 77.4235 135.405C77.4235 137.167 73.7086 137.519 69.6399 135.934C65.3943 134.348 67.8709 132.058 73.001 133.115ZM79.5463 61.0644C86.0917 55.7795 86.4455 55.6033 90.868 58.5981L95.6443 61.5929L84.6765 67.7586C78.4849 71.1057 72.4703 73.3958 70.8782 72.8673C67.5171 71.458 69.463 68.9917 79.5463 61.0644ZM77.7773 42.5672C89.099 35.3445 92.1063 38.1631 81.3154 45.9143C76.1852 49.6137 71.232 52.08 70.1706 51.5515C67.694 49.9661 69.6399 47.4998 77.7773 42.5672ZM77.6004 20.5468C86.6224 11.7386 89.8066 10.1531 89.8066 14.0287C89.8066 18.7851 73.5317 34.1114 70.5244 32.1736C67.5171 30.4119 67.8709 29.8834 77.6004 20.5468ZM76.1852 116.732C80.7847 116.732 80.6078 120.255 75.8314 120.784C73.001 121.312 71.9396 120.608 72.4703 119.022C73.001 117.789 74.5931 116.732 76.1852 116.732ZM79.0156 82.204C88.5683 72.8673 92.8139 77.6237 85.2072 89.0744C80.6078 96.1209 80.0771 96.2971 77.0697 93.4784C72.8241 89.6028 73.001 88.1935 79.0156 82.204ZM79.0156 108.805C81.1385 108.805 83.4382 112.328 82.1999 113.561C80.9616 114.794 77.4235 112.504 77.4235 110.39C77.4235 109.509 78.1311 108.805 79.0156 108.805ZM88.0376 118.494C91.9294 118.494 91.2218 123.602 87.5069 124.307C85.0303 124.836 84.3227 124.131 84.8534 121.665C85.2072 119.903 86.6224 118.494 88.0376 118.494ZM96.5288 47.4998C101.305 50.3184 105.551 58.4219 103.605 60.3597C103.074 61.0644 98.2978 58.4219 93.3446 54.8986C84.4996 48.5568 84.1458 48.2044 87.8607 46.4428C90.868 45.2097 92.9908 45.3858 96.5288 47.4998ZM88.0376 93.8308C91.5756 91.7168 104.312 97.0017 105.905 101.406C108.204 107.395 108.027 107.395 101.659 106.162C90.3373 103.696 82.9075 97.0017 88.0376 93.8308ZM92.2832 26.3602C97.5902 25.6555 102.19 28.4741 102.19 32.3497C102.19 34.816 99.713 34.6398 89.2759 31.8212C84.6765 30.5881 86.6224 27.0648 92.2832 26.3602ZM100.067 125.54C101.659 127.126 93.8753 133.468 90.3373 133.468C88.7452 133.468 89.9835 131.53 93.3446 128.887C96.3519 126.245 99.3592 124.836 100.067 125.54ZM90.6911 107.043C92.2832 107.043 93.8753 108.276 94.5829 109.862C95.8212 113.033 92.637 116.732 89.9835 115.147C86.9762 113.209 87.6838 107.043 90.6911 107.043ZM98.4747 76.2144C102.543 78.6807 105.728 81.4993 105.728 82.3801C105.728 83.4371 101.836 81.4993 97.2364 78.5045C86.9762 71.6342 88.2145 69.6964 98.4747 76.2144ZM96.175 6.10136C97.944 4.33973 107.497 12.4432 107.497 15.7904C107.497 20.1944 105.905 19.8421 100.067 14.2049C94.9367 9.2723 94.406 8.03916 96.175 6.10136ZM102.19 67.4062C103.074 67.9347 103.959 69.6964 103.959 71.1057C103.959 72.515 103.074 73.2196 102.19 72.6912C101.128 72.1627 100.421 70.401 100.421 68.9917C100.421 67.5824 101.128 66.8778 102.19 67.4062ZM108.735 124.659C111.565 124.659 122.179 135.934 120.057 136.638C118.818 136.991 115.457 135.229 112.627 132.411C107.674 127.654 106.081 124.659 108.735 124.659ZM109.973 8.39149C111.388 8.39149 112.981 9.62463 113.511 11.2101C115.28 15.6142 113.158 16.495 110.15 12.6194C106.966 8.39149 106.966 8.39149 109.973 8.39149ZM118.111 6.62985C120.41 6.62985 122.533 11.5624 120.941 13.3241C120.234 13.8526 118.995 13.3241 118.111 11.9148C115.811 8.39149 115.988 6.62985 118.111 6.62985ZM127.31 130.297C130.848 129.592 133.501 136.462 130.671 139.281C129.432 140.514 128.017 140.338 126.071 138.752C122.71 135.934 123.241 131.001 127.31 130.297ZM131.909 38.3393C134.209 38.3393 134.209 38.8678 131.909 42.2149C128.017 48.0283 124.656 48.5568 127.133 42.9195C128.371 40.4532 130.494 38.3393 131.909 38.3393ZM134.563 45.3858C137.747 45.3858 142.877 49.2614 142.877 51.5515C142.877 53.137 145.353 56.4841 148.361 59.1266L153.845 64.0591L149.599 68.9917C145.707 73.572 145 73.7481 141.462 71.6342C137.216 68.9917 136.685 66.1731 139.162 61.4167C140.223 59.6551 140.223 57.3649 139.162 55.7795C138.277 54.5463 137.57 54.0178 137.57 55.0748C137.57 55.9556 136.685 55.6033 135.801 54.194C134.563 52.08 133.678 52.08 131.909 53.8417C128.017 57.7173 126.779 55.9556 129.963 50.6707C131.555 47.6759 133.678 45.3858 134.563 45.3858ZM132.617 7.51067C136.685 7.51067 138.454 8.39149 138.454 10.1531C138.454 11.9148 136.332 12.9717 132.617 13.3241C128.017 13.8526 126.956 13.3241 126.956 10.6816C126.956 8.21532 128.194 7.3345 132.617 7.51067ZM133.678 75.8621C135.801 72.6912 142.877 75.1574 142.877 79.033C142.877 83.4371 138.277 85.1988 134.916 82.3801C131.909 79.9139 131.732 78.8569 133.678 75.8621ZM136.685 129.944C138.101 129.944 139.339 131.177 139.339 132.587C139.339 134.701 140.223 134.348 142.877 131.706C147.122 127.478 149.953 128.535 149.953 134.348C149.953 138.048 149.245 138.576 143.761 138.4C140.046 138.224 136.685 136.991 135.801 135.405C133.501 131.354 133.678 129.944 136.685 129.944ZM144.115 34.4637C145.707 32.702 147.83 31.2927 149.068 31.2927C152.253 31.2927 157.206 37.4585 156.144 40.2771C155.614 41.6864 156.852 43.448 159.152 44.505C164.105 46.619 164.989 52.08 161.451 56.8364C158.798 60.0074 158.267 60.1835 153.845 57.5411C150.837 55.7795 149.068 53.4893 149.245 51.023C149.245 48.9091 148.538 47.1474 147.299 47.1474C144.469 47.1474 141.108 43.448 141.108 40.2771C141.108 38.8678 142.346 36.2253 144.115 34.4637ZM147.299 80.9708C156.675 66.8778 156.498 66.8778 161.805 72.1627C165.697 76.2144 166.051 77.2714 164.105 79.5615C161.275 83.0848 158.975 83.0848 155.083 79.5615C152.253 76.9191 151.722 77.0952 149.245 82.0278C146.592 87.1366 142.877 91.0122 142.877 88.5459C142.877 88.0174 144.823 84.6703 147.299 80.9708ZM148.007 8.39148C151.014 8.39148 153.845 9.2723 154.375 10.3293C155.968 12.7956 155.083 13.5002 148.538 14.7334C143.584 15.7904 142.877 15.438 142.877 12.0909C142.877 9.09614 143.938 8.39149 148.007 8.39148ZM151.368 84.4941C152.606 84.1418 153.491 84.8464 153.491 86.2557C153.314 88.722 147.476 96.4732 145.707 96.4732C143.761 96.4732 149.068 85.3749 151.368 84.4941ZM155.083 128.183C155.968 128.183 157.029 130.12 157.383 132.587C158.09 135.582 157.56 136.991 155.968 136.991C154.552 136.991 153.491 135.053 153.491 132.587C153.491 130.12 154.199 128.183 155.083 128.183ZM157.737 91.5406C160.036 91.0121 160.744 91.7168 160.213 94.0069C159.859 95.9447 158.267 97.5302 156.321 97.8825C154.022 98.411 153.314 97.7064 153.845 95.4162C154.199 93.4784 155.791 91.893 157.737 91.5406ZM155.968 28.8264C157.383 29.3549 158.975 29.0026 159.682 27.9456C160.213 26.8886 162.69 26.0078 164.989 26.0078C167.289 26.0078 169.412 24.9508 169.943 23.7177C170.296 22.6607 171.358 22.1322 172.065 22.8369C172.773 23.5415 170.65 26.8886 167.466 30.0596C161.805 35.873 161.275 36.0491 157.56 33.2305C153.137 30.0596 152.253 27.4171 155.968 28.8264ZM162.159 10.1531C166.228 10.1531 168.527 12.9717 165.874 14.5572C163.397 16.1427 158.798 14.381 158.798 11.9148C158.798 11.0339 160.39 10.1531 162.159 10.1531ZM163.574 126.773C167.466 127.478 169.058 136.991 165.343 136.991C161.805 136.991 160.567 135.229 160.567 130.473C160.567 127.302 161.451 126.245 163.574 126.773ZM163.574 59.3027C167.112 53.3132 169.412 52.9608 173.481 57.3649C176.134 60.1835 176.134 60.8882 172.95 66.1731C168.881 72.6911 168.174 72.8673 163.751 68.8156C159.859 65.2923 159.859 65.6446 163.574 59.3027ZM166.051 36.5776C173.658 32.3497 177.726 38.5154 171.181 44.505C168.351 47.1474 167.289 47.1474 164.989 45.3858C161.275 42.391 161.628 38.8678 166.051 36.5776ZM167.997 82.7325C171.181 79.5615 174.719 80.2662 174.719 83.9656C174.719 87.8412 170.296 91.893 167.643 90.3075C165.343 88.8982 165.343 85.3749 167.997 82.7325ZM174.011 127.302C176.311 127.302 177.549 128.711 177.903 132.058C178.611 137.695 174.188 138.929 171.358 133.82C168.881 129.768 169.943 127.302 174.011 127.302ZM173.658 69.5202C174.896 67.9347 176.842 66.5254 177.903 66.5254C181.087 66.5254 185.51 74.4528 184.272 77.7999C183.033 81.147 181.618 81.3232 175.604 78.5045C170.65 76.2144 170.12 74.1005 173.658 69.5202ZM172.773 10.1531C176.488 10.1531 180.026 12.4432 180.026 14.7334C180.026 17.3758 178.257 17.7281 174.011 16.1427C171.004 14.9095 170.12 10.1531 172.773 10.1531ZM174.719 44.505C177.019 43.0957 183.564 46.7951 183.564 49.4376C183.564 50.6707 182.856 52.7847 181.795 54.194C180.557 56.3079 179.672 56.3079 176.665 53.4893C172.596 49.7899 171.889 46.2666 174.719 44.505ZM174.719 27.5933C176.665 24.07 183.564 22.8369 183.564 26.0078C183.564 26.8886 184.272 27.7695 185.333 27.7695C186.218 27.7695 186.571 26.5363 186.041 25.127C185.333 23.5415 186.041 22.4846 187.81 22.4846C192.055 22.4846 191.348 24.7747 184.449 31.2927C179.318 36.2253 177.903 36.7538 175.603 34.816C172.419 32.1736 172.419 31.9974 174.719 27.5933ZM178.257 89.4267C179.142 89.4267 180.026 90.6598 180.026 92.0691C180.026 93.4784 179.142 94.7116 178.257 94.7116C177.196 94.7116 176.488 93.4784 176.488 92.0691C176.488 90.6598 177.196 89.4267 178.257 89.4267ZM184.272 56.4841L188.694 51.5515L192.409 55.251C196.124 58.9504 196.124 59.3027 193.294 63.7068C189.932 68.8156 188.517 69.1679 183.387 66.5254C178.965 64.0591 179.142 62.4737 184.272 56.4841ZM182.149 36.93C185.51 33.5829 190.286 34.4637 191.525 38.3393C192.763 42.2149 189.932 47.1474 186.394 47.1474C183.741 47.1474 180.026 43.6242 180.026 40.9817C180.026 39.9247 180.911 38.1631 182.149 36.93ZM183.387 126.421C184.979 126.421 187.102 130.649 187.102 133.644C187.102 134.525 185.864 135.229 184.449 135.229C182.856 135.229 181.795 133.644 181.795 130.825C181.795 128.359 182.503 126.421 183.387 126.421ZM183.918 93.3023C187.279 94.5354 187.81 99.9965 184.625 99.9965C182.856 99.9965 181.795 98.411 181.795 96.2971C181.795 94.1831 182.68 92.9499 183.918 93.3023ZM187.102 82.204C189.225 78.3284 192.232 77.9761 196.655 81.147C199.662 83.4371 199.662 83.7894 195.77 88.3697C189.048 96.1209 182.326 91.3645 187.102 82.204ZM190.64 11.5624C195.77 12.2671 197.716 15.9665 194.178 18.0805C191.878 19.4898 185.333 15.7903 185.333 12.9717C185.333 11.5624 187.102 11.0339 190.64 11.5624ZM191.348 126.421C193.647 126.421 195.947 129.944 195.947 133.644C195.947 136.462 190.994 135.229 190.109 132.058C188.694 126.949 188.871 126.421 191.348 126.421ZM194.355 25.8317C197.008 23.1892 199.308 22.4846 202.669 23.3654C205.323 24.07 207.799 24.7747 208.153 25.127C208.507 25.4793 205.854 28.6503 202.139 32.1736C195.947 38.1631 195.416 38.3393 193.117 35.3445C189.932 31.1166 190.109 30.0596 194.355 25.8317ZM195.239 68.1109C198.424 65.4684 202.139 67.2301 205.854 72.8673C207.623 75.5098 207.623 76.7429 205.677 79.5615C203.377 82.7325 203.023 82.7325 197.893 78.8569C191.701 74.6289 190.994 71.6342 195.239 68.1109ZM195.416 45.3858C197.539 45.3858 203.023 51.1992 203.023 53.6655C203.023 56.6603 201.254 56.6603 197.362 52.9608C194.178 50.1422 192.94 45.3858 195.416 45.3858ZM204.085 86.7842C211.691 80.4423 212.222 80.2662 215.406 83.261C220.006 87.4889 216.821 91.893 210.453 90.3075C206.561 89.4267 206.207 89.779 207.269 93.6546C208.153 97.5302 207.799 97.8825 202.139 97.8825C193.647 97.8825 194.178 94.7116 204.085 86.7842ZM203.377 126.773C207.799 127.126 209.392 128.183 209.745 131.177C210.276 134.525 209.568 135.229 205.854 135.229C201.962 135.229 197.893 131.53 197.716 127.654C197.716 126.773 200.37 126.421 203.377 126.773ZM203.2 34.1113C207.446 28.8264 209.745 28.298 212.93 32.5259C216.114 36.93 215.937 38.8678 211.691 44.3288L207.976 49.0852L203.731 45.2096C198.601 40.4532 198.601 39.9247 203.2 34.1113ZM204.085 12.6194C205.677 13.1479 207.976 13.6764 209.392 13.6764C210.807 13.6764 211.868 14.9095 211.868 16.3188C211.868 18.9613 204.792 20.0183 202.492 17.7281C200.016 15.438 201.254 11.5624 204.085 12.6194ZM207.092 58.0696C210.63 57.3649 213.106 62.4737 210.453 65.1161C207.799 67.7586 202.669 65.2923 203.377 61.769C203.731 60.0074 205.323 58.4219 207.092 58.0696ZM213.637 49.0852C215.76 46.7951 218.237 45.3858 219.829 46.0905C223.19 47.3236 223.19 50.6707 219.652 55.6033C217.529 58.7742 216.291 59.1266 213.46 57.7173C209.215 55.4271 209.392 54.3701 213.637 49.0852ZM220.006 27.7695C222.482 29.8834 223.544 34.816 221.421 34.816C220.89 34.816 218.237 33.0544 215.583 30.7642C211.161 27.241 210.984 26.8886 213.991 26.3602C215.937 26.0078 218.59 26.7125 220.006 27.7695ZM215.052 124.659C218.414 124.659 223.19 132.234 221.244 134.172C219.298 136.11 213.991 135.229 213.106 132.939C211.161 128.183 211.868 124.659 215.052 124.659ZM214.875 68.2871C218.944 68.2871 226.02 75.1574 224.782 78.1522C223.544 81.6755 220.713 81.147 216.291 76.5667C211.337 71.8103 210.807 68.2871 214.875 68.2871ZM221.067 16.1427C223.367 16.6712 225.666 17.1997 226.374 17.1997C227.259 17.1997 227.789 17.9043 227.789 18.9613C227.789 19.8421 225.313 20.7229 222.482 20.7229C218.767 20.7229 217.175 19.8421 217.175 17.9043C217.175 15.7903 218.237 15.2619 221.067 16.1427ZM223.544 92.0691C225.666 92.0691 227.082 93.4784 227.435 95.9447C228.143 100.525 227.435 100.877 222.482 97.8825C218.237 95.2401 218.767 92.0691 223.544 92.0691ZM223.367 56.8364L227.789 51.5515L231.681 55.4271C235.573 59.3027 235.573 59.3027 232.212 65.6446C228.32 72.515 226.905 73.0435 222.128 68.8156C218.06 65.1161 218.237 63.1783 223.367 56.8364ZM225.843 122.898C229.381 122.898 231.327 126.069 231.327 131.882C231.327 136.286 228.674 136.11 225.313 131.354C221.598 126.069 221.775 122.898 225.843 122.898ZM225.136 35.3445C226.728 34.816 228.497 34.9922 229.204 35.5207C230.62 36.93 227.435 42.2149 224.605 43.2718C221.421 44.3288 222.128 36.5776 225.136 35.3445ZM231.15 80.9708C234.511 80.4423 235.042 80.9708 234.158 83.261C233.627 84.8464 233.096 86.6081 233.096 86.9604C233.096 87.3127 231.504 87.665 229.381 87.665C224.251 87.665 225.666 81.6755 231.15 80.9708ZM240.526 64.7638C243.71 64.7638 244.064 70.401 241.057 73.572C238.58 76.2144 237.165 76.5667 234.511 75.1574C230.973 73.2196 231.15 73.2196 235.042 68.9917C237.165 66.7016 239.642 64.7638 240.526 64.7638ZM236.104 42.2149C238.226 40.9817 239.995 41.334 242.295 43.6242C245.126 46.2666 245.302 47.3236 243.533 51.3754C242.295 53.8417 240.526 55.9556 239.288 55.9556C233.45 55.9556 230.797 45.0335 236.104 42.2149ZM234.865 17.1997C235.75 17.1997 236.634 18.4328 236.634 19.8421C236.634 21.2514 235.75 22.4846 234.865 22.4846C233.804 22.4846 233.096 21.2514 233.096 19.8421C233.096 18.4328 233.804 17.1997 234.865 17.1997ZM238.226 122.898C241.234 122.898 243.71 126.069 243.71 130.12C243.71 131.882 237.873 132.234 236.104 130.473C233.45 128.006 234.865 122.898 238.226 122.898ZM238.226 88.722C241.588 85.5511 245.479 86.0796 245.479 89.6028C245.479 92.0691 237.873 98.0587 236.28 97.0017C233.804 95.5924 234.688 91.893 238.226 88.722ZM245.833 19.3136C253.617 20.0183 255.209 26.0078 247.602 26.0078C241.941 26.0078 240.172 24.7747 240.172 21.2514C240.172 19.4898 241.941 18.9613 245.833 19.3136ZM245.302 54.194C248.133 50.6707 249.017 50.3184 251.494 52.2562C255.209 55.251 255.032 57.1888 251.14 62.1213C248.664 65.1161 247.248 65.8208 244.949 64.4115C241.057 62.2975 241.234 59.655 245.302 54.194ZM249.371 73.9243C253.794 73.0435 256.27 79.033 253.263 83.0848C251.317 85.9034 250.433 86.0796 248.133 84.1418C244.595 81.147 245.302 74.6289 249.371 73.9243ZM252.909 123.25C260.693 123.955 262.285 129.944 254.678 129.944C249.017 129.944 247.248 128.711 247.248 125.188C247.248 123.426 249.017 122.898 252.909 123.25ZM254.324 64.7638C255.563 62.826 256.801 62.6498 259.101 64.0591C263.169 66.5254 263.523 68.6394 260.516 72.515C255.563 78.8569 249.902 71.8103 254.324 64.7638ZM261.754 134.877C268.3 134.348 269.715 133.644 272.014 128.711C275.199 121.841 280.329 121.488 279.444 128.183C279.09 130.649 278.029 133.468 277.145 134.525C274.845 137.343 261.754 140.866 257.862 139.633C252.025 137.695 253.971 135.405 261.754 134.877ZM257.332 20.7229C258.216 20.8991 260.693 21.9561 263.169 23.3654C267.061 25.4793 267.238 25.8317 264.408 26.8886C260.339 28.4741 256.093 26.7125 256.093 23.3654C256.093 21.9561 256.624 20.7229 257.332 20.7229ZM261.4 55.9556C262.285 55.9556 264.762 57.3649 266.707 58.9504C269.184 61.2405 269.715 62.4737 268.123 64.2353C266.531 66.1731 265.646 66.1731 262.993 63.7068C259.454 60.5359 258.57 55.9556 261.4 55.9556ZM265.469 121.136C268.83 121.136 270.245 122.898 269.007 125.716C267.592 129.416 263.169 128.711 263.169 124.659C263.169 122.722 264.231 121.136 265.469 121.136ZM276.791 28.298C279.621 31.1166 279.621 31.2927 276.26 31.2927C274.314 31.2927 272.014 30.7642 271.307 30.0596C270.776 29.3549 270.953 28.1218 272.014 27.0648C273.253 25.8317 274.845 26.184 276.791 28.298ZM296.427 30.7642C298.55 31.2927 299.788 32.3497 299.257 33.2305C298.726 34.1113 296.781 33.9352 294.835 32.8782C290.235 30.5881 291.12 29.3549 296.427 30.7642ZM299.434 113.737C305.272 111.095 309.164 114.09 305.626 118.494C302.264 122.545 295.012 121.665 295.012 117.26C295.012 116.38 296.957 114.794 299.434 113.737ZM314.648 108.276C317.655 111.271 314.824 114.794 311.64 112.152C309.871 110.742 309.517 109.509 310.933 108.1C312.171 106.867 313.232 106.867 314.648 108.276ZM321.547 100.877C325.439 100.877 324.731 105.986 321.016 106.691C318.539 107.219 317.832 106.515 318.362 104.048C318.716 102.287 320.131 100.877 321.547 100.877ZM324.908 91.5406C326.854 88.3697 333.045 89.6028 333.045 92.9499C333.045 94.5354 331.099 95.7686 328.092 96.1209C323.139 96.6494 322.254 95.5924 324.908 91.5406ZM358.696 125.716C362.411 125.012 364.18 125.188 363.118 126.245C362.057 127.126 357.811 128.359 353.389 128.887C344.544 130.12 348.436 127.654 358.696 125.716Z" fill="#EF83B4"/>
</svg>
