<svg width="68" height="154" viewBox="0 0 68 154" fill="none" xmlns="http://www.w3.org/2000/svg">
<path d="M26.5992 0.30751C20.8709 0.707123 18.8539 1.18666 17.4017 2.38551C13.0449 6.14191 10.2211 9.81837 8.93026 13.1752C8.20414 15.1732 7.07462 17.491 6.42918 18.3702C5.86442 19.2493 5.38034 21.0876 5.38034 22.5262C5.38034 23.8849 4.97694 26.0428 4.57354 27.2417C3.60538 29.6394 2.63722 44.1055 2.79858 52.3376C2.87926 55.2148 3.36334 61.1291 3.84742 65.5249L4.7349 73.5972L2.31451 78.8721C-0.105892 83.9073 -0.186572 84.3868 0.136147 92.7788C1.02363 113.958 3.04062 122.031 11.512 138.655C13.6097 142.811 16.9983 148.006 19.0152 150.164L22.7265 154L30.7945 153.52C45.5589 152.481 53.3849 149.764 58.2257 143.93C61.0495 140.493 63.7119 133.939 64.6801 127.865C64.9221 126.107 65.8903 120.672 66.8584 115.797C68.0686 109.323 68.23 106.286 67.7459 104.208C67.3425 102.689 67.0198 96.7749 67.1812 91.1004C67.3425 80.8702 66.9391 77.6733 64.5187 72.4782C63.6312 70.4802 63.4699 68.4821 63.8733 64.9654C64.5994 58.8913 64.5994 42.507 63.8733 36.9124C61.937 21.5671 57.8223 8.69945 53.4656 4.22374C49.9963 0.627197 40.8795 -0.651581 26.5992 0.30751ZM37.0876 1.90598C38.4591 2.38551 38.4591 2.54536 37.3296 3.50444C36.2808 4.38359 35.7967 4.38359 34.8285 3.58437C32.4081 1.58627 33.7797 0.547272 37.0876 1.90598ZM22.0004 3.7442C22.5652 4.62337 18.2891 8.69945 17.563 7.90022C16.5142 6.86122 16.9983 5.02298 18.5312 3.98398C20.6288 2.54536 21.2743 2.46544 22.0004 3.7442ZM31.6013 4.86313C32.8922 6.86122 32.8922 7.02106 31.5206 8.37976C30.0684 9.73845 29.907 9.73845 28.1321 7.58052C26.5185 5.50252 26.4378 5.18283 27.648 4.0639C29.3423 2.30559 29.9877 2.46544 31.6013 4.86313ZM42.8158 6.14191C44.3487 8.29984 44.5101 10.7775 43.0579 10.7775C42.4124 10.7775 41.1215 9.8983 40.0727 8.77937C38.5398 7.18091 38.3784 6.62144 39.2659 5.58244C40.6375 3.98398 41.3636 4.0639 42.8158 6.14191ZM26.7605 8.37976C27.648 9.33884 27.9707 10.2979 27.4866 10.6176C27.0832 11.0172 25.389 12.296 23.6947 13.4948C20.8709 15.5729 20.4675 15.6528 19.338 14.5338C17.6437 12.8555 18.5312 9.8983 21.2743 8.21991C24.2594 6.46159 25.0662 6.46159 26.7605 8.37976ZM15.8687 11.6566C15.8687 11.9763 14.9813 13.335 13.8517 14.5338C12.1575 16.452 11.7541 16.6119 11.0279 15.5729C9.89842 13.8145 10.0598 12.8555 11.9961 10.3778C13.6097 8.29984 13.7711 8.21991 14.8199 9.65852C15.3847 10.4578 15.8687 11.3369 15.8687 11.6566ZM36.0387 10.4578C36.0387 11.8964 32.9729 14.6937 31.44 14.7736C29.8264 14.7736 30.2298 13.0952 32.1661 11.0172C34.1831 8.8593 36.0387 8.61952 36.0387 10.4578ZM48.1407 11.9763C48.1407 13.1752 44.3487 17.0914 43.1385 17.1713C41.8477 17.1713 42.5738 15.1732 44.6715 13.0153C47.0919 10.4578 48.1407 10.218 48.1407 11.9763ZM18.7732 16.7717C20.1448 19.4092 20.1448 19.6489 18.9346 20.9277C17.6437 22.2065 17.4017 22.1266 15.8687 20.3683C14.0131 18.2903 13.9324 17.6509 15.0619 15.4929C16.2721 13.335 16.9983 13.5748 18.7732 16.7717ZM29.9877 16.452C30.7138 18.6099 27.1639 22.4463 25.2276 21.7269C22.8879 20.8478 22.8879 18.9296 25.2276 16.7717C27.89 14.2941 29.2616 14.2142 29.9877 16.452ZM39.1852 17.3312C42.0897 20.3683 42.1704 20.9277 40.1534 23.4853L38.6205 25.4034L36.5228 23.1656C33.6183 20.0486 32.9729 17.2512 34.8285 15.8126C36.7648 14.4539 36.3614 14.374 39.1852 17.3312ZM51.6906 17.6509C54.1917 20.2084 54.2724 20.5281 52.1747 21.8069C50.7225 22.686 50.1577 22.6061 48.1407 21.1675C45.3976 19.2493 45.2362 18.6099 47.0112 16.8516C48.7055 15.1732 49.1895 15.2532 51.6906 17.6509ZM10.0598 19.4092C10.2211 19.9686 9.81774 20.3683 9.09162 20.3683C8.3655 20.3683 7.80074 19.8088 7.80074 19.0895C7.80074 17.7308 9.5757 17.9706 10.0598 19.4092ZM13.8517 22.7659C15.2233 24.2845 15.2233 24.4443 13.8517 25.9629C11.9961 27.961 10.4632 28.0409 9.81774 26.0428C9.33366 24.6042 10.7859 21.1675 11.9154 21.1675C12.1575 21.1675 13.0449 21.8868 13.8517 22.7659ZM24.0981 23.1656C24.8242 24.844 24.6628 25.4833 22.8072 27.961C20.2254 31.2378 18.5312 31.5575 17.805 28.7602C17.4017 27.3216 17.8857 25.9629 19.4186 23.9648C22.0004 20.6879 22.8879 20.5281 24.0981 23.1656ZM46.6885 23.3254C48.5441 25.0038 48.5441 25.883 46.3657 28.1208C44.2681 30.3587 43.2192 30.4386 41.8477 28.3606C41.0409 27.0019 41.1215 26.3625 42.6545 24.3644C44.6715 21.5671 44.7521 21.5671 46.6885 23.3254ZM35.2319 26.7621C33.6183 27.8011 31.44 27.7212 29.3423 26.6023C27.648 25.7231 27.7287 25.6432 30.7945 24.6841C33.457 23.8849 34.2638 23.9648 35.2319 24.9239C36.2808 25.883 36.2808 26.1227 35.2319 26.7621ZM8.28482 28.92C9.5757 30.6784 9.73706 33.6355 8.52686 34.3548C7.31666 35.1541 6.91326 34.5147 6.42918 30.8382C5.9451 27.3216 6.59054 26.6822 8.28482 28.92ZM28.6162 30.8382C31.3593 34.0351 31.5206 35.9533 29.2616 36.8325C27.9707 37.312 24.3401 33.8753 23.4526 31.3177C23.0492 29.959 24.3401 27.5613 25.4696 27.5613C25.7117 27.5613 27.1639 29 28.6162 30.8382ZM52.9008 29.8791C54.5951 32.1969 54.5951 32.1969 53.0622 34.0351L51.5293 35.9533L49.0282 33.6355C46.7691 31.4776 46.6885 31.2378 47.8987 29.4795C49.5123 26.922 50.8838 27.0818 52.9008 29.8791ZM57.0155 28.2807C57.0155 29.7193 55.5633 29.959 54.5951 28.7602C53.7883 27.7212 53.869 27.5613 55.3212 27.5613C56.2087 27.5613 57.0155 27.881 57.0155 28.2807ZM16.5142 31.5575C18.2891 33.7954 18.2891 35.5537 16.5949 35.5537C15.8687 35.5537 13.4483 30.8382 13.4483 29.5594C13.4483 28.5204 14.8199 29.3996 16.5142 31.5575ZM40.7181 30.4386C42.8158 31.8772 43.0579 33.7954 41.2022 34.5147C39.6693 35.0741 36.0387 31.7973 36.6035 30.2787C37.1682 28.8401 38.4591 28.8401 40.7181 30.4386ZM14.2551 37.312C14.2551 40.1093 12.3995 40.2691 11.1893 37.5518C10.4632 35.9533 10.5439 35.3938 11.5927 34.3548C13.1256 32.7564 14.2551 33.9552 14.2551 37.312ZM37.1682 35.7934C38.2978 37.6317 35.6353 40.3491 32.6502 40.3491C29.907 40.3491 29.8264 40.0294 32.4888 36.5927C34.6672 33.7154 35.7967 33.5556 37.1682 35.7934ZM48.3827 35.7135C49.0282 36.6726 48.9475 37.3919 48.2214 38.2711C46.8498 39.8695 45.7203 39.8695 43.7033 38.4309C42.1704 37.312 42.1704 37.312 43.7033 35.6336C45.3976 33.7154 47.1725 33.7154 48.3827 35.7135ZM24.8242 37.2321C26.8412 40.1093 25.7924 41.5479 22.6458 40.1892C20.3868 39.1502 19.58 37.312 20.7902 35.8734C22.1618 34.2749 22.8072 34.5147 24.8242 37.2321ZM6.18714 38.7506C6.18714 39.6298 5.86442 40.3491 5.38034 40.3491C4.97694 40.3491 4.57354 39.6298 4.57354 38.7506C4.57354 37.8715 4.97694 37.1521 5.38034 37.1521C5.86442 37.1521 6.18714 37.8715 6.18714 38.7506ZM11.1893 40.5089C12.6415 42.7468 12.2381 44.3452 10.2211 44.3452C7.9621 44.3452 6.7519 42.3472 7.80074 40.429C8.93026 38.2711 9.73706 38.351 11.1893 40.5089ZM52.9815 39.9495C54.0303 41.2282 53.6269 41.3881 50.8031 40.6688C49.7543 40.3491 48.9475 39.8695 48.9475 39.4699C48.9475 38.2711 51.9327 38.6707 52.9815 39.9495ZM18.2891 40.3491C19.2573 40.9885 19.1766 41.1483 17.7244 41.1483C16.6755 41.1483 15.8687 40.7487 15.8687 40.3491C15.8687 39.3101 16.7562 39.3101 18.2891 40.3491ZM41.2829 42.7468C42.7351 43.3862 42.6545 43.4661 40.7181 43.4661C39.5079 43.546 38.2978 43.1464 38.0557 42.7468C37.491 41.7877 39.0239 41.7877 41.2829 42.7468ZM61.6143 50.6592C61.3722 52.4175 61.6143 54.1758 62.0983 54.6553C63.2278 55.7743 62.2597 56.6534 60.6461 56.094C59.4359 55.6144 58.8711 49.2206 60.0007 48.1016C61.3722 46.7429 62.0176 47.7819 61.6143 50.6592ZM7.63938 52.5773C7.80074 54.8152 7.63938 55.5345 6.59054 55.5345C4.97694 55.5345 4.25082 53.6963 4.89626 51.0588C5.62238 48.1816 7.31666 49.1406 7.63938 52.5773ZM50.2384 52.5773C50.8838 52.3376 51.3679 52.6573 51.3679 53.4565C51.3679 54.1758 51.0452 54.7353 50.7225 54.7353C49.7543 54.7353 48.1407 52.977 48.2214 51.938C48.2214 51.5383 48.4634 51.5383 48.6248 52.0978C48.8668 52.6573 49.5929 52.8171 50.2384 52.5773ZM46.5271 54.4156C46.5271 55.2148 47.0112 55.5345 47.6566 55.2947C48.3827 54.975 49.0282 55.4546 49.3509 56.4137C49.6736 57.2129 50.5611 57.9322 51.3679 57.9322C52.9815 57.9322 53.7883 59.4507 53.7883 62.7276C53.7883 64.0064 54.1917 66.0045 54.5951 67.2033C55.2405 68.7218 55.2405 69.5211 54.5951 69.9207C54.0303 70.3203 54.111 70.7999 54.9985 71.5192C55.6439 72.0786 56.2087 73.1176 56.2087 73.8369C56.2087 75.3555 45.2362 83.0281 43.8647 82.4687C43.2999 82.3088 42.3317 81.11 41.6863 79.9111C40.6375 77.913 40.6375 77.6733 42.3317 76.3146C43.2999 75.5153 44.1067 74.4763 44.1067 73.9968C44.1067 72.4782 45.4783 73.0377 46.9305 75.1956C47.6566 76.3146 48.4634 77.0339 48.7055 76.874C48.8668 76.6343 48.2214 75.3555 47.2532 73.9968L45.3976 71.5192L47.4953 69.3612C49.2702 67.6828 49.9157 67.4431 50.8031 68.1624C51.6906 68.9616 52.1747 68.8817 52.9815 67.9226C53.7883 66.8836 53.7076 66.7238 52.4167 66.7238C50.1577 66.7238 46.2851 60.8894 47.5759 59.6106C48.3021 58.8114 48.06 58.7314 46.5271 59.1311C44.8328 59.5307 44.1874 59.211 43.2999 57.6125C42.4931 55.9341 42.4124 55.3747 43.2999 54.3357C44.5908 52.7372 46.5271 52.8171 46.5271 54.4156ZM35.2319 57.2928C35.2319 58.3318 33.3763 57.6924 32.9729 56.4936C32.8115 55.9341 33.1342 55.6944 33.941 56.014C34.6672 56.2538 35.2319 56.8932 35.2319 57.2928ZM40.8795 58.6515C40.8795 63.5268 38.7011 65.2052 37.0069 61.6087C36.3614 60.1701 36.4421 59.3708 37.3296 58.0121C39.1045 55.5345 40.8795 55.8542 40.8795 58.6515ZM30.2298 60.3299C30.0684 60.6496 28.6162 62.4079 26.9219 64.2461C23.7754 67.6828 21.355 68.2423 20.8709 65.6848C20.7095 64.7257 20.9516 64.4859 21.839 64.8056C22.5652 65.0454 23.1299 64.8855 23.1299 64.406C23.1299 63.9264 23.7754 63.7666 24.5822 64.0863C25.7117 64.5658 25.7924 64.406 24.9049 63.367C23.6947 61.9284 24.9049 60.6496 26.5185 61.6087C27.0832 62.0083 27.2446 61.7685 26.9219 60.9693C26.5992 60.0901 27.0026 59.6905 28.4548 59.6905C29.5843 59.6905 30.3911 60.0102 30.2298 60.3299ZM62.0983 62.8874C61.8563 64.0863 61.3722 64.8855 60.9688 64.6458C60.0813 64.1662 60.0007 60.8094 60.8074 60.0102C61.7756 59.0511 62.5824 60.7295 62.0983 62.8874ZM7.39734 63.1272C7.39734 65.6848 5.70306 66.8037 5.21898 64.5658C4.7349 62.4079 5.46102 60.25 6.50986 60.5697C6.99394 60.7295 7.39734 61.8484 7.39734 63.1272ZM35.958 63.4469C37.491 65.6048 37.5716 65.7647 36.2001 66.8836C33.6183 69.2014 31.6013 69.2813 30.4718 67.2033C29.5843 65.5249 29.665 65.0454 31.2786 63.2071C33.5376 60.5697 33.941 60.5697 35.958 63.4469ZM48.1407 65.6848C48.1407 66.0844 47.2532 67.2832 46.1237 68.3222L44.026 70.2404L42.009 68.2423L39.9114 66.1643L42.4931 63.6068L45.0749 61.1291L46.6078 63.0473C47.4146 64.0863 48.1407 65.2851 48.1407 65.6848ZM29.5036 68.3222C30.5525 69.2014 31.1979 70.4002 30.9559 71.0396C30.3104 72.6381 27.648 73.0377 25.9537 71.8389C24.6628 70.8798 24.5822 70.4802 25.5503 68.7218C26.8412 66.3241 27.0026 66.3241 29.5036 68.3222ZM40.6375 69.2813C42.8158 71.2794 42.9772 72.8779 41.1215 74.8759C39.1852 76.9539 38.0557 76.6343 36.1194 73.4373L34.4251 70.5601L36.2001 69.1215C38.5398 67.2033 38.3784 67.2033 40.6375 69.2813ZM24.7435 71.9188C25.873 73.1975 25.5503 73.3574 23.614 72.6381C22.8879 72.3983 22.3231 71.8389 22.3231 71.4392C22.3231 70.3203 23.614 70.5601 24.7435 71.9188ZM36.0387 76.9539C36.0387 77.6733 35.3126 78.7922 34.5058 79.2717C33.2956 79.991 32.6502 79.991 31.5206 79.032C30.6332 78.3126 30.4718 77.993 31.0366 78.3126C32.4081 79.032 32.2468 77.913 30.6332 76.1547C29.907 75.3555 29.7457 74.7161 30.2298 74.7161C30.7138 74.7161 31.3593 75.0358 31.6013 75.5153C31.8434 75.9149 32.4888 76.3146 32.9729 76.3146C33.457 76.3146 33.2149 75.5153 32.3274 74.6362L30.7945 72.8779L33.457 74.2365C34.8285 74.9559 36.0387 76.1547 36.0387 76.9539ZM57.8223 80.4706C57.8223 84.7065 57.8223 84.7065 53.9497 86.8644C51.852 87.9834 48.9475 90.0614 47.5759 91.2602C46.1237 92.539 44.026 94.1375 42.8965 94.6969C41.0409 95.656 40.7181 95.656 39.6693 94.0575C38.9432 93.1784 37.8944 91.8197 37.2489 91.1803C36.2001 90.2212 36.3614 89.9015 38.2978 88.6227C39.5079 87.9034 40.7988 86.7845 41.1215 86.1451C42.009 84.7065 43.0579 84.8663 45.9623 86.8644C48.3021 88.4629 48.4634 88.4629 47.1725 87.0243C45.2362 84.8663 45.3976 84.227 48.2214 81.9891C49.9157 80.7103 51.2065 80.3107 52.5781 80.6304C54.111 81.03 54.4337 80.8702 54.0303 79.9111C53.6269 78.7123 55.7246 76.3945 57.2575 76.3146C57.5803 76.3146 57.8223 78.2327 57.8223 80.4706ZM63.4699 82.069C63.4699 84.7864 62.179 85.0262 61.5336 82.3887C60.8881 79.8312 61.7756 77.2736 62.7438 78.8721C63.1472 79.4316 63.4699 80.8702 63.4699 82.069ZM39.9114 80.4706C41.6056 82.149 40.9602 84.0671 38.0557 86.6247C35.5546 88.7826 34.9899 88.9424 33.6183 88.1432C31.44 86.7845 31.6013 85.5057 34.1024 82.2289C36.2808 79.4316 38.2171 78.7922 39.9114 80.4706ZM31.8434 89.1822C32.4081 89.9814 33.941 91.2602 35.2319 91.8996C38.8625 93.7378 39.1852 96.2155 36.0387 98.773C33.2149 101.091 31.5206 101.091 30.7945 98.6132C30.4718 97.8139 29.0196 95.8158 27.4866 94.2174C24.2594 90.7807 24.1788 90.3811 26.5992 91.1803C28.3741 91.7398 28.3741 91.6598 26.9219 90.0614C26.0344 89.1822 25.631 87.9834 25.9537 87.5038C26.7605 86.225 30.4718 87.264 31.8434 89.1822ZM58.3871 89.9015C57.5803 95.8158 55.0792 97.0946 52.7395 92.9386L51.2065 90.3011L53.3849 88.5428C54.5144 87.5038 56.2087 86.7046 57.1769 86.7046C58.6291 86.7046 58.7905 87.0243 58.3871 89.9015ZM21.9197 93.4181C23.2913 94.4571 24.0981 95.5761 23.7754 95.8958C23.2106 96.5352 18.2891 93.1784 18.2891 92.1394C18.2891 91.0204 19.4186 91.4201 21.9197 93.4181ZM52.2554 95.0965C54.111 98.1336 55.1599 98.6132 55.886 96.695C56.7735 94.3772 57.7416 95.4961 57.2575 98.2935C57.0155 99.812 57.2575 102.609 57.7416 104.448C58.8711 108.364 57.9837 113.958 56.2894 114.518C55.4826 114.758 55.3212 114.518 55.6439 113.639C55.9667 112.84 55.5633 112.28 54.5144 112.04C52.094 111.401 51.7713 109.243 53.7883 107.085C55.886 104.847 55.4826 103.329 53.3849 105.407C52.6588 106.126 51.6099 106.685 51.1259 106.685C49.835 106.685 47.9793 103.648 48.5441 102.689C49.3509 101.41 48.4634 101.73 44.1067 104.288C39.1045 107.165 38.4591 107.245 36.0387 104.687L34.1024 102.689L36.9262 100.292C40.3148 97.4143 40.6375 97.4143 42.6545 99.9719C44.5101 102.29 45.5589 102.05 44.026 99.6522C42.7351 97.5742 43.5419 95.8158 46.6885 93.8977C50.1577 91.8197 50.3191 91.8197 52.2554 95.0965ZM20.3061 96.2954C21.4356 97.5742 21.5163 97.8938 20.6288 97.8938C19.338 97.8938 17.4823 96.3753 17.4823 95.3363C17.4823 94.2174 18.7732 94.617 20.3061 96.2954ZM63.8733 107.485C63.0665 117.875 61.8563 118.194 61.937 107.884C62.0176 103.009 62.2597 97.9738 62.5017 96.695L62.9858 94.2973L63.7119 97.4942C64.1153 99.2525 64.196 103.728 63.8733 107.485ZM31.1979 102.849C31.1979 103.568 24.8242 107.884 24.4208 107.405C24.2594 107.245 23.372 105.646 22.4845 103.888L20.8709 100.771L23.4526 98.4533L25.9537 96.1355L28.5355 99.1726C29.9877 100.771 31.1979 102.449 31.1979 102.849ZM8.04278 108.683C8.52686 115.557 8.52686 115.717 7.39734 112.84C6.02578 109.323 4.81558 100.611 5.29966 98.2935C5.9451 95.1765 7.5587 101.171 8.04278 108.683ZM21.1936 104.847C22.8072 107.005 22.5652 108.763 20.2254 110.282C19.0959 111.001 17.9664 111.401 17.7244 111.241C17.0789 110.522 16.5142 105.806 16.9983 104.607C17.563 103.089 19.9027 103.169 21.1936 104.847ZM36.0387 106.605L37.6523 109.003L34.9899 111.001C31.7627 113.479 31.3593 113.479 29.423 111.721C27.406 109.962 27.5673 108.524 30.2298 106.286C33.0536 103.728 33.941 103.808 36.0387 106.605ZM49.2702 107.085C50.8838 109.563 50.8838 110.602 49.1895 112.44C47.2532 114.598 43.7033 114.278 41.6863 111.721C39.5886 109.083 39.8307 108.444 43.2999 106.526C46.9305 104.607 47.7373 104.687 49.2702 107.085ZM27.2446 112.6C28.5355 117.155 24.2594 119.313 20.9516 115.797L18.8539 113.559L21.1129 111.721C24.0174 109.243 26.4378 109.563 27.2446 112.6ZM40.8795 113.958C40.8795 114.758 39.4273 116.276 37.491 117.395C34.2638 119.313 33.941 119.393 33.0536 118.114C31.3593 115.877 31.8434 114.198 34.8285 112.6C36.3614 111.8 37.6523 110.761 37.6523 110.362C37.6523 109.962 38.3784 110.282 39.2659 111.081C40.1534 111.88 40.8795 113.159 40.8795 113.958ZM54.2724 114.438C55.0792 115.717 56.2087 117.155 56.8541 117.795C57.4189 118.434 57.7416 119.633 57.4996 120.592C57.2575 121.551 57.0155 123.549 57.0155 125.068C57.0155 126.986 56.7735 127.545 56.2894 126.746C55.886 126.187 55.2405 125.867 54.8371 126.107C53.869 126.666 51.3679 123.869 51.3679 122.27C51.3679 121.631 50.8838 121.311 50.3191 121.551C49.4316 121.871 46.5271 117.475 46.5271 115.877C46.5271 115.397 51.5293 112.28 52.2554 112.28C52.5781 112.28 53.4656 113.239 54.2724 114.438ZM31.5206 118.354C31.8434 119.313 31.682 119.313 30.3911 118.674C28.1321 117.475 28.3741 118.434 31.0366 120.752C33.2956 122.83 31.5206 122.35 28.3741 120.033C27.0832 119.074 27.0026 118.674 27.89 117.635C29.0196 116.196 30.8752 116.596 31.5206 118.354ZM45.0749 117.635C47.4146 119.713 46.8498 122.031 43.2192 124.588C40.8795 126.187 39.6693 126.586 39.1045 126.027C38.4591 125.387 38.6205 124.988 39.5886 124.588C40.8795 124.109 40.7988 123.869 38.8625 122.35L36.6035 120.592L39.2659 118.434C42.2511 115.957 43.0579 115.797 45.0749 117.635ZM10.4632 122.43C10.7859 123.949 10.6245 125.068 10.2211 125.068C9.73706 125.068 9.41434 124.269 9.41434 123.23C9.41434 122.27 9.1723 120.592 8.93026 119.473C8.60754 118.035 8.68822 117.795 9.25298 118.674C9.65638 119.313 10.2211 121.072 10.4632 122.43ZM44.9135 125.867C43.3806 127.146 41.767 128.185 41.2829 128.185C40.8795 128.185 41.767 127.146 43.2999 125.867C44.8328 124.588 46.4464 123.469 46.9305 123.469C47.3339 123.469 46.4464 124.508 44.9135 125.867ZM51.7713 126.666C53.6269 130.183 53.2235 131.701 50.2384 133.62C47.1725 135.538 46.9305 135.458 44.5101 130.742C43.3806 128.504 43.2999 127.945 44.1874 127.386C44.8328 127.066 46.043 126.187 46.9305 125.547C49.2702 123.709 50.3997 123.949 51.7713 126.666ZM36.6035 126.826C38.5398 128.664 39.1045 131.462 37.491 131.462C37.0069 131.462 35.3933 130.503 33.8604 129.384C31.682 127.705 31.2786 127.066 32.0854 126.187C33.3763 124.668 34.4251 124.748 36.6035 126.826ZM44.3487 136.657C44.5908 138.015 44.5101 139.614 44.1067 140.173C43.2999 141.532 41.6056 140.573 42.1704 139.134C42.4124 138.495 42.2511 137.776 41.767 137.456C41.2022 137.216 40.8795 137.696 40.8795 138.655C40.8795 139.934 40.4761 140.333 39.1045 140.093C37.6523 139.934 37.1682 139.214 37.0069 137.296C36.7648 135.058 37.0069 134.738 38.1364 135.218C39.1852 135.618 39.3466 135.458 38.8625 134.659C38.4591 134.019 38.7818 133.22 39.75 132.501C41.0409 131.621 41.3636 131.621 42.5738 132.82C43.2999 133.62 44.1067 135.378 44.3487 136.657Z" fill="#131313"/>
</svg>
