<svg width="579" height="300" viewBox="0 0 579 300" fill="none" xmlns="http://www.w3.org/2000/svg">
<path d="M143.417 93.2753C143.417 243.49 150.57 291.458 150.57 293.983C150.57 296.507 147.204 298.611 145.942 298.611H4.984C-4.27294 298.611 2.45938 298.611 2.45938 54.9853C2.45938 13.7498 -0.0652432 5.75517 5.40477 5.75517H75.2526C110.597 5.75517 116.909 3.65132 138.789 3.65132C142.155 3.65132 147.204 18.7991 139.63 18.7991C134.581 18.7991 89.9795 40.2583 58.8426 71.3953C58.001 71.8161 57.5803 72.6576 56.7387 73.4992C76.5149 63.8214 99.6573 57.5099 108.073 57.5099C135.843 57.5099 143.417 70.5538 143.417 93.2753ZM38.2248 24.2691C38.2248 33.9468 38.2248 48.6737 37.3833 71.3953C73.5695 38.1545 99.2365 21.7444 100.078 20.9029C101.761 19.2198 57.5803 24.2691 38.2248 24.2691ZM109.756 274.206C109.756 264.108 109.335 250.643 109.335 231.709C109.335 111.789 115.226 81.4938 81.9849 81.4938C61.788 81.4938 36.9625 103.795 36.9625 112.21C36.121 150.5 35.7002 202.676 35.2794 274.206H109.756Z" fill="white"/>
<path d="M317.376 49.936C317.376 59.193 322.846 58.7722 322.846 59.193C322.846 63.4007 283.294 87.3846 283.294 83.1769C283.294 60.8761 297.6 38.1545 297.6 34.7883C297.6 34.7883 280.769 20.9029 252.157 20.9029C223.124 20.9029 206.714 27.2144 206.714 28.8975C206.714 52.8814 213.446 84.0184 221.861 118.522C239.534 108.002 265.621 95.8 284.135 95.8C294.234 95.8 300.125 126.516 306.015 126.516C311.485 126.516 315.272 124.412 315.272 125.254C315.272 130.724 286.239 151.762 280.769 151.762C274.878 151.762 264.78 120.205 250.053 120.205C243.321 120.205 233.222 124.833 224.386 129.882C234.484 170.276 246.266 213.616 251.736 253.589C260.572 221.189 274.878 200.572 274.878 185.424C274.878 177.429 270.25 174.905 270.25 172.38C270.25 169.435 308.961 170.276 308.961 172.801C308.961 198.468 269.829 239.703 269.829 293.983C269.829 297.349 267.305 299.032 264.78 299.032H228.173C223.124 299.032 223.124 295.245 223.124 293.983C223.124 292.72 225.228 280.097 225.228 269.578C225.228 231.288 172.211 101.691 172.211 44.466C172.211 39.4168 207.976 0.285156 262.255 0.285156C316.955 0.285156 332.103 19.2198 332.103 20.9029C332.103 22.586 317.376 41.5206 317.376 49.936Z" fill="white"/>
<path d="M578.369 133.669C582.576 137.877 561.117 202.676 561.117 269.999C561.117 285.567 567.849 294.403 567.849 297.349C567.849 298.19 567.429 298.611 566.587 298.611H526.193C524.51 298.611 523.248 297.349 523.248 296.507C523.248 195.102 543.866 155.97 540.079 152.604C536.712 148.817 411.323 166.489 388.601 166.489C385.235 166.489 396.175 227.08 396.175 293.562C396.175 295.666 394.913 298.611 391.968 298.611H361.251C359.568 298.611 354.94 298.611 354.94 294.824C354.94 290.617 359.568 273.365 359.568 214.457C359.568 169.856 347.366 161.019 345.262 158.915C343.158 156.812 364.617 140.822 372.612 140.822C379.344 140.822 385.656 140.822 391.968 140.822C395.334 127.358 421.842 82.7561 439.935 82.7561H505.575C506.838 58.3514 518.199 32.6845 518.199 28.8975C518.199 24.6898 405.853 26.3729 404.17 26.3729C402.487 26.3729 412.164 35.6299 412.164 52.0399C412.164 55.406 382.29 76.4446 375.137 76.4446C373.033 76.4446 378.503 70.9745 378.503 58.7722C378.503 36.0506 351.574 8.27978 354.098 5.75517C356.623 3.65132 550.177 5.75517 554.806 5.75517C559.434 5.75517 537.554 39.4168 537.554 71.8161C537.554 99.1661 545.128 126.095 547.652 134.09C566.587 132.828 576.686 131.986 578.369 133.669ZM423.105 139.981C458.449 139.139 487.903 137.877 511.466 136.194C509.783 129.041 507.679 117.68 506.417 105.898C491.269 104.215 466.865 102.532 433.203 102.532C431.099 102.532 424.367 120.625 423.105 139.981Z" fill="white"/>
</svg>
