<svg width="54" height="101" viewBox="0 0 54 101" fill="none" xmlns="http://www.w3.org/2000/svg">
<path fill-rule="evenodd" clip-rule="evenodd" d="M24.0951 0.403576C22.6857 1.38978 21.9285 4.23078 21.6618 9.5336C21.5732 11.2925 21.4846 18.7226 21.4648 26.0451C21.4322 37.9964 21.3856 39.4535 21.0092 40.2834C20.7787 40.7921 20.4624 41.208 20.3061 41.208C19.7805 41.208 18.5996 39.6919 18.3205 38.6584C17.9306 37.2161 17.6421 35.0615 17.4735 32.3322C17.3938 31.0439 17.1707 28.4921 16.978 26.6615C16.785 24.8308 16.4599 20.8922 16.2556 17.9089C16.0513 14.9257 15.7704 12.0965 15.6315 11.6219C15.4923 11.1473 15.2075 9.77695 14.9982 8.57698C14.5143 5.79959 14.0362 4.61245 13.2596 4.25889C11.3295 3.38018 10.0412 4.73547 9.07283 8.66328C8.67821 10.2641 8.61651 11.5716 8.61257 18.402C8.60985 23.5426 8.71622 26.9788 8.91809 28.2641C9.2362 30.2895 9.80134 35.7065 10.2155 40.7038C10.3443 42.2571 10.6039 44.4205 10.7924 45.5115C11.1826 47.7677 11.5407 50.3851 11.9242 53.7821C12.0698 55.0703 12.4176 57.8995 12.6969 60.0691C12.9765 62.2388 13.3183 65.0679 13.4565 66.3562C13.8521 70.0404 14.514 72.4048 15.9802 75.3706C19.0024 81.4845 21.3066 83.2562 26.6111 83.5435C31.4802 83.807 35.19 82.1443 37.8958 78.485C39.1665 76.7665 41.0754 72.9245 41.778 70.6708C42.4537 68.5041 42.6852 64.9992 42.3012 62.756C41.3256 57.06 37.9602 53.3141 32.6934 52.0621C30.7423 51.5984 28.1227 51.838 26.584 52.6208C24.714 53.572 22.6289 55.5969 21.7286 57.3354C21.0115 58.7205 20.9508 59.027 20.9431 61.3019C20.933 64.3276 21.3908 65.491 23.3214 67.3485C27.1145 70.9982 31.1866 70.9546 31.174 67.2647C31.1725 66.8325 30.6732 65.4826 30.0634 64.2622C28.2567 60.6465 28.6325 58.9596 31.2446 58.9596C32.3835 58.9596 32.5296 59.0376 33.7672 60.3041C35.8477 62.4328 36.7953 65.4311 36.3652 68.5219C35.977 71.3091 34.7576 72.9021 32.0404 74.1709C30.8339 74.7342 30.2399 74.8577 28.8322 74.8388C25.4477 74.7931 22.7992 73.3984 20.3683 70.3819C17.8602 67.2699 17.0248 64.9669 17.0577 61.2541C17.0777 58.9934 17.1593 58.5593 17.8689 56.9394C18.3027 55.9488 18.9962 54.6388 19.4101 54.0286C20.6613 52.1834 23.5253 49.5296 25.1304 48.7278C26.5642 48.0116 26.7207 47.9881 30.0661 47.9881C33.3191 47.9881 33.6655 48.036 35.9891 48.8067C39.1704 49.8619 42.0719 51.4066 43.4065 52.755C44.7829 54.1457 46.04 56.6169 46.6259 59.0829C47.5279 62.8793 47.0104 70.0419 45.4988 74.6817C44.2617 78.4801 41.1348 83.9989 39.1596 85.8707C38.0253 86.9454 35.5209 88.4794 33.6446 89.2482C30.0439 90.7238 24.8165 90.4301 21.0502 88.5406C15.4358 85.7237 13.038 80.8862 10.9099 68.082C10.421 65.1422 10.2085 63.0425 9.8243 57.3571C9.3211 49.9159 8.19993 42.4992 7.36135 41.065C6.60987 39.78 6.32607 39.5554 4.9211 39.1328C3.47147 38.6971 2.23407 38.9925 1.29257 39.9996C0.0581357 41.3197 -0.0472424 42.3927 0.012974 53.0424C0.0808409 65.0953 0.484833 69.246 2.33871 76.9332C4.22689 84.7634 5.30511 87.615 7.81272 91.4114C9.18166 93.4837 9.93905 94.2046 12.7951 96.1531C15.6219 98.0818 18.7042 99.2051 23.3708 100.008C28.7762 100.937 31.4832 101.163 34.0148 100.895C36.458 100.636 37.4503 100.337 39.8274 99.1455C44.7863 96.6592 47.6071 93.3828 50.0143 87.313C53.3973 78.7828 54.3669 72.1405 53.8835 60.8088C53.5372 52.6849 52.9363 43.0182 52.6656 41.208C52.1858 38.0033 52.0923 36.6172 51.4156 22.7167C51.1589 17.4439 50.8642 15.0803 50.2744 13.5645C49.7169 12.1313 49.5385 11.9293 48.6575 11.736C48.0323 11.599 47.7764 11.7013 47.0958 12.3603C46.6249 12.8164 46.1721 13.5805 46.0218 14.1727C45.8789 14.7361 45.696 17.6377 45.6158 20.621C45.2049 35.8911 44.9418 38.6905 43.8503 39.4052C43.101 39.8956 42.6911 39.7164 41.9278 38.564C40.8039 36.8675 40.4784 34.2548 40.4295 26.5382C40.3814 18.9309 39.5742 9.10608 38.7788 6.44432C38.4471 5.33459 37.4091 4.22536 36.7023 4.22536C35.7976 4.22536 34.6801 5.37256 34.2221 6.771C33.4686 9.07255 33.5696 17.3396 34.5162 30.8529C34.9698 37.3293 34.903 38.792 34.1142 39.6308C33.5113 40.2718 32.4257 40.5847 31.6532 40.3396C30.2278 39.8877 29.8534 36.2846 29.8344 22.84C29.8166 10.3701 29.4812 6.32573 28.1735 2.81953C27.2604 0.371523 25.5709 -0.629226 24.0951 0.403576Z" fill="#CFF37E"/>
</svg>
