<svg width="1322" height="466" viewBox="0 0 1322 466" fill="none" xmlns="http://www.w3.org/2000/svg">
<path d="M102.598 4.89636C171.247 4.89636 190.394 14.7034 190.394 33.3834C190.394 113.707 124.08 194.031 124.08 296.304C124.08 333.664 123.613 335.999 120.811 335.999H80.6489C77.8469 335.999 78.7809 330.862 78.7809 317.786C78.7809 227.188 19.0049 136.59 19.0049 70.2764C19.0049 28.7134 63.8369 8.16537 94.6589 5.36338C95.1259 5.36338 95.5929 5.36338 95.5929 5.36338C97.9279 4.89636 100.263 4.89636 102.598 4.89636ZM104.466 236.995C122.212 166.011 155.836 102.499 155.836 62.3374C155.836 36.6524 152.1 27.7794 104.933 27.7794C85.3189 27.7794 69.9079 30.5814 58.6999 34.3174C55.4309 40.3884 53.5629 47.3934 53.5629 56.2664C53.5629 81.9514 85.3189 166.945 104.466 236.995Z" fill="#131313"/>
<path d="M491.846 10.9674C504.455 10.9674 495.115 12.8354 495.115 318.72C495.115 333.664 495.582 335.999 491.846 335.999H461.491C452.618 335.999 456.821 335.999 458.222 161.341C451.217 156.204 463.359 108.103 424.131 108.103C409.654 108.103 393.776 112.773 375.563 114.641C374.629 159.94 373.695 224.853 373.695 318.72C373.695 333.664 374.162 335.999 370.893 335.999H340.071C329.797 335.999 337.269 335.999 337.269 65.6064C337.269 19.8404 334.467 10.9674 340.538 10.9674C374.162 10.9674 367.624 10.9674 370.426 10.9674C378.365 10.9674 377.898 11.4344 376.03 86.6214C431.603 85.2204 437.674 80.0834 454.953 80.0834C456.354 80.0834 457.288 80.0834 458.689 80.0834C458.689 75.4134 458.689 70.7434 458.689 65.6064C458.689 19.8404 455.887 10.9674 461.958 10.9674C495.582 10.9674 488.577 10.9674 491.846 10.9674Z" fill="#131313"/>
<path d="M679.759 14.7034C679.759 112.306 721.789 258.01 721.789 331.329C721.789 333.197 720.855 335.999 717.586 335.999H682.094C678.825 335.999 678.358 332.73 678.358 330.862C678.358 330.395 678.825 329.461 678.825 327.593C678.825 312.649 677.891 296.771 676.49 280.893C671.82 260.812 661.546 242.599 637.262 242.599C609.709 242.599 591.496 249.604 580.755 256.142C577.486 268.751 575.618 281.36 575.618 293.969C575.618 320.588 582.623 335.999 578.887 335.999H540.593C539.192 335.999 537.324 335.065 537.324 311.715C537.324 214.579 632.592 144.529 637.729 32.9164C621.851 31.9824 581.689 31.0484 581.689 33.8504C581.689 37.1194 592.897 74.0124 592.897 104.834C592.897 135.189 545.73 159.473 543.395 159.473C540.593 159.473 537.324 157.138 538.725 155.737C539.659 154.336 552.735 144.529 552.735 118.844C552.735 66.0734 532.187 46.4594 532.187 39.9214C532.187 33.8504 565.811 10.9674 570.481 10.9674C574.684 10.9674 675.089 10.9674 675.089 10.9674C677.424 10.9674 679.759 12.3684 679.759 14.7034ZM666.216 217.848C667.15 217.848 668.084 218.315 669.018 218.315C663.414 177.219 656.409 137.057 650.805 102.032C632.592 145.463 601.77 190.295 585.892 237.462C603.171 228.589 630.724 217.848 666.216 217.848Z" fill="#131313"/>
<path d="M844.584 180.488C850.655 174.884 893.152 175.351 893.152 177.686C893.152 179.522 836.337 234.115 834.363 324.185C834.328 325.777 834.31 327.38 834.31 328.994C834.31 332.73 833.376 335.999 828.706 335.999H802.171H801.153C798.818 335.999 796.016 335.065 796.016 330.862C796.016 217.848 718.961 89.8904 718.961 57.2004C718.961 24.9774 782.94 0.693359 874.939 0.693359C883.812 0.693359 905.761 4.42937 905.761 10.9674C905.761 17.5054 883.345 33.3834 883.345 93.1594C883.345 107.169 888.015 113.24 888.015 116.509C888.015 119.311 853.924 143.128 852.056 141.26C850.655 139.859 844.117 118.377 844.117 88.9564C844.117 59.5354 861.396 30.5814 861.396 27.7794C861.396 27.7794 853.924 25.4444 837.112 25.4444C765.194 25.4444 750.25 40.8554 750.25 40.8554C750.25 59.5354 797.417 150.133 821.234 241.198C831.041 205.706 843.65 181.422 844.584 180.488Z" fill="#131313"/>
<path fill-rule="evenodd" clip-rule="evenodd" d="M1080.45 88.8C1075.43 90.5945 1071.6 94.9651 1069.46 101.33C1068.16 105.218 1068.02 111.811 1069.17 115.143C1070.88 120.103 1080.74 127.973 1087.24 129.57C1090.17 130.29 1090.32 130.444 1092.7 135.165C1095.81 141.32 1096.07 144.831 1093.6 147.298C1091.1 149.798 1087.31 149.935 1078.46 147.843L1071.18 146.124L1063.78 147.414C1051.21 149.602 1047.16 148.457 1029.39 137.709C1022.91 133.79 1019.36 132.138 1012.14 129.678C1003.45 126.721 1002.72 126.578 996.137 126.55C989.376 126.521 989.138 126.57 984.464 128.903C974.365 133.946 958.19 148.87 954.334 156.704C952.476 160.478 952.271 161.475 952.053 167.841C951.921 171.685 952.045 176.346 952.329 178.196L952.845 181.56L961.296 181.457C965.943 181.401 969.796 181.299 969.859 181.23C969.921 181.162 969.583 179.13 969.108 176.714C967.847 170.309 967.848 162.184 969.11 159.164C972.632 150.735 983.487 142.316 993.152 140.519C1000.79 139.099 1010.36 142.542 1024.18 151.681C1032.97 157.494 1039.97 164.592 1043.32 171.067C1047.24 178.669 1048.22 181.593 1052.89 199.619C1056.14 212.158 1058.38 219.26 1062.01 228.481C1071.24 251.899 1077.2 262.36 1084.16 267.299C1094.72 274.799 1097.24 277.777 1100.09 286.14C1101.15 289.225 1101.5 291.634 1101.46 295.61C1101.41 301.612 1099.85 306.703 1093.49 321.648C1091.58 326.134 1089.51 332.205 1088.89 335.138C1087.36 342.344 1087.36 357.451 1088.89 366.509C1089.08 367.642 1089.31 368.939 1089.56 370.324C1090.98 378.117 1093.12 388.719 1093.35 388.958C1093.67 389.275 1107.15 385.818 1107.77 385.262C1108.12 384.948 1107.81 382.301 1106.98 378.604C1106.38 375.887 1105.86 373.248 1105.42 370.757C1104.24 364.055 1103.7 358.424 1103.96 355.215C1104.35 350.412 1106.62 341.431 1109.97 331.373C1113.29 321.431 1122.57 296.684 1123.25 295.957C1123.7 295.481 1148.86 292.001 1152.74 291.878C1153.34 291.859 1155.36 294.329 1157.73 297.963C1164.11 307.764 1170.91 314.016 1194.12 331.422C1201.44 336.91 1204.02 339.429 1205.74 342.757C1207.4 345.957 1209.7 359.085 1211.11 373.103C1211.2 373.986 1211.28 374.872 1211.37 375.76C1211.75 379.998 1211.87 380.283 1213.13 379.99C1213.87 379.817 1219.67 378.843 1226.01 377.826C1232.35 376.809 1237.63 375.878 1237.75 375.756C1237.86 375.652 1237.78 375.018 1237.57 373.997C1236.5 368.754 1231.84 353.327 1229.4 347.373C1225.32 337.434 1212.65 322.258 1203.28 316.074C1200.47 314.22 1194.17 310.685 1189.28 308.22C1176.57 301.808 1171.13 297.229 1167.26 289.688C1163.93 283.201 1164.79 270.795 1170.28 246.276C1175.19 224.306 1175.35 222.769 1174.9 201.811C1174.45 181.093 1174.85 177.746 1178.74 169.551C1181.78 163.14 1189.2 155.782 1196.17 152.267C1200.44 150.112 1201.62 149.792 1205.27 149.804C1217.08 149.842 1230.52 159.304 1239.59 173.969C1243.08 179.613 1249.9 192.935 1252 198.203C1252.58 199.67 1253.41 200.872 1253.84 200.876C1254.28 200.879 1257.52 200.269 1261.05 199.52C1268.48 197.941 1268.07 199.229 1264.61 188.508C1260.66 176.267 1256.05 168.516 1246.91 158.747C1239.36 150.674 1224.77 141.946 1214.54 139.375C1204.61 136.882 1198.56 137.993 1186.87 144.45C1179.79 148.363 1171.63 151.486 1165.56 152.608C1160.75 153.497 1157.76 152.544 1151.74 148.199C1146.03 144.079 1143.81 142.855 1140.93 142.236C1138.27 141.663 1130.38 142.887 1124.23 144.825C1121.52 145.678 1119.22 146.285 1119.11 146.173C1119.01 146.062 1116.96 141.165 1114.56 135.291L1110.2 124.613L1112.61 121.488C1115.71 117.466 1116.52 114.94 1116.12 110.548C1115.44 103.067 1109.7 95.7061 1101.68 92.0363C1093.39 88.2423 1085.41 87.027 1080.45 88.8ZM1077.24 158.225C1069.66 159.125 1063.43 161.868 1060.64 165.524C1059.03 167.647 1058.88 168.267 1058.95 172.905C1059.07 181.646 1064.52 198.25 1072.68 214.736C1081.05 231.652 1086.96 240.575 1100.98 257.443C1104.64 261.843 1108.01 265.764 1108.49 266.156C1109.15 266.706 1113.28 265.618 1126.54 261.398L1143.73 255.926L1144.16 249.573C1144.68 242.025 1146.55 231.848 1147.91 229.221C1148.45 228.187 1150.33 225.551 1152.09 223.36C1156.22 218.233 1156.64 217.392 1158.55 210.271C1163.19 192.973 1162.14 175.083 1155.93 165.577C1152.22 159.902 1147.39 159.32 1136.44 163.225C1126.88 166.637 1124.36 166.601 1113.38 162.893C1101.86 159.007 1086.92 157.076 1077.24 158.225Z" fill="black"/>
<path d="M806.207 337.047C810.248 337.978 838.725 344.883 869.489 352.393C936.185 368.673 948.045 371.413 980.886 378.126L1006.01 383.262L717.801 382.816C444.522 382.392 344.457 381.734 214.859 379.506C183.834 378.973 124.746 378.424 83.5535 378.286C0.235764 378.007 4.5295 377.685 1.23406 384.451C-0.228782 387.455 -0.32738 388.537 0.60266 391.364C1.80953 395.034 4.0147 396.514 11.6655 398.787C16.1081 400.107 16.6229 400.103 17.1424 398.744C17.6619 397.387 26.0939 397.301 105.622 397.841C153.97 398.17 218.912 398.874 249.937 399.406C374.216 401.533 523.367 402.287 840.574 402.387L1172.87 402.492L1146.32 406.671C1043.9 422.794 940.126 436.065 868.541 442.192C848.753 443.885 805.644 447.004 802.014 447.004C801.052 447.004 800.755 449.242 800.755 456.502V466L806.207 465.564C809.205 465.324 817.49 464.907 824.618 464.638C902.109 461.712 1122.33 432.711 1248.18 408.861C1274.18 403.931 1321.27 394.011 1321.97 393.315C1323.12 392.163 1293.6 380.166 1284.74 378.186C1276.41 376.324 1263.15 375.049 1237.57 373.997C1237.78 375.018 1237.86 375.652 1237.75 375.756C1237.63 375.878 1232.35 376.809 1226.01 377.826C1219.67 378.843 1213.87 379.817 1213.13 379.99C1211.87 380.283 1211.75 379.998 1211.37 375.76C1211.28 374.872 1211.2 373.986 1211.11 373.103C1195.99 372.676 1177.94 372.271 1156.28 371.857C1136.37 371.476 1119.61 371.117 1105.42 370.757C1105.86 373.248 1106.38 375.887 1106.98 378.604C1107.81 382.301 1108.12 384.948 1107.77 385.262C1107.15 385.818 1093.67 389.275 1093.35 388.958C1093.12 388.719 1090.98 378.117 1089.56 370.324C1059.68 369.436 1043.8 368.494 1033.49 367.176C1000.55 362.964 964.082 355.54 899.353 339.868C876.939 334.441 852.712 328.597 834.363 324.185C834.328 325.777 834.31 327.38 834.31 328.994C834.31 332.73 833.376 335.999 828.706 335.999H802.171C803.331 336.342 804.719 336.705 806.207 337.047Z" fill="black"/>
</svg>
