<svg width="101" height="73" viewBox="0 0 101 73" fill="none" xmlns="http://www.w3.org/2000/svg">
<path d="M6.77609 3.06123H22.9234V7.81891H12.7592V64.9111H22.9234V69.6687H6.77609V3.06123Z" fill="black"/>
<path d="M94.2239 3.06123H78.0766V7.81891H88.2408V64.9111H78.0766V69.6687H94.2239V3.06123Z" fill="black"/>
<path fill-rule="evenodd" clip-rule="evenodd" d="M25.1495 35.5049C28.0051 29.8422 33.1972 26.7926 41.9643 25.6273C51.178 24.4034 62.4296 25.5925 68.4958 28.4313C72.0771 30.1068 73.634 31.5361 75.5566 34.9116C76.704 36.9263 76.8996 37.814 76.8991 40.9999C76.8986 44.2043 76.6948 45.1154 75.4535 47.4653C73.6171 50.9407 69.5237 53.9272 65.3218 54.8567C62.2704 55.5313 60.376 56.2784 59.5205 57.1784L51.9995 57.6484L42.9995 57.1484L40.3901 56.7757C39.5459 56.4514 38.4481 56.1205 37.0622 55.7613C31.408 54.2962 27.528 51.8448 25.2194 48.2794C23.8032 46.0926 23.6533 45.5068 23.6533 42.1667C23.6533 39.0026 23.8682 38.0468 25.1495 35.5049ZM31.13 40.4454C31.8142 35.3089 33.1596 33.4404 37.1856 32.034C41.9402 30.3729 46.4013 32.9839 43.4768 35.7157C42.9834 36.1763 42.2066 37.4072 41.7508 38.4501C40.9615 40.2569 40.9639 40.4389 41.8048 42.2756C43.1005 45.1069 45.6843 46.4522 49.8476 46.4627C52.6227 46.4691 53.5989 46.2254 55.9297 44.9433C60.014 42.6963 60.7633 40.4603 58.4214 37.5076C57.6673 36.5562 56.8067 35.3025 56.5099 34.7216C55.6898 33.1187 57.1879 32.0151 60.6009 31.7072C63.0001 31.4909 63.6434 31.6237 65.0356 32.6213C69.3834 35.7376 71.1331 41.554 69.0134 45.843C68.1667 47.5553 67.4232 48.1616 64.2631 49.7167C56.6096 53.4825 47.6165 54.3111 40.2777 51.9269C35.7477 50.4548 33.5538 48.7763 32.0339 45.6192C30.9652 43.3991 30.8355 42.6561 31.13 40.4454Z" fill="black"/>
</svg>
