<svg width="69" height="70" viewBox="0 0 69 70" fill="none" xmlns="http://www.w3.org/2000/svg">
<path fill-rule="evenodd" clip-rule="evenodd" d="M44.5863 0.560694C43.1394 1.90695 42.0941 3.88641 39.8314 9.56448C38.0061 14.1454 37.0681 15.9807 35.9596 17.1399C34.0723 19.1142 31.8428 18.9821 29.6914 16.7687C28.6445 15.6915 28.168 15.0717 26.4072 12.4968C24.1936 9.25969 21.2569 5.98903 19.0214 4.27071C17.7848 3.32031 15.4833 1.90792 15.1712 1.90792C14.6767 1.90792 15.0377 5.60164 15.7844 8.17979C16.3374 10.0892 17.4633 12.9993 18.6521 15.592C18.9191 16.1744 19.3563 17.1274 19.6239 17.7098C21.2982 21.3546 21.9425 23.2106 21.9425 24.3894C21.9425 25.1081 21.8711 25.3 21.4451 25.727C20.9521 26.2211 20.9356 26.2247 19.6166 26.1346C18.845 26.0818 17.8031 25.8756 17.1384 25.6439C16.118 25.2883 12.4747 23.8114 11.6214 23.4074C10.5264 22.889 7.47897 21.7661 6.09513 21.3711C4.03303 20.7825 1.76661 20.7092 0.686881 21.1963C0.309145 21.3667 0 21.5905 0 21.6938C0 22.1067 0.978146 23.3862 2.04325 24.3666C3.50901 25.7154 5.35559 26.9972 9.34587 29.4351C14.3936 32.519 15.9824 33.6615 17.21 35.09C19.246 37.4585 18.2043 39.0725 12.7591 41.9868C10.6865 43.0961 6.87563 45.3936 5.59224 46.3077C3.91665 47.5009 1.82919 50.0716 2.21879 50.4621C2.44943 50.6932 3.98979 50.9425 5.18704 50.9425C7.62135 50.9425 10.6782 50.3327 16.1357 48.7584C19.1116 47.9001 21.3999 47.4658 22.1775 47.612C23.3416 47.8308 24.1809 49.246 24.6359 51.757C24.7576 52.429 24.9707 54.5916 25.1093 56.5627C25.6116 63.7035 26.0831 66.5312 27.1625 68.8786C27.4468 69.4966 27.7234 70.0013 27.7772 70C27.99 69.9946 29.1656 68.2173 29.8229 66.9072C30.205 66.1456 31.1198 63.9098 31.8554 61.9386C32.5912 59.9675 33.4667 57.7682 33.8008 57.0514C35.0698 54.3296 36.7297 52.7476 38.4682 52.6031L39.3536 52.5295L40.7727 53.976C41.5532 54.7716 42.518 55.8236 42.9165 56.314C47.0102 61.3508 51.6483 66.0113 52.2167 65.6592C52.3198 65.5954 52.3481 64.9423 52.2926 63.9109C52.1829 61.8694 51.7678 60.6403 49.8101 56.5627C47.4551 51.6575 47.0224 50.2883 47.1708 48.2099C47.2592 46.971 47.5358 46.3339 48.4046 45.369C49.1731 44.5154 49.8063 44.2575 51.1655 44.2448C52.5984 44.2313 53.7114 44.5344 57.2034 45.8887C61.6114 47.5982 62.2131 47.7595 64.202 47.7629C65.674 47.7653 66.0047 47.7144 66.6074 47.392C67.6103 46.8552 67.622 46.6475 66.703 45.7018C65.4836 44.4473 64.2783 43.7002 60.2199 41.6831C55.0228 39.1001 53.5052 38.0868 52.8102 36.7355C51.7901 34.752 53.0076 33.4854 58.4328 30.8865C63.1603 28.6218 66.0819 26.8279 67.9814 25.0234C69.1108 23.9503 69.1419 23.9008 68.8314 23.6627C68.0854 23.09 66.4517 22.7268 64.6084 22.7237C62.5216 22.7201 61.4756 22.9073 56.6441 24.1489C52.1875 25.2943 50.3206 25.4624 48.4345 24.8884C47.4555 24.5902 47.1111 24.3851 46.4145 23.6851C45.7307 22.998 45.5009 22.6144 45.1768 21.6195C44.8156 20.5106 44.7805 20.1493 44.7971 17.7098C44.812 15.4947 44.9218 14.3195 45.4206 11.0306C46.1809 6.01526 46.3516 2.32952 45.8874 0.942708C45.7247 0.456598 45.5139 0.0335318 45.4191 0.00257979C45.3242 -0.0283723 44.9494 0.222828 44.5863 0.560694ZM33.8889 25.0203C31.1497 25.8135 28.7949 27.7034 27.0505 30.5084C25.0476 33.7292 24.643 37.4477 25.9872 40.2828C27.5703 43.6218 32.2478 46.0105 35.7353 45.2608C38.5424 44.6576 41.0121 42.3709 42.9656 38.5662C44.034 36.4859 44.4886 35.1856 44.6271 33.8144C44.854 31.568 44.138 29.7477 42.237 27.7379C39.7955 25.1565 36.7933 24.1792 33.8889 25.0203Z" fill="#131313"/>
</svg>
