<svg width="71" height="86" viewBox="0 0 71 86" fill="none" xmlns="http://www.w3.org/2000/svg">
<path fill-rule="evenodd" clip-rule="evenodd" d="M56.8574 3.37483C53.8245 5.32154 51.2254 7.93877 50.8511 9.42395C50.052 12.5999 50.2436 12.5932 42.0855 9.7335C29.5999 5.35842 28.2606 6.70726 7.63142 44.4436C3.43408 52.1221 0 58.9848 0 59.6933C0 60.4286 4.90567 58.8596 11.4107 56.0446C17.6871 53.3279 23.198 51.2426 23.6575 51.4102C24.5642 51.741 17.2321 64.3701 14.1824 67.7282C12.4317 69.6582 12.4385 69.9051 14.281 71.5412C17.2466 74.1752 25.7769 78.3502 26.5727 77.5568C27.5937 76.5387 34.7398 59.9358 34.769 58.5132C34.7824 57.8471 35.7485 56.0647 36.9153 54.5504L39.0369 51.7991L39.6959 55.668C42.8767 74.3193 44.902 85.1246 45.2909 85.5124C45.5464 85.7672 46.999 83.7981 48.5199 81.1384C50.0408 78.4776 53.3034 72.7805 55.7691 68.4781C64.6502 52.9848 69.8652 41.6331 70.1454 37.1876C70.5377 30.9507 67.7783 25.7699 62.6855 23.1784C60.3464 21.9893 58.1272 20.5231 57.7551 19.9208C57.3819 19.3196 59.1225 15.2272 61.623 10.8264C65.1624 4.59851 65.8864 2.48528 64.8901 1.28842C63.2414 -0.692937 63.1685 -0.673938 56.8574 3.37483Z" fill="black"/>
</svg>
