<svg width="85" height="86" viewBox="0 0 85 86" fill="none" xmlns="http://www.w3.org/2000/svg">
<path fill-rule="evenodd" clip-rule="evenodd" d="M41.6118 16.5347C41.3872 16.7047 40.8502 16.7707 39.664 16.7744C38.6822 16.7774 38.0263 16.8434 38.0263 16.9393C38.0263 17.0272 37.8466 17.0991 37.6269 17.0991C37.4072 17.0991 37.2274 17.171 37.2274 17.2588C37.2274 17.3467 36.9039 17.4186 36.5085 17.4186C36.113 17.4186 35.7895 17.4905 35.7895 17.5784C35.7895 17.6663 35.5738 17.7382 35.3101 17.7382C35.0465 17.7382 34.8308 17.8101 34.8308 17.8979C34.8308 17.9858 34.5105 18.0577 34.119 18.0577C33.5729 18.0577 33.3144 18.1507 33.008 18.4571C32.6922 18.7729 32.4468 18.8566 31.8376 18.8566C31.2501 18.8566 31.0121 18.9326 30.8365 19.1761C30.7098 19.3519 30.4918 19.4957 30.352 19.4957C30.2122 19.4957 29.9585 19.6254 29.7882 19.7837C29.6177 19.9422 29.101 20.2773 28.6396 20.5281C28.1781 20.7791 27.8007 21.0448 27.8007 21.1188C27.8007 21.1928 27.6929 21.2532 27.5611 21.2532C27.4293 21.2532 27.3214 21.3251 27.3214 21.413C27.3214 21.5008 27.2446 21.5727 27.1508 21.5727C26.9178 21.5727 25.5999 22.9652 25.4824 23.3352C25.4303 23.4993 25.2477 23.6779 25.0764 23.7323C24.9052 23.7866 24.765 23.9222 24.765 24.0336C24.765 24.2678 23.8906 25.0878 23.6409 25.0878C23.4407 25.0878 21.4098 27.1295 21.4098 27.3307C21.4098 27.4072 21.23 27.6496 21.0103 27.8693C20.7906 28.089 20.6109 28.385 20.6109 28.5271C20.6109 28.8492 20.2314 29.2419 19.9204 29.2419C19.6407 29.2419 19.4925 29.5786 19.4925 30.2137C19.4925 30.4701 19.4206 30.6799 19.3327 30.6799C19.2448 30.6799 19.1729 30.8237 19.1729 30.9994C19.1729 31.1752 19.101 31.319 19.0132 31.319C18.9253 31.319 18.8534 31.5706 18.8534 31.8782C18.8534 32.1858 18.7903 32.4374 18.7133 32.4374C18.488 32.4374 17.9382 33.8826 17.8168 34.7939C17.7553 35.2552 17.6399 35.6728 17.5602 35.722C17.4806 35.7712 17.4154 36.0588 17.4154 36.3613C17.4154 36.6637 17.3435 36.9111 17.2556 36.9111C17.1678 36.9111 17.0959 37.1268 17.0959 37.3904C17.0959 37.654 17.024 37.8697 16.9361 37.8697C16.8402 37.8697 16.7763 38.5088 16.7763 39.4675C16.7763 40.4261 16.7124 41.0652 16.6165 41.0652C16.5207 41.0652 16.4568 41.7043 16.4568 42.663C16.4568 43.6216 16.5207 44.2607 16.6165 44.2607C16.7113 44.2607 16.7763 44.8466 16.7763 45.6987C16.7763 46.5507 16.8413 47.1366 16.9361 47.1366C17.024 47.1366 17.0959 47.3164 17.0959 47.5361C17.0959 47.7558 17.1678 47.9355 17.2556 47.9355C17.3435 47.9355 17.4154 48.2591 17.4154 48.6545C17.4154 49.0499 17.4873 49.3735 17.5752 49.3735C17.6631 49.3735 17.735 49.5444 17.735 49.7533C17.735 50.5421 18.2728 52.4966 18.5588 52.7474C18.7273 52.8954 18.8534 53.2199 18.8534 53.5064C18.8534 53.7817 18.9253 54.0069 19.0132 54.0069C19.101 54.0069 19.1729 54.1507 19.1729 54.3265C19.1729 54.5022 19.2448 54.646 19.3327 54.646C19.4206 54.646 19.4925 54.8569 19.4925 55.1147C19.4925 55.4428 19.5882 55.6135 19.812 55.6846C19.9878 55.7403 20.1316 55.8418 20.1316 55.9102C20.1316 55.9784 20.3112 56.2431 20.5309 56.4985C20.7504 56.7539 20.9301 57.0727 20.9303 57.2071C20.9303 57.3414 21.0742 57.555 21.25 57.6818C21.4258 57.8085 21.5695 58.0066 21.5695 58.1222C21.5695 58.2378 21.9006 58.6353 22.3053 59.0056C22.71 59.376 23.1574 59.8048 23.2994 59.9585C23.4416 60.1122 23.6496 60.2381 23.762 60.2381C23.8743 60.2381 23.9662 60.31 23.9662 60.3979C23.9662 60.4858 24.0432 60.5577 24.1373 60.5577C24.326 60.5577 24.765 60.9519 24.765 61.1212C24.765 61.1802 24.9807 61.4299 25.2444 61.6761C25.508 61.9223 25.7237 62.208 25.7237 62.3109C25.7237 62.5066 26.1094 62.9543 26.2783 62.9543C26.3981 62.9543 26.6908 63.193 27.4047 63.873C27.7046 64.1587 28.0652 64.3923 28.2063 64.3923C28.4977 64.3923 28.9192 64.7634 28.9192 65.02C28.9192 65.1141 29.0451 65.1927 29.1988 65.1947C29.3525 65.1966 29.6581 65.3388 29.8778 65.5107C30.0975 65.6826 30.3672 65.8248 30.477 65.8267C30.5869 65.8287 30.6767 65.9021 30.6767 65.99C30.6767 66.0779 30.8205 66.1498 30.9962 66.1498C31.172 66.1498 31.3158 66.2217 31.3158 66.3096C31.3158 66.3974 31.5674 66.4693 31.875 66.4693C32.1826 66.4693 32.4342 66.5412 32.4342 66.6291C32.4342 66.717 32.578 66.7889 32.7538 66.7889C32.9295 66.7889 33.0733 66.8608 33.0733 66.9487C33.0733 67.0365 33.3069 67.111 33.5926 67.114C33.8782 67.1172 34.2916 67.2225 34.5113 67.3481C34.731 67.4737 35.1042 67.579 35.3407 67.5822C35.5771 67.5852 35.815 67.6597 35.8694 67.7475C35.9237 67.8354 36.2514 67.9073 36.5978 67.9073C36.9442 67.9073 37.2274 67.9792 37.2274 68.0671C37.2274 68.155 37.4072 68.2269 37.6269 68.2269C37.8466 68.2269 38.0263 68.2988 38.0263 68.3866C38.0263 68.483 38.6889 68.5464 39.6945 68.5464C40.6343 68.5464 41.4059 68.6162 41.4615 68.7062C41.5158 68.7941 41.9112 68.866 42.3402 68.866C42.7692 68.866 43.1647 68.7941 43.219 68.7062C43.2733 68.6183 43.8167 68.5464 44.4267 68.5464C45.0596 68.5464 45.5357 68.4779 45.5357 68.3866C45.5357 68.2965 45.9884 68.2269 46.5742 68.2269C47.1601 68.2269 47.6128 68.1572 47.6128 68.0671C47.6128 67.9792 47.8644 67.9073 48.172 67.9073C48.4796 67.9073 48.7312 67.8354 48.7312 67.7475C48.7312 67.6597 49.021 67.5878 49.3753 67.5878C49.8004 67.5878 50.0506 67.5063 50.1113 67.3481C50.1701 67.1949 50.4163 67.1084 50.7936 67.1084C51.3956 67.1084 52.2427 66.8054 52.245 66.5892C52.2456 66.5232 52.5698 66.4693 52.9652 66.4693C53.3607 66.4693 53.6842 66.3974 53.6842 66.3096C53.6842 66.2217 53.8016 66.1498 53.9451 66.1498C54.0886 66.1498 54.3222 66.0175 54.4644 65.8558C54.6064 65.6941 54.9079 65.5161 55.1343 65.4604C55.3607 65.4044 55.7734 65.1413 56.0516 64.8756C56.3298 64.6097 56.6658 64.3923 56.7984 64.3923C56.931 64.3923 57.0395 64.3204 57.0395 64.2325C57.0395 64.1446 57.1315 64.0727 57.2438 64.0727C57.3563 64.0727 57.5519 63.9289 57.6786 63.7532C57.8053 63.5774 58.0368 63.4336 58.1932 63.4336C58.3495 63.4336 58.4774 63.3566 58.4774 63.2625C58.4774 63.0786 58.8698 62.6348 59.0325 62.6348C59.2389 62.6348 59.9154 61.8389 59.9154 61.5962C59.9154 61.3331 60.5994 60.5577 60.8316 60.5577C60.9039 60.5577 61.0669 60.4139 61.1936 60.2381C61.3203 60.0624 61.521 59.9186 61.6397 59.9186C61.8586 59.9186 62.312 59.5442 62.312 59.3635C62.312 59.3094 62.4739 59.094 62.6715 58.885C62.8692 58.676 63.2467 58.2406 63.5103 57.9176C63.774 57.5944 64.0796 57.2345 64.1894 57.1179C64.2993 57.0011 64.3891 56.7928 64.3891 56.6546C64.3891 56.5165 64.461 56.4036 64.5489 56.4036C64.6367 56.4036 64.7086 56.3082 64.7086 56.1917C64.7086 56.0752 64.8884 55.8111 65.1081 55.6047C65.3278 55.3983 65.5075 55.114 65.5075 54.9729C65.5075 54.832 65.6513 54.613 65.8271 54.4863C66.0348 54.3366 66.1466 54.0726 66.1466 53.732C66.1466 53.4439 66.2185 53.2081 66.3064 53.2081C66.3943 53.2081 66.4662 52.9924 66.4662 52.7287C66.4662 52.4651 66.5381 52.2494 66.6259 52.2494C66.7138 52.2494 66.7857 52.1504 66.7857 52.0293C66.7857 51.9083 66.9011 51.7135 67.042 51.5966C67.2254 51.4443 67.2754 51.2142 67.2181 50.7864C67.168 50.4141 67.2201 50.0803 67.3561 49.9011C67.4762 49.7427 67.5768 49.3436 67.5795 49.014C67.5823 48.6845 67.6565 48.4148 67.7444 48.4148C67.8322 48.4148 67.9041 48.1632 67.9041 47.8556C67.9041 47.5481 67.976 47.2964 68.0639 47.2964C68.154 47.2964 68.2237 46.8438 68.2237 46.2579C68.2237 45.672 68.2933 45.2194 68.3835 45.2194C68.4833 45.2194 68.5432 44.2607 68.5432 42.663C68.5432 41.0652 68.4833 40.1066 68.3835 40.1066C68.2922 40.1066 68.2237 39.6272 68.2237 38.9881C68.2237 38.349 68.1551 37.8697 68.0639 37.8697C67.976 37.8697 67.9041 37.5821 67.9041 37.2306C67.9041 36.8791 67.8322 36.5915 67.7444 36.5915C67.6565 36.5915 67.5846 36.3707 67.5846 36.1009C67.5846 35.8308 67.4834 35.5089 67.3596 35.3851C67.2072 35.2327 67.1625 34.9543 67.2206 34.5207C67.2872 34.0236 67.2483 33.8589 67.046 33.7813C66.9028 33.7263 66.7857 33.5453 66.7857 33.3789C66.7857 33.2126 66.7138 33.0765 66.6259 33.0765C66.5381 33.0765 66.4662 32.8967 66.4662 32.6771C66.4662 32.4574 66.3943 32.2776 66.3064 32.2776C66.2185 32.2776 66.1466 31.99 66.1466 31.6385C66.1466 31.287 66.0747 30.9994 65.9868 30.9994C65.899 30.9994 65.8271 30.8916 65.8271 30.7598C65.8271 30.628 65.7686 30.5201 65.6972 30.5201C65.6256 30.5201 65.4684 30.2685 65.3477 29.9609C65.2271 29.6533 64.962 29.2767 64.7587 29.1242C64.5554 28.9714 64.3891 28.7198 64.3891 28.5649C64.3891 28.41 64.3172 28.2833 64.2293 28.2833C64.1414 28.2833 64.0695 28.1912 64.0695 28.0789C64.0695 27.9664 63.9257 27.7709 63.75 27.6442C63.5742 27.5175 63.4304 27.286 63.4304 27.1295C63.4304 26.9733 63.3226 26.8453 63.1908 26.8453C63.059 26.8453 62.9511 26.7849 62.9511 26.7109C62.9511 26.5454 61.5879 25.0878 61.4331 25.0878C61.2938 25.0878 60.235 24.0382 60.235 23.9002C60.235 23.7318 59.1394 22.6912 58.962 22.6912C58.8713 22.6912 58.797 22.6097 58.797 22.51C58.797 22.2801 57.9834 21.5732 57.7185 21.5729C57.6087 21.5729 57.5188 21.5008 57.5188 21.413C57.5188 21.3251 57.4109 21.2532 57.2791 21.2532C57.1473 21.2532 57.0395 21.1813 57.0395 21.0934C57.0395 21.0055 56.9128 20.9336 56.7578 20.9336C56.603 20.9336 56.3413 20.7539 56.1762 20.5342C56.0113 20.3145 55.7785 20.1348 55.659 20.1348C55.5395 20.1348 55.4417 20.0629 55.4417 19.975C55.4417 19.8871 55.3339 19.8152 55.2021 19.8152C55.0703 19.8152 54.9624 19.7433 54.9624 19.6554C54.9624 19.5676 54.8186 19.4957 54.6429 19.4957C54.4671 19.4957 54.3233 19.4238 54.3233 19.3359C54.3233 19.248 54.1795 19.1761 54.0038 19.1761C53.828 19.1761 53.6842 19.1042 53.6842 19.0163C53.6842 18.9285 53.4426 18.8566 53.1474 18.8566C52.838 18.8566 52.3608 18.6872 52.0217 18.4571C51.6392 18.1977 51.2119 18.0577 50.8012 18.0577C50.4536 18.0577 50.1692 17.9858 50.1692 17.8979C50.1692 17.8101 49.9175 17.7382 49.61 17.7382C49.3024 17.7382 49.0507 17.6663 49.0507 17.5784C49.0507 17.4905 48.7272 17.4186 48.3318 17.4186C47.9363 17.4186 47.6128 17.3467 47.6128 17.2588C47.6128 17.171 47.2533 17.0991 46.8139 17.0991C46.3745 17.0991 46.015 17.0272 46.015 16.9393C46.015 16.8469 45.4919 16.7771 44.7768 16.7739C44.0059 16.7704 43.3877 16.682 43.1391 16.5398C42.6195 16.2428 42.0005 16.2407 41.6118 16.5347ZM30.6767 35.6022C30.6767 35.7548 29.5524 36.272 29.2203 36.272C29.0935 36.272 28.8861 36.4158 28.7594 36.5915C28.6327 36.7673 28.4371 36.9111 28.3246 36.9111C28.2123 36.9111 28.1203 36.983 28.1203 37.0709C28.1203 37.1587 27.9944 37.233 27.8407 37.2359C27.4847 37.2428 26.8421 37.7729 26.8421 38.0599C26.8421 38.18 26.6983 38.3821 26.5226 38.5088C26.156 38.7729 26.1158 39.1599 26.4027 39.6605C26.6803 40.1448 27.2735 40.7457 27.474 40.7457C27.5659 40.7457 27.641 40.8176 27.641 40.9054C27.641 40.9933 27.7848 41.0652 27.9605 41.0652C28.1363 41.0652 28.2801 41.1371 28.2801 41.225C28.2801 41.3129 28.4239 41.3848 28.5996 41.3848C28.7754 41.3848 28.9192 41.4567 28.9192 41.5445C28.9192 41.6324 29.0542 41.7043 29.2192 41.7043C29.3841 41.7043 29.6086 41.8122 29.718 41.944C29.8275 42.0758 30.016 42.1836 30.137 42.1836C30.2581 42.1836 30.3571 42.2555 30.3571 42.3434C30.3571 42.4382 30.9453 42.5032 31.8018 42.5032C33.0348 42.5032 33.2976 42.4554 33.5961 42.1774C33.7883 41.9983 34.1269 41.807 34.3483 41.7524C34.5697 41.6979 34.8673 41.5209 35.0093 41.3592C35.1515 41.1975 35.421 41.0652 35.6084 41.0652C35.7959 41.0652 35.9492 40.9933 35.9492 40.9054C35.9492 40.8176 36.0622 40.7457 36.2002 40.7457C36.5316 40.7457 36.9079 40.3581 36.9079 40.0169C36.9079 39.8671 37.0697 39.6007 37.2674 39.4248C37.5112 39.2078 37.5626 39.0818 37.4272 39.0332C37.3174 38.9937 37.2274 38.8396 37.2274 38.6905C37.2274 38.5416 37.0836 38.316 36.9079 38.1893C36.7321 38.0626 36.5883 37.8978 36.5883 37.8231C36.5883 37.5829 36.141 37.2306 35.8361 37.2306C35.6735 37.2306 35.4368 37.0868 35.3101 36.9111C35.1834 36.7353 34.9519 36.5915 34.7955 36.5915C34.6393 36.5915 34.5113 36.5196 34.5113 36.4318C34.5113 36.3439 34.3665 36.272 34.1895 36.272C33.8538 36.272 33.3197 36.0141 32.9482 35.6728C32.709 35.453 30.6767 35.3897 30.6767 35.6022ZM42.8715 35.7281C42.7997 35.915 42.6475 35.958 42.3016 35.8888C41.4942 35.7273 41.062 35.9227 41.062 36.449C41.062 36.7032 40.9901 36.9111 40.9023 36.9111C40.6559 36.9111 40.6944 39.741 40.9422 39.841C41.102 39.9054 41.102 39.9241 40.9422 39.9342C40.8064 39.9428 40.7425 40.2491 40.7425 40.8922C40.7425 41.4988 40.6709 41.8663 40.5428 41.9181C40.383 41.9825 40.383 42.0012 40.5428 42.0112C40.7893 42.0269 40.8291 44.2607 40.5827 44.2607C40.4948 44.2607 40.4229 44.6188 40.4229 45.0565V45.0821C40.4229 45.4256 40.4228 45.6319 40.5216 45.7649C40.6702 45.9649 41.0424 45.9987 41.9747 46.0834L42.0207 46.0876C42.504 46.1315 43.239 46.2128 43.654 46.2684C44.644 46.4007 44.8966 46.1574 44.8966 45.0709C44.8966 44.6253 44.8247 44.2607 44.7368 44.2607C44.6352 44.2607 44.5771 42.9825 44.5771 40.7457C44.5771 38.5088 44.5189 37.2306 44.4173 37.2306C44.3294 37.2306 44.257 36.9611 44.2566 36.6315C44.2556 36.1301 44.1752 35.9866 43.7643 35.7527C43.1573 35.4073 42.9963 35.4028 42.8715 35.7281ZM51.7669 35.7629C51.4593 35.9111 51.1837 36.0863 51.1545 36.1522C51.1251 36.218 50.9634 36.272 50.795 36.272C50.6264 36.272 50.4887 36.3439 50.4887 36.4318C50.4887 36.5196 50.3449 36.5915 50.1692 36.5915C49.9934 36.5915 49.8496 36.6634 49.8496 36.7513C49.8496 36.8392 49.7026 36.9111 49.5229 36.9111C49.1827 36.9111 48.4117 37.5713 48.4117 37.8625C48.4117 37.9544 48.3398 38.0295 48.2519 38.0295C48.164 38.0295 48.0921 38.1733 48.0921 38.3491C48.0921 38.5248 48.0202 38.6686 47.9323 38.6686C47.8445 38.6686 47.7726 38.8843 47.7726 39.1479C47.7726 39.4115 47.8445 39.6272 47.9323 39.6272C48.0202 39.6272 48.0921 39.7015 48.0921 39.7923C48.0921 40.0072 49.1501 41.0652 49.365 41.0652C49.4558 41.0652 49.5301 41.1371 49.5301 41.225C49.5301 41.3129 49.6739 41.3848 49.8496 41.3848C50.0254 41.3848 50.1692 41.4567 50.1692 41.5445C50.1692 41.6324 50.313 41.7043 50.4887 41.7043C50.6645 41.7043 50.8083 41.7748 50.8083 41.861C50.8083 41.9472 50.988 42.0628 51.2077 42.118C51.4274 42.1731 51.6071 42.2824 51.6071 42.3607C51.6071 42.4391 51.8228 42.5032 52.0865 42.5032C52.3501 42.5032 52.5658 42.5751 52.5658 42.663C52.5658 42.7508 52.9612 42.8227 53.4445 42.8227C53.9279 42.8227 54.3233 42.7508 54.3233 42.663C54.3233 42.5751 54.539 42.5032 54.8026 42.5032C55.0663 42.5032 55.2824 42.4493 55.2829 42.3834C55.2843 42.2226 56.2082 41.7043 56.4932 41.7043C56.6178 41.7043 56.7199 41.6324 56.7199 41.5445C56.7199 41.4567 56.8278 41.3848 56.9596 41.3848C57.0914 41.3848 57.1992 41.3129 57.1992 41.225C57.1992 41.1371 57.3103 41.0652 57.4461 41.0652C57.7241 41.0652 58.4774 40.3704 58.4774 40.1138C58.4774 40.0219 58.5493 39.9468 58.6372 39.9468C58.7251 39.9468 58.797 39.8367 58.797 39.7022C58.797 39.5675 58.9048 39.416 59.0366 39.3655C59.3409 39.2487 59.352 38.6686 59.0501 38.6686C58.9256 38.6686 58.7283 38.4529 58.6117 38.1893C58.4949 37.9256 58.3451 37.71 58.2787 37.71C58.2122 37.71 58.1579 37.6021 58.1579 37.4703C58.1579 37.3385 58.05 37.2306 57.9182 37.2306C57.7864 37.2306 57.6786 37.1587 57.6786 37.0709C57.6786 36.983 57.4988 36.9111 57.2791 36.9111C57.0594 36.9111 56.8797 36.8392 56.8797 36.7513C56.8797 36.6634 56.7718 36.5915 56.64 36.5915C56.5082 36.5915 56.4004 36.5196 56.4004 36.4318C56.4004 36.3439 56.1847 36.272 55.921 36.272C55.6574 36.272 55.4417 36.2079 55.4417 36.1295C55.4417 36.0512 55.262 35.9419 55.0423 35.8868C54.8226 35.8316 54.6429 35.716 54.6429 35.6299C54.6429 35.3606 52.3851 35.4651 51.7669 35.7629ZM37.4608 52.5958C40.2608 53.7958 46.6287 52.7625 49.4626 52.0958C50.2959 51.7625 51.9626 50.5958 51.9626 48.5958C51.9626 46.0958 50.9626 44.5958 50.4626 45.0958C50.0626 45.4958 49.2959 46.5957 48.9626 47.0957L45.9626 48.5958C45.1626 48.9958 41.2959 49.0958 39.4626 49.0958C38.4626 48.2624 36.0626 46.6957 34.4626 47.0957C32.8626 47.4957 35.7948 50.9291 37.4608 52.5958Z" fill="#EE6845"/>
<path fill-rule="evenodd" clip-rule="evenodd" d="M38.6654 0.16297C38.6654 0.253082 38.2128 0.322744 37.6269 0.322744C37.041 0.322744 36.5883 0.392406 36.5883 0.482519C36.5883 0.570395 36.2066 0.642293 35.7401 0.642293C35.2416 0.642293 34.764 0.738957 34.5817 0.876842C34.4113 1.00594 33.93 1.11379 33.5127 1.1165C33.0954 1.11938 32.7538 1.19351 32.7538 1.28139C32.7538 1.36927 32.5021 1.44117 32.1945 1.44117C31.887 1.44117 31.6353 1.51306 31.6353 1.60094C31.6353 1.68882 31.2758 1.76071 30.8365 1.76071C30.3971 1.76071 30.0376 1.83261 30.0376 1.92049C30.0376 2.00836 29.803 2.08026 29.5162 2.08026C29.1467 2.08026 28.9077 2.19658 28.695 2.4797C28.4975 2.74269 28.239 2.87913 27.9382 2.87913C27.6868 2.87913 27.4812 2.95103 27.4812 3.03891C27.4812 3.12679 27.3015 3.19868 27.0818 3.19868C26.8621 3.19868 26.6823 3.27058 26.6823 3.35846C26.6823 3.44633 26.3947 3.51823 26.0432 3.51823C25.6917 3.51823 25.4041 3.59013 25.4041 3.67801C25.4041 3.76588 25.2867 3.83778 25.1432 3.83778C24.9997 3.83778 24.762 3.97663 24.6148 4.14631C24.4677 4.31599 24.0457 4.57546 23.6773 4.72293C23.309 4.87024 23.0075 5.05494 23.0075 5.13339C23.0075 5.21168 22.8637 5.27575 22.688 5.27575C22.5122 5.27575 22.3684 5.34765 22.3684 5.43553C22.3684 5.5234 22.1495 5.5953 21.8819 5.5953C21.5737 5.5953 21.2463 5.74421 20.9889 6.00161C20.7656 6.22497 20.3672 6.45089 20.1038 6.50362C19.8403 6.55634 19.5874 6.69694 19.5415 6.81629C19.4957 6.93565 19.3381 7.03327 19.1911 7.03327C19.0442 7.03327 18.8203 7.17707 18.6936 7.35282C18.5669 7.52857 18.3713 7.67237 18.2589 7.67237C18.1465 7.67237 18.0545 7.74427 18.0545 7.83214C18.0545 7.92002 17.9107 7.99192 17.735 7.99192C17.5592 7.99192 17.4154 8.06381 17.4154 8.15169C17.4154 8.23957 17.298 8.31146 17.1543 8.31146C17.0109 8.31146 16.5395 8.67096 16.107 9.11034C15.6745 9.54972 15.2527 9.90921 15.1698 9.90921C15.0867 9.90921 15.0188 10.0123 15.0188 10.1382C15.0188 10.2641 14.8699 10.4143 14.6879 10.4721C14.3318 10.5851 10.2256 14.6144 10.2256 14.8509C10.2256 14.9292 9.83012 15.4048 9.3468 15.9078C8.86349 16.4109 8.46804 16.8735 8.46804 16.9359C8.46804 16.9982 8.28845 17.2582 8.06876 17.5135C7.84923 17.769 7.66949 18.0678 7.66933 18.1775C7.66933 18.2875 7.59727 18.3773 7.5094 18.3773C7.42152 18.3773 7.34962 18.4851 7.34962 18.6169C7.34962 18.7487 7.27772 18.8566 7.18985 18.8566C7.10197 18.8566 7.03007 19.0004 7.03007 19.1761C7.03007 19.3519 6.97623 19.4962 6.91024 19.4966C6.76022 19.4979 6.2312 20.4133 6.2312 20.6716C6.2312 20.7769 6.08741 20.9667 5.91165 21.0934C5.72408 21.2287 5.5921 21.5071 5.5921 21.7678C5.5921 22.012 5.52021 22.2118 5.43233 22.2118C5.34445 22.2118 5.27256 22.3916 5.27256 22.6113C5.27256 22.831 5.20066 23.0107 5.11278 23.0107C5.02491 23.0107 4.95301 23.1128 4.95301 23.2374C4.95301 23.5225 4.4347 24.4463 4.27397 24.4477C4.20798 24.4482 4.15413 24.5767 4.15413 24.7329C4.15413 24.8893 4.01034 25.1208 3.83459 25.2475C3.64701 25.3829 3.51504 25.6612 3.51504 25.922C3.51504 26.1661 3.44314 26.366 3.35526 26.366C3.26739 26.366 3.19549 26.6176 3.19549 26.9252C3.19549 27.2327 3.12359 27.4844 3.03571 27.4844C2.94784 27.4844 2.87594 27.5865 2.87594 27.7111C2.87594 27.9961 2.35763 28.92 2.1969 28.9214C2.13091 28.9219 2.07707 29.1381 2.07707 29.4017C2.07707 29.6653 2.00517 29.881 1.91729 29.881C1.82942 29.881 1.75752 30.2764 1.75752 30.7598C1.75752 31.2431 1.68562 31.6385 1.59774 31.6385C1.50987 31.6385 1.43797 31.8902 1.43797 32.1977C1.43797 32.5053 1.36607 32.7569 1.2782 32.7569C1.19032 32.7569 1.11842 33.0402 1.11842 33.3866C1.11842 33.733 1.04652 34.0607 0.958647 34.115C0.870771 34.1693 0.798872 34.6265 0.798872 35.131C0.798872 35.6356 0.720905 36.1263 0.625679 36.2215C0.530294 36.3169 0.412534 36.8345 0.363803 37.3719C0.315072 37.9094 0.213303 38.3491 0.137569 38.3491C0.0619961 38.3491 0 40.2903 0 42.663C0 45.0356 0.0618364 46.9769 0.137569 46.9769C0.213143 46.9769 0.319705 47.3539 0.374189 47.8147C0.428831 48.2755 0.546747 48.677 0.636221 48.7067C0.727132 48.7371 0.798872 49.2839 0.798872 49.946C0.798872 50.6295 0.866457 51.131 0.958647 51.131C1.04652 51.131 1.11842 51.4545 1.11842 51.85C1.11842 52.2454 1.19032 52.569 1.2782 52.569C1.36607 52.569 1.43797 52.7847 1.43797 53.0483C1.43797 53.3119 1.50987 53.5276 1.59774 53.5276C1.68562 53.5276 1.75752 53.9231 1.75752 54.4064C1.75752 54.8897 1.82942 55.2851 1.91729 55.2851C2.00517 55.2851 2.07707 55.5059 2.07707 55.7758C2.07707 56.2654 2.38032 56.7231 2.70482 56.7231C2.79893 56.7231 2.87594 56.9748 2.87594 57.2823C2.87594 57.5899 2.94784 57.8415 3.03571 57.8415C3.12359 57.8415 3.19549 58.0572 3.19549 58.3209C3.19549 58.5845 3.26739 58.8002 3.35526 58.8002C3.44314 58.8002 3.51504 59.036 3.51504 59.3241C3.51504 59.6647 3.62688 59.9287 3.83459 60.0784C4.01034 60.2051 4.15413 60.397 4.15413 60.5048C4.15413 60.6127 4.33388 60.895 4.55357 61.1321C4.77326 61.369 4.95301 61.7322 4.95301 61.9391C4.95301 62.146 5.02491 62.3152 5.11278 62.3152C5.20066 62.3152 5.27256 62.495 5.27256 62.7146C5.27256 62.9343 5.34445 63.1141 5.43233 63.1141C5.52021 63.1141 5.5921 63.2579 5.5921 63.4336C5.5921 63.6094 5.664 63.7532 5.75188 63.7532C5.83976 63.7532 5.91165 63.897 5.91165 64.0727C5.91165 64.2485 5.98355 64.3923 6.07143 64.3923C6.1593 64.3923 6.2312 64.5366 6.2312 64.7129C6.2312 64.8892 6.41095 65.1897 6.63064 65.3808C6.85033 65.5717 7.03007 65.879 7.03007 66.0635C7.03007 66.2479 7.17387 66.5024 7.34962 66.6291C7.52538 66.7558 7.66917 66.9514 7.66917 67.0639C7.66917 67.1762 7.7267 67.2682 7.79716 67.2682C7.86746 67.2682 8.08331 67.5942 8.27696 67.9923C8.47044 68.3906 8.7363 68.7578 8.86796 68.8083C8.99945 68.8588 9.10714 68.9663 9.10714 69.047C9.10714 69.1278 9.41279 69.5142 9.78618 69.9055C10.8581 71.0285 11.1842 71.4033 11.1842 71.5123C11.1842 71.6599 12.6485 73.0201 12.8074 73.0201C12.8813 73.0201 12.9417 73.0944 12.9417 73.1851C12.9417 73.4186 14.0087 74.4581 14.2482 74.4581C14.3575 74.4581 14.8918 74.9254 15.4355 75.4966C15.9794 76.0678 16.5034 76.5351 16.6002 76.5351C16.6971 76.5351 16.7763 76.607 16.7763 76.6949C16.7763 76.7828 16.8893 76.8547 17.0273 76.8547C17.1655 76.8547 17.3787 76.9446 17.5012 77.0544C18.0112 77.5118 18.2077 77.6536 18.332 77.6536C18.4043 77.6536 18.5669 77.7974 18.6936 77.9731C18.8203 78.1489 19.0518 78.2927 19.2082 78.2927C19.3645 78.2927 19.4925 78.3646 19.4925 78.4524C19.4925 78.5403 19.6029 78.6122 19.7377 78.6122C20.0292 78.6122 20.7464 79.0489 21.1089 79.4469C21.2514 79.6033 21.5919 79.7306 21.8678 79.7306C22.1431 79.7306 22.3684 79.8025 22.3684 79.8904C22.3684 79.9783 22.5122 80.0502 22.688 80.0502C22.8637 80.0502 23.0075 80.1221 23.0075 80.21C23.0075 80.2978 23.1836 80.3697 23.3986 80.3697C23.6139 80.3697 23.9839 80.5495 24.221 80.7692C24.4579 80.9889 24.7492 81.1686 24.8682 81.1686C24.9873 81.1686 25.0846 81.2405 25.0846 81.3284C25.0846 81.4162 25.2284 81.4881 25.4041 81.4881C25.5799 81.4881 25.7237 81.56 25.7237 81.6479C25.7237 81.7358 25.9753 81.8077 26.2829 81.8077C26.5905 81.8077 26.8421 81.8796 26.8421 81.9675C26.8421 82.0553 26.9859 82.1272 27.1617 82.1272C27.3374 82.1272 27.4812 82.1991 27.4812 82.287C27.4812 82.3749 27.6609 82.4468 27.8806 82.4468C28.1003 82.4468 28.2801 82.5187 28.2801 82.6066C28.2801 82.6944 28.393 82.7663 28.5311 82.7663C28.6693 82.7663 28.8901 82.8742 29.0219 83.006C29.1537 83.1378 29.4678 83.2457 29.72 83.2457C29.9722 83.2457 30.2229 83.3176 30.2773 83.4054C30.3316 83.4933 30.6233 83.5652 30.9258 83.5652C31.2282 83.5652 31.4756 83.6371 31.4756 83.725C31.4756 83.8129 31.7632 83.8848 32.1147 83.8848C32.4662 83.8848 32.7538 83.9567 32.7538 84.0445C32.7538 84.1324 33.1492 84.2043 33.6325 84.2043C34.1158 84.2043 34.5113 84.2762 34.5113 84.3641C34.5113 84.4531 34.9409 84.5239 35.4805 84.5239C36.0135 84.5239 36.5978 84.6033 36.7791 84.7002C37.3917 85.0281 38.8955 85.212 41.062 85.224C44.1118 85.2409 47.139 85.0195 47.5672 84.7482C47.7845 84.6105 48.3549 84.5239 49.0452 84.5239C49.6879 84.5239 50.1692 84.4555 50.1692 84.3641C50.1692 84.274 50.6218 84.2043 51.2077 84.2043C51.7936 84.2043 52.2462 84.1347 52.2462 84.0445C52.2462 83.9567 52.39 83.8848 52.5658 83.8848C52.7415 83.8848 52.8853 83.8129 52.8853 83.725C52.8853 83.6371 53.2808 83.5652 53.7641 83.5652C54.2474 83.5652 54.6429 83.4933 54.6429 83.4054C54.6429 83.3176 54.8138 83.2457 55.0228 83.2457C55.2316 83.2457 55.4921 83.1378 55.6015 83.006C55.7109 82.8742 56.0073 82.7663 56.2601 82.7663C56.513 82.7663 56.7199 82.6944 56.7199 82.6066C56.7199 82.5187 56.8637 82.4468 57.0395 82.4468C57.2152 82.4468 57.359 82.3749 57.359 82.287C57.359 82.1991 57.5388 82.1272 57.7585 82.1272C57.9781 82.1272 58.1579 82.0553 58.1579 81.9675C58.1579 81.8796 58.3333 81.8077 58.5479 81.8077C58.7625 81.8077 58.9823 81.7358 59.0366 81.6479C59.091 81.56 59.2779 81.4881 59.4522 81.4881C59.7721 81.4881 59.9349 81.3837 60.6349 80.7292C60.8463 80.5316 61.2224 80.3697 61.4707 80.3697C61.7386 80.3697 62.0155 80.24 62.1523 80.0502C62.3077 79.8346 62.5661 79.7306 62.9465 79.7305C63.4661 79.7303 63.6557 79.6247 64.662 78.7752C64.7681 78.6855 64.9858 78.6122 65.1459 78.6122C65.306 78.6122 65.5406 78.4684 65.6673 78.2927C65.794 78.1169 66.0255 77.9731 66.1819 77.9731C66.3382 77.9731 66.4662 77.9012 66.4662 77.8133C66.4662 77.7255 66.61 77.6536 66.7857 77.6536C66.9615 77.6536 67.1053 77.5817 67.1053 77.4938C67.1053 77.4059 67.2131 77.334 67.3449 77.334C67.4767 77.334 67.5846 77.2262 67.5846 77.0943C67.5846 76.9613 67.7266 76.8547 67.9041 76.8547C68.0799 76.8547 68.2237 76.7828 68.2237 76.6949C68.2237 76.607 68.2975 76.5351 68.3876 76.5351C68.4779 76.5351 68.8719 76.2296 69.2632 75.8561C70.3608 74.8085 70.7607 74.4581 70.8585 74.4581C70.9791 74.4581 72.3778 73.0541 72.3778 72.933C72.3778 72.7729 72.8234 72.381 73.0056 72.381C73.0997 72.381 73.1767 72.3091 73.1767 72.2212C73.1767 72.1333 73.3205 72.0614 73.4962 72.0614C73.6738 72.0614 73.8158 71.9549 73.8158 71.8218C73.8158 71.69 73.8877 71.5821 73.9756 71.5821C74.0634 71.5821 74.1353 71.4724 74.1353 71.3383C74.1353 71.2041 74.4589 70.7708 74.8543 70.3754C75.2498 69.9799 75.5733 69.5808 75.5733 69.4883C75.5733 69.3959 75.8609 69.0439 76.2124 68.7062C76.5639 68.3684 76.8515 68.0318 76.8515 67.9581C76.8515 67.8845 77.0313 67.6303 77.2509 67.3933C77.4706 67.1565 77.6504 66.8517 77.6504 66.716C77.6504 66.5804 77.7223 66.4693 77.8102 66.4693C77.898 66.4693 77.9699 66.3585 77.9699 66.223C77.9699 66.0875 78.1137 65.8223 78.2895 65.6337C78.4652 65.445 78.609 65.1637 78.609 65.0085C78.609 64.8534 78.7888 64.5466 79.0085 64.3269C79.2281 64.1072 79.4079 63.8163 79.4079 63.6805C79.4079 63.5447 79.4798 63.4336 79.5677 63.4336C79.6555 63.4336 79.7274 63.2539 79.7274 63.0342C79.7274 62.8145 79.7993 62.6348 79.8872 62.6348C79.9751 62.6348 80.047 62.491 80.047 62.3152C80.047 62.1395 80.1189 61.9957 80.2068 61.9957C80.2946 61.9957 80.3665 61.79 80.3665 61.5387C80.3665 61.2379 80.503 60.9793 80.766 60.7819C80.9857 60.6168 81.1654 60.3551 81.1654 60.2003C81.1654 60.0453 81.2373 59.9186 81.3252 59.9186C81.4131 59.9186 81.485 59.667 81.485 59.3594C81.485 59.0518 81.5569 58.8002 81.6447 58.8002C81.7326 58.8002 81.8045 58.6204 81.8045 58.4007C81.8045 58.181 81.8764 58.0013 81.9643 58.0013C82.0522 58.0013 82.1241 57.8216 82.1241 57.6019C82.1241 57.3822 82.196 57.2024 82.2838 57.2024C82.3717 57.2024 82.4436 57.0997 82.4436 56.9741C82.4436 56.8487 82.5585 56.6311 82.6988 56.4908C82.8392 56.3503 82.9159 56.1366 82.8696 56.0156C82.8231 55.8945 82.8857 55.6627 83.0087 55.5004C83.1318 55.338 83.2347 55.0793 83.2374 54.9256C83.2402 54.7719 83.3144 54.646 83.4023 54.646C83.4924 54.646 83.562 54.1934 83.562 53.6075C83.562 53.0216 83.6317 52.569 83.7218 52.569C83.8097 52.569 83.8816 52.3173 83.8816 52.0098C83.8816 51.7022 83.9535 51.4506 84.0414 51.4506C84.1292 51.4506 84.2011 51.0594 84.2011 50.5812C84.2011 50.103 84.273 49.6675 84.3609 49.6131C84.4488 49.5588 84.5207 49.0205 84.5207 48.4167C84.5207 47.6541 84.5938 47.2461 84.7603 47.0796C84.9617 46.8781 85 46.1396 85 42.4543C85 38.7509 84.9628 38.0377 84.7603 37.8697C84.5899 37.7282 84.5207 37.3538 84.5207 36.572C84.5207 35.9459 84.452 35.4731 84.3609 35.4731C84.2708 35.4731 84.2011 35.0205 84.2011 34.4346C84.2011 33.8487 84.1315 33.396 84.0414 33.396C83.9535 33.396 83.8816 33.1803 83.8816 32.9167C83.8816 32.6531 83.8097 32.4374 83.7218 32.4374C83.6339 32.4374 83.562 32.1139 83.562 31.7184C83.562 31.323 83.4901 30.9994 83.4023 30.9994C83.3144 30.9994 83.2425 30.7566 83.2425 30.4597C83.2425 30.163 83.133 29.8292 82.9992 29.7182C82.8587 29.6017 82.7958 29.3908 82.8502 29.2194C82.902 29.0559 82.8816 28.9224 82.8047 28.9224C82.6352 28.9224 82.1241 27.802 82.1241 27.4307C82.1241 27.2845 82.0522 27.1648 81.9643 27.1648C81.8764 27.1648 81.8045 26.9851 81.8045 26.7654C81.8045 26.5457 81.7326 26.366 81.6447 26.366C81.5569 26.366 81.485 26.1503 81.485 25.8866C81.485 25.623 81.4131 25.4073 81.3252 25.4073C81.2373 25.4073 81.1654 25.2897 81.1654 25.1461C81.1654 25.0023 80.9857 24.7182 80.766 24.5145C80.5413 24.3063 80.3665 23.9663 80.3665 23.7374C80.3665 23.5134 80.2946 23.3303 80.2068 23.3303C80.1189 23.3303 80.047 23.1865 80.047 23.0107C80.047 22.835 79.9751 22.6912 79.8872 22.6912C79.7993 22.6912 79.7274 22.4659 79.7274 22.1906C79.7274 21.9147 79.6001 21.5742 79.4437 21.4317C79.0653 21.087 78.609 20.3567 78.609 20.0958C78.609 19.9803 78.4652 19.7821 78.2895 19.6554C78.1137 19.5287 77.9699 19.2972 77.9699 19.1408C77.9699 18.9846 77.898 18.8566 77.8102 18.8566C77.7223 18.8566 77.6504 18.7487 77.6504 18.6169C77.6504 18.4851 77.5964 18.3765 77.5305 18.3755C77.4647 18.3744 77.2733 18.0868 77.1054 17.7364C76.9375 17.3859 76.7398 17.0991 76.666 17.0991C76.5924 17.0991 76.532 16.9553 76.532 16.7795C76.532 16.5665 76.4254 16.46 76.2124 16.46C76.0349 16.46 75.8929 16.3534 75.8929 16.2203C75.8929 16.0885 75.8297 15.9806 75.7524 15.9806C75.6752 15.9806 75.5227 15.7649 75.4135 15.5013C75.3044 15.2377 75.1159 15.022 74.9948 15.022C74.8735 15.022 74.7744 14.9616 74.7744 14.8876C74.7744 14.8138 74.4509 14.4107 74.0555 13.9921C73.66 13.5735 73.3365 13.1665 73.3365 13.0879C73.3365 13.0093 73.2544 12.9449 73.154 12.9449C72.8923 12.9449 72.0583 12.034 72.0583 11.7481C72.0583 11.6154 71.9442 11.507 71.8047 11.507C71.6654 11.507 71.1651 11.1115 70.6933 10.6282C70.2215 10.1449 69.7244 9.74943 69.5888 9.74943C69.4531 9.74943 69.3421 9.67754 69.3421 9.58966C69.3421 9.50178 69.239 9.42989 69.1131 9.42989C68.9872 9.42989 68.8387 9.28609 68.7829 9.11034C68.7271 8.93458 68.5785 8.79079 68.4526 8.79079C68.3267 8.79079 68.2237 8.68294 68.2237 8.55113C68.2237 8.41803 68.0816 8.31146 67.9041 8.31146C67.7284 8.31146 67.5846 8.23957 67.5846 8.15169C67.5846 8.06381 67.4767 7.99192 67.3449 7.99192C67.2131 7.99192 67.1053 7.92002 67.1053 7.83214C67.1053 7.74427 66.9773 7.67237 66.821 7.67237C66.6646 7.67237 66.4331 7.52857 66.3064 7.35282C66.1797 7.17707 65.9558 7.03327 65.8088 7.03327C65.6618 7.03327 65.499 6.92207 65.4468 6.7861C65.3947 6.65013 65.2611 6.55746 65.1501 6.57999C64.8897 6.63287 64.222 6.26683 63.8911 5.88976C63.7433 5.72136 63.4185 5.5953 63.1321 5.5953C62.8569 5.5953 62.6316 5.5234 62.6316 5.43553C62.6316 5.34765 62.4878 5.27575 62.312 5.27575C62.1363 5.27575 61.9925 5.20385 61.9925 5.11598C61.9925 5.0281 61.8094 4.9562 61.5854 4.9562C61.3564 4.9562 61.0164 4.78141 60.8082 4.55677C60.6045 4.33708 60.3204 4.15733 60.1766 4.15733C60.033 4.15733 59.9154 4.08543 59.9154 3.99756C59.9154 3.90968 59.7716 3.83778 59.5959 3.83778C59.4201 3.83778 59.2763 3.76588 59.2763 3.67801C59.2763 3.59013 59.0247 3.51823 58.7171 3.51823C58.4095 3.51823 58.1579 3.44633 58.1579 3.35846C58.1579 3.27058 58.0141 3.19868 57.8383 3.19868C57.6626 3.19868 57.5188 3.12679 57.5188 3.03891C57.5188 2.95103 57.3728 2.87913 57.1943 2.87913C57.0157 2.87913 56.8282 2.77129 56.7778 2.63947C56.7254 2.50287 56.487 2.39981 56.2235 2.39981C55.9693 2.39981 55.7613 2.32791 55.7613 2.24004C55.7613 2.15216 55.5815 2.08026 55.3618 2.08026C55.1422 2.08026 54.9624 2.00836 54.9624 1.92049C54.9624 1.83038 54.5098 1.76071 53.9239 1.76071C53.338 1.76071 52.8853 1.69105 52.8853 1.60094C52.8853 1.51306 52.7415 1.44117 52.5658 1.44117C52.39 1.44117 52.2462 1.36927 52.2462 1.28139C52.2462 1.19351 51.8832 1.12162 51.4394 1.12162C50.9957 1.12162 50.4167 1.00993 50.1527 0.873487C49.8172 0.699972 49.4654 0.656353 48.9833 0.728731C48.4965 0.801748 48.1493 0.757331 47.8015 0.577425C47.5263 0.435066 46.9221 0.322744 46.4319 0.322744C45.9494 0.322744 45.5101 0.250846 45.4558 0.16297C45.3216 -0.0543233 38.6654 -0.0543233 38.6654 0.16297ZM38.3459 11.9863C38.3459 12.0742 38.0532 12.1461 37.6954 12.1461C37.3302 12.1461 36.9397 12.2512 36.8052 12.3857C36.6733 12.5175 36.3952 12.6254 36.187 12.6254C35.9786 12.6254 35.7639 12.6973 35.7096 12.7851C35.6553 12.873 35.3635 12.9449 35.0611 12.9449C34.7586 12.9449 34.5113 13.0168 34.5113 13.1047C34.5113 13.1926 34.1877 13.2645 33.7923 13.2645C33.3968 13.2645 33.0733 13.3364 33.0733 13.4242C33.0733 13.5121 32.8576 13.584 32.594 13.584C32.3304 13.584 32.1147 13.6446 32.1147 13.7187C32.1147 13.7927 31.863 13.9887 31.5554 14.1544C31.2479 14.3201 30.9962 14.511 30.9962 14.5789C30.9962 14.6468 30.8515 14.7024 30.6745 14.7024C30.2944 14.7024 29.7446 14.9912 29.3814 15.3815C29.2384 15.5353 29.004 15.6611 28.8605 15.6611C28.7171 15.6611 28.5996 15.7266 28.5996 15.8068C28.5996 15.887 28.3146 16.0008 27.9663 16.0596C27.3502 16.1636 26.0432 17.1957 26.0432 17.5782C26.0432 17.6663 25.8275 17.7382 25.5639 17.7382C25.3003 17.7382 25.0846 17.8196 25.0846 17.9193C25.0846 18.1548 24.2681 18.8561 23.9936 18.8564C23.8769 18.8564 23.5174 19.1288 23.1948 19.4615C22.872 19.7941 22.3205 20.2787 21.969 20.5385C21.2642 21.0592 20.2914 22.0447 20.2914 22.2377C20.2914 22.3055 20.0397 22.6126 19.7321 22.9201C19.4246 23.2277 19.1729 23.5536 19.1729 23.6445C19.1729 23.7353 19.101 23.8096 19.0132 23.8096C18.9253 23.8096 18.8534 23.9015 18.8534 24.0138C18.8534 24.1261 18.7275 24.3304 18.5738 24.4682C18.4201 24.6059 18.1863 24.8823 18.0545 25.0825C17.9227 25.2827 17.7251 25.5404 17.6151 25.6551C17.5054 25.7699 17.4154 25.9121 17.4154 25.9708C17.4154 26.0298 17.2104 26.2695 16.9599 26.5035C16.4259 27.0022 15.9774 27.8111 15.9774 28.2753C15.9774 28.4555 15.9055 28.6028 15.8177 28.6028C15.7298 28.6028 15.6579 28.7202 15.6579 28.8637C15.6579 29.0072 15.532 29.2408 15.3783 29.383C15.0707 29.6672 13.5808 32.5659 13.5808 32.88C13.5808 32.9881 13.5089 33.0765 13.4211 33.0765C13.3332 33.0765 13.2613 33.3281 13.2613 33.6357C13.2613 33.9433 13.1894 34.1949 13.1015 34.1949C13.0136 34.1949 12.9417 34.5185 12.9417 34.9139C12.9417 35.3093 12.8698 35.6329 12.782 35.6329C12.6941 35.6329 12.6222 35.8486 12.6222 36.1122C12.6222 36.3758 12.5503 36.5915 12.4624 36.5915C12.3745 36.5915 12.3026 36.8021 12.3026 37.0595C12.3026 37.3167 12.1948 37.6352 12.063 37.767C11.8613 37.9686 11.8233 38.7181 11.8233 42.4918C11.8233 45.0872 11.8847 46.9769 11.969 46.9769C12.0492 46.9769 12.1606 47.2825 12.2165 47.6559C12.3653 48.6484 12.6732 49.693 12.8168 49.693C12.8855 49.693 12.9417 49.9447 12.9417 50.2522C12.9417 50.5598 13.0136 50.8115 13.1015 50.8115C13.1894 50.8115 13.2613 51.135 13.2613 51.5304C13.2613 51.9259 13.3332 52.2494 13.4211 52.2494C13.5089 52.2494 13.5808 52.3685 13.5808 52.514C13.5808 52.6594 13.7606 53.0141 13.9803 53.3022C14.2 53.5902 14.3797 53.9386 14.3797 54.0761C14.3797 54.2139 14.4516 54.3265 14.5395 54.3265C14.6273 54.3265 14.6992 54.5422 14.6992 54.8058C14.6992 55.0694 14.7711 55.2851 14.859 55.2851C14.9469 55.2851 15.0188 55.3772 15.0188 55.4895C15.0188 55.602 15.1626 55.7975 15.3383 55.9242C15.5141 56.0509 15.6579 56.2825 15.6579 56.4389C15.6579 56.5951 15.7234 56.7231 15.8036 56.7231C15.8838 56.7231 15.9974 57.0077 16.0562 57.3555C16.1278 57.7792 16.2642 58.0202 16.4697 58.0853C16.6383 58.1389 16.7763 58.2927 16.7763 58.4273C16.7763 58.5618 16.992 58.8735 17.2556 59.1197C17.5193 59.3659 17.735 59.6441 17.735 59.7377C17.735 59.8314 17.9866 60.1595 18.2942 60.4671C18.6017 60.7747 18.8534 61.139 18.8534 61.2767C18.8534 61.5192 19.8517 62.6348 20.0686 62.6348C20.2292 62.6348 20.6 63.1636 20.6058 63.4009C20.612 63.6506 21.3277 64.3923 21.5624 64.3923C21.6542 64.3923 21.7293 64.4642 21.7293 64.5521C21.7293 64.6399 21.809 64.7118 21.9063 64.7118C22.0037 64.7118 22.4664 65.1073 22.9345 65.5906C23.4026 66.0739 23.8622 66.4693 23.9558 66.4693C24.0494 66.4693 24.1259 66.5412 24.1259 66.6291C24.1259 66.717 24.2539 66.7889 24.4102 66.7889C24.5666 66.7889 24.7981 66.9327 24.9248 67.1084C25.0515 67.2842 25.2447 67.428 25.3541 67.428C25.4637 67.428 25.8048 67.6796 26.1124 67.9872C26.42 68.2948 26.7819 68.5464 26.9167 68.5464C27.0514 68.5464 27.1617 68.6124 27.1617 68.6929C27.1617 68.7736 27.4852 68.9631 27.8806 69.1141C28.2761 69.2651 28.5996 69.4509 28.5996 69.5268C28.5996 69.6027 28.7276 69.6648 28.8839 69.6648C29.0403 69.6648 29.2718 69.8086 29.3985 69.9844C29.5252 70.1601 29.7927 70.3039 29.993 70.3039C30.1932 70.3039 30.3571 70.3758 30.3571 70.4637C30.3571 70.5516 30.5009 70.6235 30.6767 70.6235C30.8524 70.6235 30.9962 70.6954 30.9962 70.7833C30.9962 70.8711 31.0967 70.943 31.2196 70.943C31.3425 70.943 31.7558 71.122 32.1383 71.3406C32.5208 71.5591 32.9595 71.7389 33.1133 71.74C33.267 71.7411 33.3929 71.8138 33.3929 71.9017C33.3929 71.9896 33.7164 72.0614 34.1118 72.0614C34.5073 72.0614 34.8308 72.1333 34.8308 72.2212C34.8308 72.3091 35.0465 72.381 35.3101 72.381C35.5738 72.381 35.7895 72.4529 35.7895 72.5408C35.7895 72.6286 36.0411 72.7005 36.3487 72.7005C36.6562 72.7005 36.9079 72.7724 36.9079 72.8603C36.9079 72.9482 37.1507 73.0201 37.4476 73.0201C37.7443 73.0201 38.0766 73.1279 38.1861 73.2598C38.3503 73.4577 38.9239 73.4994 41.481 73.4994C43.4385 73.4994 44.5771 73.5582 44.5771 73.6592C44.5771 73.7471 44.7209 73.819 44.8966 73.819C45.0724 73.819 45.2162 73.7471 45.2162 73.6592C45.2162 73.5702 45.6589 73.4972 46.2148 73.4943C46.8384 73.4911 47.3298 73.4012 47.5235 73.2546C47.6941 73.1257 47.9648 73.0201 48.1252 73.0201C48.5511 73.0201 49.6898 72.643 49.6898 72.5019C49.6898 72.4353 49.9415 72.381 50.2491 72.381C50.5566 72.381 50.8083 72.3091 50.8083 72.2212C50.8083 72.1333 51.1318 72.0614 51.5273 72.0614C51.9227 72.0614 52.2462 71.9896 52.2462 71.9017C52.2462 71.8138 52.4293 71.7419 52.6533 71.7419C52.8823 71.7419 53.2223 71.5671 53.4305 71.3425C53.6449 71.1111 53.9779 70.943 54.2218 70.943C54.4534 70.943 54.6429 70.8711 54.6429 70.7833C54.6429 70.6954 54.7867 70.6235 54.9624 70.6235C55.1382 70.6235 55.282 70.5516 55.282 70.4637C55.282 70.3758 55.3898 70.3039 55.5216 70.3039C55.6534 70.3039 55.7613 70.232 55.7613 70.1442C55.7613 70.0563 55.9051 69.9844 56.0808 69.9844C56.2566 69.9844 56.4008 69.9305 56.4013 69.8646C56.4031 69.6613 57.363 69.1855 57.7714 69.1855C58.0513 69.1855 58.1579 69.0975 58.1579 68.866C58.1579 68.6877 58.2645 68.5464 58.399 68.5464C58.5316 68.5464 58.8658 68.3307 59.1416 68.0671C59.4175 67.8035 59.7435 67.5878 59.866 67.5878C60.0944 67.5878 60.2843 67.4553 60.9544 66.8288C61.1658 66.6312 61.3852 66.4693 61.4419 66.4693C61.5905 66.4693 62.9511 65.006 62.9511 64.8462C62.9511 64.7722 63.059 64.7118 63.1908 64.7118C63.3226 64.7118 63.4304 64.6399 63.4304 64.5521C63.4304 64.4642 63.5742 64.3923 63.75 64.3923C63.9564 64.3923 64.0695 64.2857 64.0695 64.0914C64.0695 63.9248 64.2122 63.7532 64.3891 63.7068C64.5803 63.6568 64.7086 63.4889 64.7086 63.2889C64.7086 63.1048 64.7829 62.9543 64.8737 62.9543C65.0443 62.9543 66.1466 61.9166 66.1466 61.756C66.1466 61.7062 66.3802 61.4202 66.6659 61.1203C67.4635 60.2829 67.5846 60.1127 67.5846 59.8296C67.5846 59.6855 67.8003 59.3659 68.0639 59.1197C68.3275 58.8735 68.5432 58.5853 68.5432 58.4795C68.5432 58.3736 68.723 58.1456 68.9427 57.9727C69.2063 57.7655 69.3421 57.4995 69.3421 57.1908C69.3421 56.9335 69.414 56.7231 69.5019 56.7231C69.5898 56.7231 69.6617 56.5951 69.6617 56.4389C69.6617 56.2825 69.8055 56.0509 69.9812 55.9242C70.157 55.7975 70.3008 55.602 70.3008 55.4895C70.3008 55.3772 70.3727 55.2851 70.4605 55.2851C70.5484 55.2851 70.6203 55.0771 70.6203 54.8229C70.6203 54.5618 70.7234 54.3211 70.8573 54.2698C70.9915 54.2183 71.0536 54.0728 71.0004 53.9344C70.9456 53.7917 71.0132 53.6492 71.1629 53.5917C71.3038 53.5377 71.4192 53.3573 71.4192 53.191C71.4192 53.0247 71.4911 52.8885 71.5789 52.8885C71.6668 52.8885 71.7387 52.6728 71.7387 52.4092C71.7387 52.1456 71.8106 51.9299 71.8985 51.9299C71.9864 51.9299 72.0583 51.6782 72.0583 51.3707C72.0583 51.0631 72.1302 50.8115 72.218 50.8115C72.3059 50.8115 72.3778 50.5598 72.3778 50.2522C72.3778 49.9447 72.4497 49.693 72.5376 49.693C72.6255 49.693 72.6974 49.5085 72.6974 49.2831C72.6974 49.0576 72.7798 48.7192 72.8805 48.531C72.9811 48.3428 73.0789 47.9376 73.0975 47.6303C73.1161 47.3233 73.2134 47.0444 73.3138 47.0111C73.4446 46.9674 73.4962 45.7078 73.4962 42.5583C73.4962 38.8675 73.4581 38.1282 73.2566 37.9268C73.1248 37.795 73.0169 37.4406 73.0169 37.1394C73.0169 36.8381 72.945 36.5915 72.8571 36.5915C72.7693 36.5915 72.6974 36.4118 72.6974 36.1921C72.6974 35.9724 72.6255 35.7927 72.5376 35.7927C72.4497 35.7927 72.3778 35.5051 72.3778 35.1536C72.3778 34.8021 72.3059 34.5145 72.218 34.5145C72.1302 34.5145 72.0583 34.1909 72.0583 33.7955C72.0583 33.4 71.9864 33.0765 71.8985 33.0765C71.8106 33.0765 71.7387 32.8608 71.7387 32.5972C71.7387 32.3335 71.6782 32.1178 71.604 32.1178C71.5301 32.1178 71.334 31.8662 71.1683 31.5586C71.0027 31.2511 70.8117 30.9994 70.7438 30.9994C70.6759 30.9994 70.6203 30.8197 70.6203 30.6C70.6203 30.3803 70.5484 30.2006 70.4605 30.2006C70.3727 30.2006 70.3008 30.0726 70.3008 29.9163C70.3008 29.7599 70.157 29.5284 69.9812 29.4017C69.8055 29.275 69.6617 29.0435 69.6617 28.8871C69.6617 28.7308 69.5898 28.6028 69.5019 28.6028C69.414 28.6028 69.3421 28.3531 69.3421 28.0478C69.3421 27.6031 69.1993 27.35 68.6231 26.7739C68.2277 26.3784 67.9041 25.9811 67.9041 25.8908C67.9041 25.8007 67.8322 25.7269 67.7444 25.7269C67.6565 25.7269 67.5846 25.5831 67.5846 25.4073C67.5846 25.2316 67.5175 25.0878 67.4355 25.0878C67.3536 25.0878 67.2408 24.9432 67.1847 24.7666C67.1286 24.5899 66.5486 23.9096 65.8956 23.2545C65.2428 22.5996 64.7086 21.9867 64.7086 21.8928C64.7086 21.6638 63.7677 20.7596 63.182 20.4257C62.9232 20.2782 62.6885 20.0087 62.6603 19.8266C62.6324 19.6446 62.5063 19.4957 62.3802 19.4957C62.2542 19.4957 61.8098 19.1726 61.3927 18.7776C60.9757 18.3827 60.5604 18.0591 60.47 18.0587C60.3796 18.0582 60.2019 17.9139 60.0752 17.7382C59.9485 17.5624 59.7146 17.4186 59.5553 17.4186C59.2483 17.4186 58.1579 16.4253 58.1579 16.1457C58.1579 16.0549 57.9062 15.9806 57.5987 15.9806C57.2911 15.9806 57.0395 15.9087 57.0395 15.8209C57.0395 15.733 56.8957 15.6611 56.7199 15.6611C56.5442 15.6611 56.4004 15.5892 56.4004 15.5013C56.4004 15.4134 56.2566 15.3415 56.0808 15.3415C55.9051 15.3415 55.7613 15.2818 55.7613 15.2088C55.7613 15.0709 55.5087 14.9351 54.3632 14.4577C53.9899 14.3019 53.6842 14.1137 53.6842 14.0391C53.6842 13.9646 53.5764 13.9036 53.4445 13.9036C53.3127 13.9036 53.2049 13.8317 53.2049 13.7438C53.2049 13.6559 53.0611 13.584 52.8853 13.584C52.7096 13.584 52.5658 13.5121 52.5658 13.4242C52.5658 13.3364 52.1703 13.2645 51.687 13.2645C51.2037 13.2645 50.8083 13.1926 50.8083 13.1047C50.8083 13.0168 50.5969 12.9449 50.3384 12.9449C50.0799 12.9449 49.8274 12.8786 49.7774 12.7975C49.7272 12.7163 49.4713 12.6027 49.2088 12.545C48.9461 12.4873 48.7312 12.374 48.7312 12.2932C48.7312 12.2122 48.4796 12.1461 48.172 12.1461C47.8644 12.1461 47.6128 12.0742 47.6128 11.9863C47.6128 11.8834 45.9618 11.8265 42.9793 11.8265C39.9968 11.8265 38.3459 11.8834 38.3459 11.9863Z" fill="#EE6845"/>
</svg>
