<svg width="86" height="87" viewBox="0 0 86 87" fill="none" xmlns="http://www.w3.org/2000/svg">
<path fill-rule="evenodd" clip-rule="evenodd" d="M55.4452 10.8262C54.0814 10.1042 51.4304 8.81801 50.9784 8.65879C49.5659 8.16148 46.8291 8.70342 45.1031 9.82238C43.9233 10.5871 42.4083 12.3276 42.1272 13.2413C42.0119 13.616 41.9199 14.646 41.9225 15.5303C41.9317 18.5634 41.5586 21.1148 39.9596 28.9551C39.6914 30.2696 39.3093 32.4279 39.1105 33.7517C38.871 35.3454 38.6122 36.3179 38.3441 36.6318C37.9861 37.0508 36.405 37.2255 24.674 38.1416C10.2441 39.2687 9.21705 39.439 7.95667 40.9143C6.76217 42.3125 6.51951 45.348 7.42071 47.6158C7.80954 48.5945 8.01282 48.839 9.47469 50.0879C10.997 51.3884 11.1809 51.4931 12.4533 51.7847C14.6994 52.2992 24.3713 51.9997 31.3879 51.198C33.3343 50.9756 35.0832 50.8995 35.3379 51.0259C35.6852 51.1986 35.8079 51.4491 35.8488 52.0696C35.8784 52.5189 35.3308 57.3893 34.6318 62.893C33.316 73.2543 33.2309 74.4217 33.6282 76.6715C33.9634 78.5693 34.5229 79.7168 35.5384 80.589C37.6832 82.4311 41.5452 81.8313 43.6945 79.3221C44.5135 78.3663 44.6607 78.0575 44.9737 76.6415C45.1682 75.7615 45.4184 73.4493 45.53 71.5037C45.8783 65.4218 46.6625 59.5868 48.059 52.6885C48.5865 50.0817 48.9038 48.988 49.2494 48.5834C49.6422 48.1236 50.1793 47.9423 52.4798 47.4927C56.1699 46.7717 56.3681 46.7552 66.4026 46.3386C71.2036 46.1392 75.4251 45.9403 75.7835 45.8963C77.9303 45.6338 78.9813 43.6618 78.294 41.1862C77.7259 39.1402 75.3104 36.6735 73.1013 35.8838C71.3134 35.2446 67.347 35.1969 64.8105 35.7843C62.4317 36.3352 60.2249 36.5128 55.583 36.5271C51.9802 36.538 51.5111 36.3844 51.6134 35.2278C51.677 34.5092 54.0308 25.7484 56.007 18.876C56.6348 16.6926 57.1901 14.4998 57.241 14.0031C57.3733 12.7123 56.6752 11.4774 55.4452 10.8262Z" fill="black"/>
</svg>
