<svg width="14" height="15" viewBox="0 0 14 15" fill="none" xmlns="http://www.w3.org/2000/svg">
<path d="M1.07456 4.46911C0.883073 4.46911 0.505316 5.33927 0 5.96774C0.702123 7.25261 3.04263 8.17596 3.86709 8.54839L0.356481 10.4745L1.31294 11.6755C2.62498 11.2816 4.0168 10.0266 4.49552 9.67742L3.30859 14.1056L4.99502 15C5.56948 13.3241 6.28729 10.6085 6.26069 9.67742C8.11174 10.1802 10.7173 10.4745 11.4885 10.4745L14 8.86839C10.4894 9.09184 7.85101 8.25237 7.15953 7.90323C8.56377 6.84181 10.5438 6.61126 11.1555 6.77419L13.0426 5.44672C10.1064 4.7205 7.29792 5.98209 6.26069 6.70366C6.13304 3.57529 4.61177 0.931064 3.86709 0C2.97348 0.614502 2.99008 1.37849 2.83051 1.77419C4.1071 3.78529 4.6019 6.14573 4.49552 6.77419C2.26149 5.93624 1.31392 4.46911 1.07456 4.46911Z" fill="white"/>
</svg>
