<svg width="15" height="16" viewBox="0 0 15 16" fill="none" xmlns="http://www.w3.org/2000/svg">
<path d="M1.79409 4.65455C1.59844 4.65455 0.516915 5.96364 0.000610352 6.61818C0.718002 7.95636 2.58213 9.06667 3.42452 9.45455L1.06039 10.9091L2.03865 12C3.66909 11.4909 4.56583 10.8364 5.05496 10.4727L4.0767 14.6909L6.68539 16C7.27235 14.2545 7.36474 11.8788 7.33757 10.9091C9.22887 11.4327 11.2778 11.5636 12.0658 11.5636L15.0006 9.23636C11.4137 9.46909 9.10387 8.8 8.39735 8.43636C9.83213 7.33091 11.4408 7.39394 12.0658 7.56364L14.0223 5.67273C11.0223 4.91636 8.15278 6.2303 7.093 6.98182C6.96257 3.72364 5.40822 0.969697 4.64735 0C3.73431 0.64 3.17996 1.62424 3.01691 2.03636C4.32126 4.13091 4.42996 5.96364 4.32126 6.61818C2.03865 5.74545 2.03865 4.65455 1.79409 4.65455Z" fill="black"/>
</svg>
