<svg width="89" height="101" viewBox="0 0 89 101" fill="none" xmlns="http://www.w3.org/2000/svg">
<path fill-rule="evenodd" clip-rule="evenodd" d="M62.1266 0.384131C60.4951 1.24915 60.7481 0.878147 55.2669 10.4445C52.0479 16.0625 50.7248 17.9778 46.8594 22.6146C40.6021 30.121 33.2392 35.4563 25.6554 37.9793C21.262 39.4408 20.3746 39.5458 11.0062 39.7121C2.79128 39.858 2.33429 39.8904 1.68994 40.3748C0.370796 41.3665 0 42.1219 0 43.8176C0 45.5721 0.411803 46.3603 1.83924 47.3374C2.60883 47.8643 2.89417 47.894 7.34175 47.908C17.7618 47.9406 20.5892 48.3539 23.0291 50.2005C25.7737 52.2779 26.1173 56.5353 24.0528 62.8866C22.69 67.0798 21.9612 68.4865 13.9092 82.4667L6.15176 95.9363L6.14538 97.4184C6.13507 99.8242 7.39847 101 9.99453 101C11.6268 101 12.9889 100.199 13.9237 98.691C14.2732 98.1268 16.6892 93.9417 19.2927 89.3906C30.1199 70.4631 29.6909 71.1555 33.4921 66.486C40.3347 58.0803 47.9912 52.3337 55.7421 49.786C60.3377 48.2756 59.8979 48.3156 73.5452 48.1605C85.6103 48.0234 86.2298 47.994 87.0252 47.5227C88.3733 46.7239 88.857 45.8668 88.9705 44.0745C89.053 42.7675 88.9779 42.3328 88.5479 41.6328C87.419 39.7955 88.0325 39.881 74.8957 39.7301C63.6164 39.6006 63.0394 39.5715 61.4926 39.0538C59.7145 38.4585 58.1289 37.4838 57.3881 36.5308C55.6421 34.2845 55.7212 30.0441 57.6159 24.3039C58.6856 21.0637 60.0219 18.3938 64.1066 11.336C67.6198 5.26551 67.7524 4.98639 67.7632 3.63501C67.7762 2.00574 67.2537 1.0928 65.9154 0.406361C64.8769 -0.126436 63.1089 -0.136809 62.1266 0.384131Z" fill="#4AAFEE"/>
</svg>
