<svg width="439" height="400" viewBox="0 0 439 400" fill="none" xmlns="http://www.w3.org/2000/svg">
<path d="M206.236 106.144C209.602 106.144 211.706 114.98 211.285 115.4C203.291 123.395 208.761 184.407 200.345 193.243C182.673 210.494 168.367 213.019 168.367 210.494C168.367 205.445 175.099 199.554 175.099 121.291H126.711C127.131 146.117 123.765 211.336 123.765 383.431C123.765 396.896 123.765 399.42 120.82 399.42H93.4698C84.2129 399.42 90.9452 399.42 90.9452 155.374C90.9452 139.805 90.5244 128.865 90.1036 121.291H39.6112C34.1412 121.291 54.3382 218.489 49.289 223.538C43.8189 229.008 13.5235 233.637 11.8404 231.954C10.5781 230.691 16.4689 220.172 16.4689 187.773C16.4689 155.794 0.900391 131.39 0.900391 128.865C0.900391 125.92 25.3051 106.144 32.0374 106.144H93.4698C124.186 106.144 117.874 106.144 120.399 106.144H206.236Z" fill="white"/>
<path d="M377.361 383.431C377.361 396.896 377.782 398.999 374.416 398.999H347.066C338.23 398.999 344.121 398.999 344.541 189.877C318.874 228.167 268.382 271.927 268.382 314.425C268.382 335.463 267.961 358.185 267.961 383.431C267.961 396.896 268.382 398.999 265.437 398.999H237.666C228.409 398.999 235.141 398.999 235.141 155.374C235.141 114.138 232.616 106.144 238.086 106.144H265.016C273.852 106.144 270.907 106.985 268.803 242.894C295.732 213.861 344.045 172.206 344.045 126.762L344.045 126.752C344.035 126.505 344.025 126.254 344.016 126C343.87 122.087 343.787 117.36 343.773 111.622C343.716 87.0052 345.423 83.6452 344.605 82.8276C343.993 82.2152 342.005 81.5104 338.718 80.7406C335.988 80.1013 331.546 78.9383 328.846 78.156C312.743 73.491 307.479 72.28 301.15 71.7846C299.305 71.6399 297.171 71.2732 296.408 70.9692C294.546 70.228 291.154 66.7735 289.745 64.1835C287.684 60.3945 286.986 54.5957 288.246 51.7348C288.65 50.8193 291.752 45.5098 293.474 42.7884C295.026 40.3342 297.713 39.0881 300.385 39.5829C301.413 39.7734 305.9 41.3036 310.355 42.9831C324.38 48.2703 342.284 54.6654 343.773 54.92C346.17 55.3295 346.564 54.3773 347.111 46.863C347.815 37.1812 347.793 32.5493 347.02 27.4955C346.195 22.1067 346.921 13.844 348.537 10.2244C350.534 5.75203 356.061 1.13384 360.419 0.296465C365.692 -0.716625 369.64 1.80955 369.849 6.33078C369.884 7.08547 369.632 15.9219 369.289 25.967C368.572 46.9616 368.575 47.3777 369.496 55.1947C370.071 60.0681 370.364 61.2189 371.261 62.1161C372.051 62.9053 374.282 63.7525 379.637 65.295C393.807 69.3777 405.856 72.0032 418.488 73.7616C422.529 74.3246 427.313 75.2387 429.118 75.7936C432.023 76.6865 432.644 77.046 434.508 78.9161C439.403 83.8235 440.044 91.9786 435.862 96.1381C433.882 98.1078 431.4 99.0797 427.388 99.4565C422.632 99.9032 420.21 99.5275 398.803 95.0253C387.432 92.6338 378.689 90.6231 377.747 90.6087C376.395 90.6087 376.81 90.815 376.395 91.5098C376.186 91.8609 377.73 100.907 378.762 107.838C383.048 115.42 377.361 156.88 377.361 383.431Z" fill="white"/>
</svg>
