<svg width="393" height="852" viewBox="0 0 393 852" fill="none" xmlns="http://www.w3.org/2000/svg">
<g clip-path="url(#clip0_948_255)">
<path fill-rule="evenodd" clip-rule="evenodd" d="M-321.007 389.511C-325.214 409.873 -331.871 449.017 -332.225 455.467C-333.33 475.623 -315.911 509.072 -294.829 527.272C-280.42 539.715 -252.064 552.867 -239.127 553.107C-233.823 553.206 -220.092 550.563 -208.615 547.237C-169.246 535.823 -134.686 531.157 -26.7658 522.685C-8.67214 521.266 20.8157 518.181 38.7666 515.828C60.3793 512.997 73.9956 512.731 79.0892 515.036C85.8907 518.115 83.2268 542.303 139.613 690.914C208.976 873.716 226.013 882.042 249.958 892.882C272.653 903.155 313.007 894.997 339.051 874.874C350.291 866.191 352.697 862.646 363.378 839.051C374.5 814.481 405.812 814.847 404.774 797.273C402.941 766.25 400.875 717.237 363.852 629.293C353.582 604.899 290.26 498.898 290.937 495.127C291.863 489.984 288.886 489.682 297.052 486.606C302.776 484.548 360.182 476.793 434.332 465.358C573.927 443.828 589.417 440.584 617.137 427.059C640.521 415.648 653.308 404.125 660.787 387.717C676.586 353.063 654.148 305.248 613.4 286.739C597.876 279.685 593.306 278.926 573.724 280.143C561.554 280.899 530.568 286.266 504.868 292.064C424.537 310.198 345.759 321.762 250.846 329.352C214.98 332.222 199.568 332.183 193.002 329.211C185.538 325.832 181.146 319.547 166.582 291.408C143.221 246.273 142.256 243.766 98.7909 115.28C77.995 53.8056 59.4023 -0.160339 57.4716 -4.64026C45.92 -31.4842 16.3156 -37.7606 -13.2387 -19.6354C-37.6649 -4.65476 -60.5497 35.8325 -62.4324 67.4008C-63.9566 92.9501 -49.5352 144.529 -32.2846 175.212C-16.1076 203.987 -5.43193 231.925 12.3565 292.026C26.1605 338.674 25.9447 345.325 10.5315 348.306C0.954063 350.158 -121.785 352.276 -218.56 352.256C-249.305 352.251 -279.899 353.219 -286.545 354.409C-303.815 357.502 -317.212 371.147 -321.007 389.511Z" fill="#131313" fill-opacity="0.08"/>
</g>
<defs>
<clipPath id="clip0_948_255">
<rect width="393" height="852" fill="white"/>
</clipPath>
</defs>
</svg>
