<svg width="52" height="52" viewBox="0 0 52 52" fill="none" xmlns="http://www.w3.org/2000/svg">
<ellipse cx="25.6269" cy="25.7743" rx="25.6269" ry="25.5682" fill="#964445"/>
<path fill-rule="evenodd" clip-rule="evenodd" d="M23.3373 20.0154C13.561 23.9728 11.8984 25.7004 16.3082 27.3151C17.7374 27.839 19.2331 29.4311 19.8208 31.0534C20.8429 33.8785 22.9019 34.7606 24.1027 32.8891C24.5225 32.2336 25.5612 32.417 27.1672 33.4308C28.5037 34.2735 30.1526 34.7587 30.8311 34.5076C32.2115 33.997 35.7378 18.4016 34.8025 16.943C33.9942 15.6828 34.1299 15.6471 23.3373 20.0154ZM24.088 21.6593C16.1715 24.9217 15.5799 25.3346 17.9942 25.9176C19.7661 26.3465 21.4863 26.054 23.1 25.0496C30.6329 20.3624 30.9551 20.3211 26.7542 24.5756C22.6187 28.7653 21.3594 31.4606 23.9904 30.4882C24.7529 30.206 26.473 30.6678 27.8144 31.5142L30.2521 33.0537L31.3914 27.5888C32.0182 24.5841 32.7611 21.1731 33.0433 20.0088C33.3254 18.8446 33.3986 17.9276 33.2053 17.97C33.013 18.0123 28.9108 19.6722 24.088 21.6593Z" fill="#FEFEFE"/>
</svg>
