<svg width="119" height="40" viewBox="0 0 119 40" fill="none" xmlns="http://www.w3.org/2000/svg">
<path d="M14.9255 19.3002C14.9255 34.0296 15.6269 38.7331 15.6269 38.9806C15.6269 39.2282 15.2969 39.4345 15.1731 39.4345H1.35144C0.44375 39.4345 1.10389 39.4345 1.10389 15.5457C1.10389 11.5023 0.856337 10.7184 1.3927 10.7184H8.24163C11.7074 10.7184 12.3262 10.5121 14.4717 10.5121C14.8018 10.5121 15.2969 11.9975 14.5542 11.9975C14.0591 11.9975 9.68569 14.1016 6.63255 17.1548C6.55003 17.196 6.50877 17.2786 6.42625 17.3611C8.36541 16.4121 10.6346 15.7932 11.4598 15.7932C14.1829 15.7932 14.9255 17.0723 14.9255 19.3002ZM4.61087 12.5338C4.61087 13.4828 4.61087 14.9268 4.52836 17.1548C8.0766 13.8954 10.5934 12.2863 10.6759 12.2037C10.8409 12.0387 6.50877 12.5338 4.61087 12.5338ZM11.6248 37.0415C11.6248 36.0512 11.5836 34.731 11.5836 32.8743C11.5836 21.1156 12.1612 18.145 8.90177 18.145C6.92136 18.145 4.4871 20.3317 4.4871 21.1569C4.40458 24.9114 4.36332 30.0275 4.32206 37.0415H11.6248Z" fill="white"/>
<path d="M31.9831 15.0506C31.9831 15.9583 32.5194 15.917 32.5194 15.9583C32.5194 16.3709 28.6411 18.7226 28.6411 18.31C28.6411 16.1233 30.0439 13.8953 30.0439 13.5653C30.0439 13.5653 28.3936 12.2037 25.588 12.2037C22.7411 12.2037 21.1321 12.8226 21.1321 12.9877C21.1321 15.3394 21.7922 18.3925 22.6174 21.7758C24.3502 20.7443 26.9083 19.5478 28.7237 19.5478C29.7139 19.5478 30.2915 22.5597 30.8691 22.5597C31.4055 22.5597 31.7768 22.3534 31.7768 22.4359C31.7768 22.9723 28.9299 25.0352 28.3936 25.0352C27.816 25.0352 26.8258 21.9408 25.3817 21.9408C24.7216 21.9408 23.7314 22.3946 22.8649 22.8897C23.8551 26.8506 25.0104 31.1002 25.5467 35.0198C26.4132 31.8429 27.816 29.8212 27.816 28.3359C27.816 27.552 27.3621 27.3044 27.3621 27.0569C27.3621 26.768 31.1579 26.8506 31.1579 27.0981C31.1579 29.6149 27.3209 33.6582 27.3209 38.9806C27.3209 39.3107 27.0733 39.4757 26.8258 39.4757H23.2363C22.7411 39.4757 22.7411 39.1044 22.7411 38.9806C22.7411 38.8568 22.9474 37.6191 22.9474 36.5876C22.9474 32.8331 17.7489 20.1254 17.7489 14.5142C17.7489 14.0191 21.2558 10.1821 26.5782 10.1821C31.9418 10.1821 33.4271 12.0387 33.4271 12.2037C33.4271 12.3688 31.9831 14.2254 31.9831 15.0506Z" fill="white"/>
<path d="M57.5747 23.2611C57.9873 23.6736 55.8831 30.0275 55.8831 36.6289C55.8831 38.1554 56.5433 39.0219 56.5433 39.3107C56.5433 39.3932 56.502 39.4345 56.4195 39.4345H52.4587C52.2936 39.4345 52.1698 39.3107 52.1698 39.2282C52.1698 29.2848 54.1915 25.4478 53.8202 25.1177C53.4901 24.7464 41.195 26.4792 38.9671 26.4792C38.637 26.4792 39.7097 32.4205 39.7097 38.9394C39.7097 39.1456 39.586 39.4345 39.2971 39.4345H36.2853C36.1202 39.4345 35.6664 39.4345 35.6664 39.0631C35.6664 38.6505 36.1202 36.9589 36.1202 31.1827C36.1202 26.8093 34.9237 25.9429 34.7174 25.7366C34.5111 25.5303 36.6153 23.9625 37.3993 23.9625C38.0594 23.9625 38.6783 23.9625 39.2971 23.9625C39.6272 22.6422 42.2265 18.2688 44.0006 18.2688H50.437C50.5608 15.8758 51.6747 13.359 51.6747 12.9877C51.6747 12.5751 40.6587 12.7401 40.4936 12.7401C40.3286 12.7401 41.2776 13.6478 41.2776 15.2569C41.2776 15.587 38.3482 17.6499 37.6468 17.6499C37.4405 17.6499 37.9769 17.1135 37.9769 15.917C37.9769 13.6891 35.3363 10.966 35.5839 10.7184C35.8314 10.5121 54.8104 10.7184 55.2642 10.7184C55.7181 10.7184 53.5726 14.0191 53.5726 17.196C53.5726 19.8779 54.3153 22.5184 54.5628 23.3023C56.4195 23.1785 57.4097 23.096 57.5747 23.2611ZM42.3503 23.8799C45.816 23.7974 48.7041 23.6736 51.0146 23.5086C50.8496 22.8072 50.6433 21.6932 50.5195 20.538C49.0342 20.373 46.6412 20.2079 43.3405 20.2079C43.1342 20.2079 42.4741 21.982 42.3503 23.8799Z" fill="white"/>
<path d="M72.5806 11.0485C72.5806 19.6716 76.2939 32.5443 76.2939 39.0219C76.2939 39.1869 76.2114 39.4345 75.9226 39.4345H72.7869C72.4981 39.4345 72.4569 39.1456 72.4569 38.9806C72.4569 38.9394 72.4981 38.8568 72.4981 38.6918C72.4981 37.3715 72.4156 35.9687 72.2918 34.5659C71.8792 32.7918 70.9715 31.1827 68.8261 31.1827C66.3918 31.1827 64.7827 31.8016 63.8338 32.3792C63.545 33.4932 63.38 34.6072 63.38 35.7212C63.38 38.0729 63.9988 39.4345 63.6688 39.4345H60.2856C60.1618 39.4345 59.9967 39.3519 59.9967 37.289C59.9967 28.7072 68.4135 22.5184 68.8673 12.6576C67.4646 12.5751 63.9163 12.4926 63.9163 12.7401C63.9163 13.0289 64.9065 16.2883 64.9065 19.0114C64.9065 21.6932 60.7394 23.8387 60.5331 23.8387C60.2856 23.8387 59.9967 23.6324 60.1205 23.5086C60.203 23.3848 61.3583 22.5184 61.3583 20.2492C61.3583 15.587 59.5429 13.8541 59.5429 13.2765C59.5429 12.7401 62.5135 10.7184 62.9261 10.7184C63.2974 10.7184 72.168 10.7184 72.168 10.7184C72.3743 10.7184 72.5806 10.8422 72.5806 11.0485ZM71.3841 28.996C71.4666 28.996 71.5492 29.0373 71.6317 29.0373C71.1366 25.4065 70.5177 21.8583 70.0226 18.7639C68.4135 22.6009 65.6904 26.5618 64.2876 30.7289C65.8142 29.945 68.2485 28.996 71.3841 28.996Z" fill="white"/>
<path d="M96.138 10.7184C96.4681 10.7184 96.6744 11.5849 96.6331 11.6261C95.8492 12.41 96.3856 18.3925 95.5604 19.259C93.8275 20.9506 92.4248 21.1981 92.4248 20.9506C92.4248 20.4555 93.0849 19.8779 93.0849 12.2037H88.3401C88.3814 14.638 88.0513 21.0331 88.0513 37.9079C88.0513 39.2282 88.0513 39.4757 87.7625 39.4757H85.0807C84.173 39.4757 84.8332 39.4757 84.8332 15.5457C84.8332 14.0191 84.7919 12.9464 84.7506 12.2037H79.7996C79.2632 12.2037 81.2437 21.7345 80.7486 22.2296C80.2122 22.766 77.2416 23.2198 77.0765 23.0548C76.9528 22.931 77.5304 21.8995 77.5304 18.7226C77.5304 15.587 76.0038 13.194 76.0038 12.9464C76.0038 12.6576 78.3968 10.7184 79.0569 10.7184H85.0807C88.0926 10.7184 87.4737 10.7184 87.7213 10.7184H96.138Z" fill="white"/>
<path d="M113.106 11.0076C113.426 12.0339 112.918 16.7003 112.918 37.9079C112.918 39.2282 112.959 39.4345 112.629 39.4345H109.947C109.081 39.4345 109.658 39.4345 109.7 18.9289C107.183 22.6834 102.232 26.9743 102.232 31.1415C102.232 33.2044 102.19 35.4324 102.19 37.9079C102.19 39.2282 102.232 39.4345 101.943 39.4345H99.2199C98.3122 39.4345 98.9723 39.4345 98.9723 15.5457C98.9723 11.5023 98.7248 10.7184 99.2611 10.7184H101.902C102.768 10.7184 102.479 10.801 102.273 24.1275C104.914 21.2806 109.658 17.5674 109.658 13.1114C109.634 11.9471 109.609 11.3182 109.682 11.0016C109.695 8.96544 109.838 8.67016 109.763 8.59486C109.703 8.53482 109.508 8.4657 109.186 8.39022C108.918 8.32753 108.482 8.2135 108.218 8.13679C106.639 7.67936 106.123 7.56062 105.502 7.51203C105.321 7.49785 105.112 7.46189 105.037 7.43208C104.854 7.35941 104.522 7.02068 104.384 6.76671C104.182 6.39518 104.113 5.82658 104.237 5.54605C104.276 5.45628 104.58 4.93566 104.749 4.66882C104.902 4.42817 105.165 4.30598 105.427 4.3545C105.528 4.37318 105.968 4.52322 106.405 4.6879C107.78 5.20634 109.535 5.83341 109.681 5.85838C109.916 5.89854 109.955 5.80517 110.009 5.06835C110.078 4.119 110.076 3.66481 110 3.16927C109.919 2.64087 109.99 1.83067 110.149 1.47575C110.344 1.03721 110.886 0.58437 111.314 0.502261C111.831 0.402923 112.218 0.650626 112.238 1.09396C112.242 1.16796 112.217 2.03442 112.183 3.01939C112.113 5.07802 112.113 5.11882 112.204 5.88531C112.26 6.36318 112.289 6.47601 112.377 6.56399C112.454 6.64138 112.673 6.72445 113.198 6.8757C114.587 7.27603 115.769 7.53348 117.008 7.70589C117.404 7.7611 117.873 7.85073 118.05 7.90514C118.335 7.99269 118.396 8.02795 118.578 8.21132C119.058 8.69252 119.121 9.49216 118.711 9.90003C118.517 10.0932 118.274 10.1885 117.88 10.2254C117.414 10.2692 117.176 10.2324 115.077 9.79091C113.962 9.55641 113.105 9.35925 113.013 9.35784C112.88 9.35784 112.921 9.37806 112.88 9.44619C112.86 9.47996 113.005 10.3336 113.106 11.0076Z" fill="white"/>
</svg>
