<svg width="29" height="28" viewBox="0 0 29 28" fill="none" xmlns="http://www.w3.org/2000/svg">
<path d="M9.68879 15.6715C9.81352 15.7352 9.8033 15.9259 9.67009 15.9719L6.55018 17.0485L0.938417 18.7546C0.838976 18.7848 0.796836 18.9025 0.854933 18.9878L2.62861 21.5914C2.66829 21.6496 2.74372 21.6726 2.81004 21.6472C6.59512 20.1977 9.29574 18.7792 10.5645 18.0587C10.692 17.9862 10.8395 18.1148 10.7848 18.2505L7.84245 25.5554C7.81477 25.6241 7.84001 25.7023 7.90246 25.7414L10.954 27.6511C11.0313 27.6995 11.1336 27.6706 11.1735 27.5879C12.5508 24.7313 14.301 20.556 14.8683 18.3127V18.3127C14.893 18.2151 15.0031 18.165 15.092 18.2111V18.2111C18.2386 19.8408 21.7427 21.0016 23.6356 21.4075C23.6739 21.4158 23.7129 21.4085 23.7465 21.3879L28.3949 18.5439C28.524 18.4648 28.4738 18.2661 28.3232 18.257C22.3284 17.8959 17.9501 16.0961 16.5037 15.2645V15.2645C16.4056 15.2081 16.4112 15.0678 16.5116 15.014V15.014C19.2793 13.5325 23.0974 13.7806 24.2693 14.1764C24.3172 14.1925 24.3686 14.1858 24.4104 14.157L27.5248 12.015C27.6278 11.9442 27.6075 11.7876 27.4897 11.748C22.4689 10.0591 17.4603 11.7126 15.2639 12.8084V12.8084C15.1564 12.862 15.0302 12.7781 15.0373 12.6587V12.6587C15.3687 7.11578 13.0928 2.02444 11.9081 0.133195C11.8751 0.0805654 11.8146 0.055549 11.7543 0.0721253C10.8627 0.317202 9.19764 1.6524 8.92297 2.62467C8.91303 2.65986 8.91844 2.69698 8.93526 2.72923C11.0112 6.70945 11.8605 10.2613 11.6054 12.323V12.323C11.5924 12.4277 11.4759 12.4831 11.3841 12.4316V12.4316C8.68429 10.9169 7.16253 9.17682 6.3667 8.2668C6.01588 7.86565 5.80613 7.6258 5.6987 7.63766C5.65551 7.64242 5.5351 7.65965 5.35776 7.68503C4.54447 7.80139 2.53384 8.08908 1.28285 8.13185C1.15957 8.13607 1.08551 8.27394 1.15682 8.37377C3.28887 11.3589 7.73418 14.6728 9.68879 15.6715Z" fill="#964445"/>
</svg>
