<svg width="128" height="35" viewBox="0 0 128 35" fill="none" xmlns="http://www.w3.org/2000/svg">
<path d="M13.1297 16.5404C13.1297 28.6837 13.708 32.5614 13.708 32.7655C13.708 32.9696 13.4358 33.1396 13.3338 33.1396H1.93884C1.19052 33.1396 1.73475 33.1396 1.73475 13.4451C1.73475 10.1116 1.53067 9.46535 1.97286 9.46535H7.61932C10.4766 9.46535 10.9868 9.29527 12.7556 9.29527C13.0277 9.29527 13.4358 10.5198 12.8236 10.5198C12.4154 10.5198 8.80983 12.2546 6.29274 14.7717C6.22471 14.8057 6.19069 14.8737 6.12266 14.9417C7.72136 14.1594 9.59217 13.6492 10.2725 13.6492C12.5174 13.6492 13.1297 14.7036 13.1297 16.5404ZM4.62601 10.962C4.62601 11.7443 4.62601 12.9349 4.55798 14.7717C7.48326 12.0845 9.55816 10.7579 9.62619 10.6899C9.76225 10.5538 6.19069 10.962 4.62601 10.962ZM10.4085 31.1668C10.4085 30.3504 10.3745 29.262 10.3745 27.7313C10.3745 18.0371 10.8507 15.588 8.16355 15.588C6.53084 15.588 4.52397 17.3908 4.52397 18.0711C4.45594 21.1664 4.42192 25.3843 4.38791 31.1668H10.4085ZM27.1924 13.0369C27.1924 13.7852 27.6346 13.7512 27.6346 13.7852C27.6346 14.1254 24.4372 16.0642 24.4372 15.7241C24.4372 13.9213 25.5937 12.0845 25.5937 11.8124C25.5937 11.8124 24.2332 10.6899 21.9201 10.6899C19.5731 10.6899 18.2465 11.2001 18.2465 11.3362C18.2465 13.275 18.7908 15.7921 19.4711 18.5813C20.8997 17.7309 23.0086 16.7445 24.5053 16.7445C25.3216 16.7445 25.7978 19.2276 26.274 19.2276C26.7162 19.2276 27.0224 19.0575 27.0224 19.1255C27.0224 19.5677 24.6753 21.2685 24.2332 21.2685C23.7569 21.2685 22.9406 18.7174 21.7501 18.7174C21.2058 18.7174 20.3895 19.0915 19.6752 19.4997C20.4915 22.7651 21.4439 26.2687 21.8861 29.5001C22.6004 26.8809 23.7569 25.2142 23.7569 23.9897C23.7569 23.3434 23.3828 23.1393 23.3828 22.9352C23.3828 22.6971 26.5121 22.7651 26.5121 22.9692C26.5121 25.0441 23.3488 28.3776 23.3488 32.7655C23.3488 33.0376 23.1447 33.1737 22.9406 33.1737H19.9813C19.5731 33.1737 19.5731 32.8675 19.5731 32.7655C19.5731 32.6634 19.7432 31.643 19.7432 30.7926C19.7432 27.6973 15.4573 17.2207 15.4573 12.5947C15.4573 12.1865 18.3486 9.02315 22.7365 9.02315C27.1584 9.02315 28.383 10.5538 28.383 10.6899C28.383 10.8259 27.1924 12.3566 27.1924 13.0369ZM48.2909 19.8058C48.6311 20.146 46.8963 25.3843 46.8963 30.8266C46.8963 32.0852 47.4405 32.7995 47.4405 33.0376C47.4405 33.1056 47.4065 33.1396 47.3385 33.1396H44.0731C43.937 33.1396 43.835 33.0376 43.835 32.9696C43.835 24.772 45.5017 21.6086 45.1956 21.3365C44.9235 21.0304 34.787 22.459 32.9502 22.459C32.6781 22.459 33.5625 27.3571 33.5625 32.7315C33.5625 32.9015 33.4605 33.1396 33.2224 33.1396H30.7393C30.6032 33.1396 30.2291 33.1396 30.2291 32.8335C30.2291 32.4934 30.6032 31.0988 30.6032 26.3367C30.6032 22.7311 29.6168 22.0168 29.4467 21.8467C29.2766 21.6767 31.0114 20.3841 31.6577 20.3841C32.2019 20.3841 32.7121 20.3841 33.2224 20.3841C33.4945 19.2956 35.6374 15.6901 37.1 15.6901H42.4064C42.5084 13.7172 43.4268 11.6423 43.4268 11.3362C43.4268 10.996 34.3448 11.1321 34.2088 11.1321C34.0727 11.1321 34.8551 11.8804 34.8551 13.207C34.8551 13.4791 32.44 15.1798 31.8618 15.1798C31.6917 15.1798 32.1339 14.7376 32.1339 13.7512C32.1339 11.9144 29.9569 9.66943 30.161 9.46535C30.3651 9.29527 46.0119 9.46535 46.3861 9.46535C46.7603 9.46535 44.9915 12.1865 44.9915 14.8057C44.9915 17.0166 45.6037 19.1936 45.8078 19.8399C47.3385 19.7378 48.1549 19.6698 48.2909 19.8058ZM35.7395 20.3161C38.5967 20.248 40.9777 20.146 42.8826 20.0099C42.7465 19.4317 42.5764 18.5133 42.4744 17.5609C41.2499 17.4248 39.277 17.2888 36.5558 17.2888C36.3857 17.2888 35.8415 18.7514 35.7395 20.3161ZM60.6622 9.73746C60.6622 16.8466 63.7235 27.4592 63.7235 32.7995C63.7235 32.9356 63.6555 33.1396 63.4174 33.1396H60.8323C60.5942 33.1396 60.5602 32.9015 60.5602 32.7655C60.5602 32.7315 60.5602 32.6634 60.5942 32.5274C60.5942 31.4389 60.5262 30.2824 60.4241 29.1259C60.084 27.6633 59.3356 26.3367 57.5669 26.3367C55.56 26.3367 54.2334 26.8469 53.4511 27.3231C53.213 28.2415 53.0769 29.1599 53.0769 30.0783C53.0769 32.0172 53.5871 33.1396 53.315 33.1396H50.5258C50.4238 33.1396 50.2877 33.0716 50.2877 31.3709C50.2877 24.2958 57.2267 19.1936 57.6009 11.064C56.4444 10.996 53.5191 10.928 53.5191 11.1321C53.5191 11.3702 54.3355 14.0573 54.3355 16.3023C54.3355 18.5133 50.9 20.2821 50.7299 20.2821C50.5258 20.2821 50.2877 20.112 50.3557 20.0099C50.4578 19.9079 51.4102 19.1936 51.4102 17.3228C51.4102 13.4791 49.9135 12.0505 49.9135 11.5743C49.9135 11.1321 52.3626 9.46535 52.7027 9.46535C53.0089 9.46535 60.3221 9.46535 60.3221 9.46535C60.4921 9.46535 60.6622 9.56739 60.6622 9.73746ZM59.6758 24.5339C59.7438 24.5339 59.8118 24.5679 59.8799 24.5679C59.4717 21.5746 58.9615 18.6493 58.5533 16.0982C57.2267 19.2616 54.9817 22.527 53.8252 25.9625C55.0838 25.3162 57.0907 24.5339 59.6758 24.5339ZM80.0836 9.46535C80.3557 9.46535 80.5258 10.1797 80.4918 10.2137C79.8455 10.86 80.2877 15.7921 79.6074 16.5064C78.1788 17.901 77.0223 18.1051 77.0223 17.901C77.0223 17.4928 77.5665 17.0166 77.5665 10.6899H73.6548C73.6888 12.6968 73.4167 17.969 73.4167 31.8811C73.4167 32.9696 73.4167 33.1737 73.1786 33.1737H70.9676C70.2193 33.1737 70.7635 33.1737 70.7635 13.4451C70.7635 12.1865 70.7295 11.3021 70.6955 10.6899H66.6137C66.1715 10.6899 67.8043 18.5473 67.3961 18.9555C66.9539 19.3977 64.5048 19.7718 64.3688 19.6358C64.2667 19.5337 64.7429 18.6834 64.7429 16.0642C64.7429 13.4791 63.4844 11.5062 63.4844 11.3021C63.4844 11.064 65.4572 9.46535 66.0015 9.46535H70.9676C73.4507 9.46535 72.9405 9.46535 73.1446 9.46535H80.0836ZM93.6792 9.46535C94.5976 9.46535 93.9173 9.60141 93.9173 31.8811C93.9173 32.9696 93.9513 33.1396 93.6792 33.1396H91.4682C90.7539 33.1396 91.2301 33.1396 91.2641 16.2343C89.1892 19.3296 85.1074 22.8672 85.1074 26.3027C85.1074 28.0034 85.0734 29.8402 85.0734 31.8811C85.0734 32.9696 85.1074 33.1396 84.8693 33.1396H82.6243C81.876 33.1396 82.4203 33.1396 82.4203 13.4451C82.4203 10.1116 82.2162 9.46535 82.6584 9.46535C85.1074 9.46535 84.6312 9.46535 84.8353 9.46535C85.5496 9.46535 85.3115 9.53338 85.1414 20.5202C87.3184 18.1731 91.2301 15.1118 91.2301 11.4382C91.1961 9.83951 91.1621 9.46535 91.5022 9.46535C93.9513 9.46535 93.4411 9.46535 93.6792 9.46535Z" fill="#FEFEFE"/>
<path d="M106.689 16.6715C106.814 16.7352 106.803 16.9259 106.67 16.9719L103.55 18.0485L97.9384 19.7546C97.839 19.7848 97.7968 19.9025 97.8549 19.9878L99.6286 22.5914C99.6683 22.6496 99.7437 22.6726 99.81 22.6472C99.81 22.6472 99.8101 22.6472 99.81 22.6472C103.595 21.1977 106.296 19.7792 107.564 19.0587C107.692 18.9862 107.84 19.1148 107.785 19.2505L104.842 26.5554C104.815 26.6241 104.84 26.7023 104.902 26.7414L107.954 28.6511C108.031 28.6995 108.134 28.6706 108.173 28.5879C108.173 28.5881 108.174 28.5878 108.173 28.5879C109.551 25.7313 111.301 21.556 111.868 19.3127V19.3127C111.893 19.2151 112.003 19.165 112.092 19.2111V19.2111C115.239 20.8408 118.743 22.0016 120.636 22.4075C120.635 22.4075 120.636 22.4076 120.636 22.4075C120.674 22.4158 120.713 22.4085 120.747 22.3879L125.395 19.5439C125.524 19.4648 125.474 19.2661 125.323 19.257C119.328 18.8959 114.95 17.0961 113.504 16.2645V16.2645C113.406 16.2081 113.411 16.0678 113.512 16.014V16.014C116.279 14.5325 120.097 14.7806 121.269 15.1764C121.317 15.1925 121.369 15.1858 121.41 15.157L124.525 13.015C124.628 12.9442 124.608 12.7876 124.49 12.748C119.469 11.0591 114.46 12.7126 112.264 13.8084V13.8084C112.156 13.862 112.03 13.7781 112.037 13.6587V13.6587C112.369 8.11578 110.093 3.02444 108.908 1.13319C108.875 1.08057 108.815 1.05555 108.754 1.07213C107.863 1.3172 106.198 2.6524 105.923 3.62467C105.913 3.65986 105.918 3.69698 105.935 3.72923C108.011 7.70945 108.861 11.2613 108.605 13.323V13.323C108.592 13.4277 108.476 13.4831 108.384 13.4316V13.4316C105.684 11.9169 104.163 10.1768 103.367 9.2668C103.016 8.86565 102.806 8.6258 102.699 8.63766C102.656 8.64242 102.535 8.65965 102.358 8.68503C101.544 8.80139 99.5338 9.08908 98.2828 9.13185C98.1596 9.13607 98.0855 9.27394 98.1568 9.37377C100.289 12.3589 104.734 15.6728 106.689 16.6715Z" fill="#964445"/>
</svg>
