<svg width="161" height="43" viewBox="0 0 161 43" fill="none" xmlns="http://www.w3.org/2000/svg">
<path d="M15.8743 20.7784C15.8743 36.3844 16.6174 41.3679 16.6174 41.6302C16.6174 41.8924 16.2677 42.111 16.1366 42.111H1.49228C0.530562 42.111 1.22999 42.111 1.22999 16.8004C1.22999 12.5164 0.967705 11.6859 1.53599 11.6859H8.79256C12.4646 11.6859 13.1203 11.4673 15.3934 11.4673C15.7431 11.4673 16.2677 13.041 15.4808 13.041C14.9563 13.041 10.3226 15.2704 7.08771 18.5053C7.00028 18.549 6.95656 18.6364 6.86913 18.7239C8.92371 17.7184 11.328 17.0627 12.2023 17.0627C15.0874 17.0627 15.8743 18.4179 15.8743 20.7784ZM4.94571 13.6093C4.94571 14.6147 4.94571 16.1447 4.85828 18.5053C8.61771 15.0519 11.2843 13.347 11.3717 13.2596C11.5466 13.0847 6.95656 13.6093 4.94571 13.6093ZM12.3771 39.5756C12.3771 38.5264 12.3334 37.1276 12.3334 35.1604C12.3334 22.7019 12.9454 19.5544 9.49199 19.5544C7.3937 19.5544 4.81456 21.8713 4.81456 22.7456C4.72713 26.7236 4.68342 32.1442 4.63971 39.5756H12.3771Z" fill="#FEFEFE"/>
<path d="M33.9471 16.2759C33.9471 17.2376 34.5153 17.1939 34.5153 17.2376C34.5153 17.6747 30.4062 20.1664 30.4062 19.7293C30.4062 17.4124 31.8925 15.0519 31.8925 14.7022C31.8925 14.7022 30.1439 13.2596 27.1713 13.2596C24.1551 13.2596 22.4502 13.9153 22.4502 14.0902C22.4502 16.5819 23.1496 19.8167 24.0239 23.4013C25.8599 22.3084 28.5702 21.0407 30.4936 21.0407C31.5428 21.0407 32.1548 24.2319 32.7668 24.2319C33.3351 24.2319 33.7285 24.0133 33.7285 24.1007C33.7285 24.669 30.7122 26.8547 30.1439 26.8547C29.5319 26.8547 28.4828 23.5762 26.9528 23.5762C26.2533 23.5762 25.2042 24.057 24.2862 24.5816C25.3353 28.7782 26.5593 33.2807 27.1276 37.4336C28.0456 34.0676 29.5319 31.9256 29.5319 30.3519C29.5319 29.5213 29.0511 29.259 29.0511 28.9967C29.0511 28.6907 33.0728 28.7782 33.0728 29.0404C33.0728 31.707 29.0073 35.991 29.0073 41.6302C29.0073 41.9799 28.7451 42.1547 28.4828 42.1547H24.6796C24.1551 42.1547 24.1551 41.7613 24.1551 41.6302C24.1551 41.499 24.3736 40.1876 24.3736 39.0947C24.3736 35.1167 18.8656 21.6527 18.8656 15.7076C18.8656 15.183 22.5813 11.1176 28.2205 11.1176C33.9033 11.1176 35.4771 13.0847 35.4771 13.2596C35.4771 13.4344 33.9471 15.4016 33.9471 16.2759Z" fill="#FEFEFE"/>
<path d="M61.0619 24.975C61.499 25.4122 59.2696 32.1442 59.2696 39.1384C59.2696 40.7559 59.969 41.6739 59.969 41.9799C59.969 42.0673 59.9253 42.111 59.8379 42.111H55.6413C55.4664 42.111 55.3353 41.9799 55.3353 41.8924C55.3353 31.3573 57.4773 27.2919 57.0839 26.9422C56.7342 26.5487 43.7073 28.3847 41.3467 28.3847C40.997 28.3847 42.1336 34.6796 42.1336 41.5864C42.1336 41.805 42.0024 42.111 41.6964 42.111H38.5053C38.3304 42.111 37.8496 42.111 37.8496 41.7176C37.8496 41.2804 38.3304 39.4882 38.3304 33.3682C38.3304 28.7344 37.0627 27.8164 36.8442 27.5979C36.6256 27.3793 38.855 25.7182 39.6856 25.7182C40.385 25.7182 41.0407 25.7182 41.6964 25.7182C42.0462 24.3193 44.8002 19.6856 46.6799 19.6856H53.4993C53.6304 17.1502 54.8107 14.4836 54.8107 14.0902C54.8107 13.653 43.139 13.8279 42.9642 13.8279C42.7893 13.8279 43.7947 14.7896 43.7947 16.4944C43.7947 16.8442 40.691 19.0299 39.9479 19.0299C39.7293 19.0299 40.2976 18.4616 40.2976 17.1939C40.2976 14.8333 37.4999 11.9482 37.7622 11.6859C38.0244 11.4673 58.133 11.6859 58.6139 11.6859C59.0947 11.6859 56.8216 15.183 56.8216 18.549C56.8216 21.3904 57.6084 24.1882 57.8707 25.0187C59.8379 24.8876 60.887 24.8002 61.0619 24.975ZM44.9313 25.6307C48.6033 25.5433 51.6633 25.4122 54.1113 25.2373C53.9364 24.4942 53.7179 23.3139 53.5867 22.0899C52.013 21.915 49.4776 21.7402 45.9804 21.7402C45.7619 21.7402 45.0624 23.6199 44.9313 25.6307Z" fill="#FEFEFE"/>
<path d="M76.9609 12.0356C76.9609 21.1719 80.8952 34.8107 80.8952 41.6739C80.8952 41.8487 80.8078 42.111 80.5018 42.111H77.1795C76.8735 42.111 76.8298 41.805 76.8298 41.6302C76.8298 41.5864 76.8298 41.499 76.8735 41.3242C76.8735 39.9253 76.786 38.439 76.6549 36.9527C76.2178 35.073 75.256 33.3682 72.9829 33.3682C70.4038 33.3682 68.6989 34.0239 67.6935 34.6359C67.3875 35.8162 67.2126 36.9964 67.2126 38.1767C67.2126 40.6684 67.8683 42.111 67.5186 42.111H63.934C63.8029 42.111 63.628 42.0236 63.628 39.8379C63.628 30.7453 72.5458 24.1882 73.0266 13.7404C71.5403 13.653 67.7809 13.5656 67.7809 13.8279C67.7809 14.1339 68.83 17.5873 68.83 20.4724C68.83 23.3139 64.4149 25.587 64.1963 25.587C63.934 25.587 63.628 25.3684 63.7155 25.2373C63.8466 25.1062 65.0706 24.1882 65.0706 21.7839C65.0706 16.8442 63.1472 15.0082 63.1472 14.3962C63.1472 13.8279 66.2946 11.6859 66.7318 11.6859C67.1252 11.6859 76.5238 11.6859 76.5238 11.6859C76.7423 11.6859 76.9609 11.817 76.9609 12.0356ZM75.6932 31.0513C75.7806 31.0513 75.868 31.095 75.9555 31.095C75.4309 27.2482 74.7752 23.4887 74.2506 20.2102C72.5458 24.2756 69.6606 28.4722 68.1743 32.8873C69.7918 32.0567 72.3709 31.0513 75.6932 31.0513Z" fill="#FEFEFE"/>
<path d="M101.92 11.6859C102.27 11.6859 102.489 12.6039 102.445 12.6476C101.614 13.4782 102.183 19.8167 101.308 20.7347C99.4724 22.527 97.9861 22.7893 97.9861 22.527C97.9861 22.0024 98.6855 21.3904 98.6855 13.2596H93.6584C93.7021 15.8387 93.3524 22.6144 93.3524 40.4936C93.3524 41.8924 93.3524 42.1547 93.0464 42.1547H90.205C89.2432 42.1547 89.9427 42.1547 89.9427 16.8004C89.9427 15.183 89.899 14.0464 89.8552 13.2596H84.6095C84.0412 13.2596 86.1395 23.3576 85.615 23.8822C85.0467 24.4504 81.8992 24.9313 81.7244 24.7564C81.5932 24.6253 82.2052 23.5324 82.2052 20.1664C82.2052 16.8442 80.5878 14.3087 80.5878 14.0464C80.5878 13.7404 83.1232 11.6859 83.8227 11.6859H90.205C93.3961 11.6859 92.7404 11.6859 93.0027 11.6859H101.92Z" fill="#FEFEFE"/>
<path d="M119.393 11.6859C120.573 11.6859 119.699 11.8607 119.699 40.4936C119.699 41.8924 119.742 42.111 119.393 42.111H116.551C115.633 42.111 116.245 42.111 116.289 20.385C113.622 24.363 108.377 28.9093 108.377 33.3244C108.377 35.5102 108.333 37.8707 108.333 40.4936C108.333 41.8924 108.377 42.111 108.071 42.111H105.186C104.224 42.111 104.923 42.111 104.923 16.8004C104.923 12.5164 104.661 11.6859 105.229 11.6859C108.377 11.6859 107.765 11.6859 108.027 11.6859C108.945 11.6859 108.639 11.7733 108.42 25.893C111.218 22.8767 116.245 18.9424 116.245 14.2213C116.202 12.1667 116.158 11.6859 116.595 11.6859C119.742 11.6859 119.087 11.6859 119.393 11.6859Z" fill="#FEFEFE"/>
<path d="M131.304 10.1217C130.994 10.156 127.589 10.6892 125.63 10.7562C125.472 10.7616 125.377 10.9388 125.468 11.0671C128.364 15.1214 134.579 19.648 136.828 20.6357C136.873 20.6554 136.906 20.6893 136.927 20.7338L138.022 23.1497C138.044 23.1984 138.045 23.2542 138.025 23.3041L134.059 33.1488C134.024 33.2371 134.056 33.3376 134.137 33.3878L138.058 35.8421C138.158 35.9043 138.289 35.8671 138.34 35.7609C140.11 32.0897 142.36 26.7238 143.089 23.8408C143.121 23.715 143.262 23.6508 143.376 23.7102C147.42 25.8046 151.923 27.2964 154.356 27.8182C154.405 27.8287 154.456 27.8194 154.499 27.793L160.473 24.1379C160.639 24.0363 160.574 23.7809 160.38 23.7692C152.676 23.3051 147.049 20.9922 145.19 19.9234C145.063 19.8502 145.07 19.6713 145.201 19.6015C148.758 17.6975 153.664 18.0164 155.171 18.525C155.232 18.5457 155.298 18.5371 155.352 18.5001L159.354 15.7474C159.487 15.6563 159.461 15.4551 159.309 15.4042C152.857 13.2336 146.42 15.3587 143.597 16.7669C143.458 16.8362 143.297 16.7287 143.306 16.5745C143.732 9.45104 140.807 2.90788 139.284 0.477335C139.242 0.409698 139.164 0.377548 139.087 0.398851C137.941 0.713813 135.801 2.42975 135.448 3.67927C135.435 3.72448 135.442 3.77219 135.464 3.81364C138.132 8.92884 139.223 13.4936 138.895 16.1432C138.879 16.2779 138.729 16.349 138.611 16.2827C133.612 13.478 131.756 10.0719 131.304 10.1217Z" fill="#964445"/>
<path d="M131.304 10.1217C130.988 10.1566 129.687 12.354 128.488 13.2404C128.398 13.3066 128.373 13.432 128.435 13.523C131.046 17.3083 134.216 19.4285 136.427 20.4563C136.591 20.5322 136.579 20.7727 136.408 20.8317L132.399 22.2153L125.187 24.4079C125.059 24.4468 125.005 24.5981 125.079 24.7077L127.359 28.0537C127.41 28.1285 127.507 28.158 127.592 28.1254C132.456 26.2626 135.927 24.4396 137.558 23.5136C137.721 23.4205 137.911 23.5857 137.841 23.7601L134.059 33.1488C134.024 33.2371 134.056 33.3376 134.137 33.3878L138.058 35.8421C138.158 35.9043 138.289 35.8671 138.34 35.7609C140.11 32.0897 142.36 26.7238 143.089 23.8408C143.121 23.715 143.262 23.6508 143.376 23.7102C147.42 25.8046 151.923 27.2964 154.356 27.8182C154.405 27.8287 154.456 27.8194 154.499 27.793L160.473 24.1379C160.639 24.0363 160.574 23.7809 160.38 23.7692C152.676 23.3051 147.049 20.9922 145.19 19.9234C145.063 19.8502 145.07 19.6713 145.201 19.6015C148.758 17.6975 153.664 18.0164 155.171 18.525C155.232 18.5457 155.298 18.5371 155.352 18.5001L159.354 15.7474C159.487 15.6563 159.461 15.4551 159.309 15.4042C152.857 13.2336 146.42 15.3587 143.597 16.7669C143.458 16.8362 143.297 16.7287 143.306 16.5745C143.732 9.45104 140.807 2.90788 139.284 0.477335C139.242 0.409698 139.164 0.377548 139.087 0.398851C137.941 0.713813 135.801 2.42975 135.448 3.67927C135.435 3.72448 135.442 3.77219 135.464 3.81364C138.132 8.92884 139.223 13.4936 138.895 16.1432C138.879 16.2779 138.729 16.349 138.611 16.2827C133.612 13.478 131.756 10.0719 131.304 10.1217Z" fill="#964445"/>
</svg>
