<svg width="50" height="42" viewBox="0 0 50 42" fill="none" xmlns="http://www.w3.org/2000/svg">
<path d="M13.2952 15.8709C14.637 14.8716 16.0954 12.3914 16.4491 12.3518C16.9538 12.2953 19.0265 16.1319 24.6142 19.2889C24.7468 19.3639 24.9153 19.2841 24.934 19.1325C25.3031 16.1458 24.0862 11.0016 21.1064 5.23815C21.0824 5.19182 21.0748 5.13862 21.0889 5.08815C21.484 3.67998 23.878 1.74444 25.1603 1.38748C25.2477 1.36315 25.3356 1.39957 25.3831 1.47612C27.0839 4.21485 30.3489 11.5864 29.8666 19.6146C29.8562 19.7882 30.0384 19.9089 30.1944 19.8304C33.3539 18.2409 40.554 15.8421 47.7677 18.2835C47.9371 18.3408 47.9665 18.5658 47.8187 18.6682L43.3383 21.7751C43.2778 21.8171 43.203 21.8269 43.1336 21.8034C41.4478 21.2315 35.9602 20.8767 31.9811 23.0262C31.8357 23.1048 31.8277 23.3047 31.9698 23.387C34.0464 24.5897 40.3393 27.1935 48.9585 27.7104C49.1755 27.7234 49.2484 28.0093 49.0628 28.1239L42.3759 32.2497C42.3272 32.2798 42.2706 32.2904 42.2149 32.2784C39.4947 31.6922 34.4609 30.0149 29.9408 27.6583C29.8119 27.5911 29.653 27.6632 29.6174 27.8048C28.7995 31.0546 26.2794 37.1038 24.2965 41.243C24.2391 41.3628 24.0907 41.4047 23.979 41.3342L19.5962 38.572C19.5066 38.5156 19.4704 38.4032 19.51 38.3043L23.9894 27.1159C22.5 28.0024 18.3651 30.2957 12.283 32.6466C12.1869 32.6838 12.0773 32.6504 12.0201 32.5656L9.47292 28.7953C9.3899 28.6724 9.45045 28.5035 9.59321 28.4596L17.6625 25.9822L22.6928 24.2299C20.2165 23.1774 16.3651 20.7628 13.2363 16.1869C13.1666 16.085 13.1954 15.9452 13.2952 15.8709Z" fill="#964445"/>
<path d="M17.4764 10.9285C17.4764 29.2454 18.3486 35.0945 18.3486 35.4023C18.3486 35.7102 17.9381 35.9667 17.7842 35.9667H0.596126C-0.532643 35.9667 0.28828 35.9667 0.28828 6.25954C0.28828 1.23138 -0.0195659 0.256538 0.647434 0.256538H9.16451C13.4744 0.256538 14.244 0 16.912 0C17.3224 0 17.9381 1.84708 17.0146 1.84708C16.3989 1.84708 10.9603 4.46377 7.16351 8.26054C7.0609 8.31185 7.00959 8.41446 6.90697 8.51708C9.31843 7.337 12.1404 6.56739 13.1665 6.56739C16.5528 6.56739 17.4764 8.15792 17.4764 10.9285ZM4.64943 2.51408C4.64943 3.69416 4.64943 5.48992 4.54682 8.26054C8.95928 4.20723 12.0891 2.20623 12.1917 2.10362C12.3969 1.89838 7.00959 2.51408 4.64943 2.51408ZM13.3717 32.9908C13.3717 31.7595 13.3204 30.1176 13.3204 27.8088C13.3204 13.1861 14.0387 9.49192 9.98543 9.49192C7.52266 9.49192 4.49551 12.2112 4.49551 13.2374C4.3929 17.9064 4.34159 24.2685 4.29028 32.9908H13.3717Z" fill="#151515"/>
<path d="M16.4491 12.3518C16.0954 12.3914 14.637 14.8716 13.2952 15.8709C13.1954 15.9452 13.1666 16.085 13.2363 16.1869C16.3325 20.7152 20.1365 23.127 22.6151 24.1966C22.6657 24.2184 22.7054 24.2577 22.7279 24.308L23.9512 27.0307C23.9756 27.0851 23.9768 27.1473 23.9545 27.203L19.51 38.3043C19.4704 38.4032 19.5066 38.5156 19.5962 38.572L23.979 41.3342C24.0907 41.4047 24.2391 41.3628 24.2965 41.243C26.2794 37.1038 28.7995 31.0546 29.6174 27.8048C29.653 27.6632 29.8119 27.5911 29.9408 27.6583C34.4609 30.0149 39.4947 31.6922 42.2149 32.2784C42.2706 32.2904 42.3272 32.2798 42.3759 32.2497L49.0628 28.1239C49.2484 28.0093 49.1755 27.7234 48.9585 27.7104C40.3393 27.1935 34.0464 24.5897 31.9698 23.387C31.8277 23.3047 31.8357 23.1048 31.9811 23.0262C35.9602 20.8767 41.4478 21.2315 43.1336 21.8034C43.203 21.8269 43.2778 21.8171 43.3383 21.7751L47.8187 18.6682C47.9665 18.5658 47.9371 18.3408 47.7677 18.2835C40.554 15.8421 33.3539 18.2409 30.1944 19.8304C30.0384 19.9089 29.8562 19.7882 29.8666 19.6146C30.3489 11.5864 27.0839 4.21485 25.3831 1.47612C25.3356 1.39957 25.2477 1.36315 25.1603 1.38748C23.878 1.74444 21.484 3.67998 21.0889 5.08815C21.0748 5.13862 21.0824 5.19182 21.1064 5.23815C24.0862 11.0016 25.3031 16.1458 24.934 19.1325C24.9153 19.2841 24.7468 19.3639 24.6142 19.2889C19.0265 16.1319 16.9538 12.2953 16.4491 12.3518Z" fill="#964445"/>
</svg>
