<svg width="22" height="23" viewBox="0 0 22 23" fill="none" xmlns="http://www.w3.org/2000/svg">
<path d="M20.2889 23L12.5889 14.95C11.9778 15.4611 11.275 15.8657 10.4806 16.1639C9.68611 16.462 8.84074 16.6111 7.94444 16.6111C5.72407 16.6111 3.84491 15.8072 2.30694 14.1993C0.768981 12.5914 0 10.6269 0 8.30556C0 5.98426 0.768981 4.01968 2.30694 2.41181C3.84491 0.803935 5.72407 0 7.94444 0C10.1648 0 12.044 0.803935 13.5819 2.41181C15.1199 4.01968 15.8889 5.98426 15.8889 8.30556C15.8889 9.24259 15.7463 10.1264 15.4611 10.9569C15.1759 11.7875 14.7889 12.5222 14.3 13.1611L22 21.2111L20.2889 23ZM7.94444 14.0556C9.47222 14.0556 10.7708 13.4965 11.8403 12.3785C12.9097 11.2604 13.4444 9.90278 13.4444 8.30556C13.4444 6.70833 12.9097 5.35069 11.8403 4.23264C10.7708 3.11458 9.47222 2.55556 7.94444 2.55556C6.41667 2.55556 5.11806 3.11458 4.04861 4.23264C2.97917 5.35069 2.44444 6.70833 2.44444 8.30556C2.44444 9.90278 2.97917 11.2604 4.04861 12.3785C5.11806 13.4965 6.41667 14.0556 7.94444 14.0556Z" fill="#FEFEFE"/>
</svg>
