<svg width="16" height="17" viewBox="0 0 16 17" fill="none" xmlns="http://www.w3.org/2000/svg">
<path d="M1.92703 5.28155C1.73077 5.28155 1.34361 6.17338 0.825714 6.81749C1.54532 8.13435 3.9441 9.08069 4.78909 9.46239L1.19107 11.4364L2.17134 12.6674C3.51605 12.2637 4.94252 10.9774 5.43316 10.6195L4.21668 15.158L5.9451 16.0746C6.53386 14.357 7.26954 11.5738 7.24228 10.6195C9.13942 11.1348 11.8098 11.4364 12.6003 11.4364L15.1743 9.79035C11.5763 10.0194 8.87219 9.15901 8.16349 8.80116C9.6027 7.71333 11.6321 7.47703 12.259 7.64402L14.193 6.2835C11.1837 5.53919 8.30533 6.8322 7.24228 7.57173C7.11144 4.36547 5.5523 1.65542 4.78909 0.701172C3.87323 1.33097 3.89024 2.11398 3.7267 2.51954C5.03507 4.58071 5.54219 6.99991 5.43316 7.64402C3.14351 6.7852 2.17235 5.28155 1.92703 5.28155Z" fill="white"/>
</svg>
