<svg width="124" height="33" viewBox="0 0 124 33" fill="none" xmlns="http://www.w3.org/2000/svg">
<path d="M11.5861 15.4736C11.5861 27.6168 12.1643 31.4945 12.1643 31.6986C12.1643 31.9027 11.8922 32.0728 11.7902 32.0728H0.395206C-0.353119 32.0728 0.191117 32.0728 0.191117 12.3782C0.191117 9.04475 -0.0129714 8.39847 0.429221 8.39847H6.07568C8.93292 8.39847 9.44314 8.2284 11.2119 8.2284C11.484 8.2284 11.8922 9.45293 11.2799 9.45293C10.8718 9.45293 7.2662 11.1877 4.7491 13.7048C4.68107 13.7388 4.64706 13.8068 4.57903 13.8749C6.17772 13.0925 8.04854 12.5823 8.72883 12.5823C10.9738 12.5823 11.5861 13.6368 11.5861 15.4736ZM3.08238 9.89512C3.08238 10.6775 3.08238 11.868 3.01435 13.7048C5.93962 11.0176 8.01452 9.69103 8.08255 9.623C8.21861 9.48695 4.64706 9.89512 3.08238 9.89512ZM8.86489 30.0999C8.86489 29.2836 8.83088 28.1951 8.83088 26.6644C8.83088 16.9702 9.30708 14.5211 6.61992 14.5211C4.9872 14.5211 2.98033 16.3239 2.98033 17.0042C2.9123 20.0996 2.87829 24.3174 2.84427 30.0999H8.86489Z" fill="#151515"/>
<path d="M25.6488 11.97C25.6488 12.7184 26.091 12.6843 26.091 12.7184C26.091 13.0585 22.8936 14.9973 22.8936 14.6572C22.8936 12.8544 24.0501 11.0176 24.0501 10.7455C24.0501 10.7455 22.6895 9.623 20.3765 9.623C18.0295 9.623 16.7029 10.1332 16.7029 10.2693C16.7029 12.2081 17.2471 14.7252 17.9274 17.5144C19.3561 16.6641 21.465 15.6776 22.9616 15.6776C23.778 15.6776 24.2542 18.1607 24.7304 18.1607C25.1726 18.1607 25.4787 17.9906 25.4787 18.0587C25.4787 18.5009 23.1317 20.2016 22.6895 20.2016C22.2133 20.2016 21.397 17.6505 20.2064 17.6505C19.6622 17.6505 18.8458 18.0247 18.1315 18.4328C18.9479 21.6983 19.9003 25.2018 20.3425 28.4332C21.0568 25.8141 22.2133 24.1473 22.2133 22.9228C22.2133 22.2765 21.8391 22.0724 21.8391 21.8683C21.8391 21.6302 24.9685 21.6983 24.9685 21.9023C24.9685 23.9773 21.8051 27.3107 21.8051 31.6986C21.8051 31.9707 21.601 32.1068 21.397 32.1068H18.4377C18.0295 32.1068 18.0295 31.8007 18.0295 31.6986C18.0295 31.5966 18.1996 30.5761 18.1996 29.7258C18.1996 26.6304 13.9137 16.1538 13.9137 11.5278C13.9137 11.1197 16.805 7.95628 21.1929 7.95628C25.6148 7.95628 26.8393 9.48695 26.8393 9.623C26.8393 9.75906 25.6488 11.2897 25.6488 11.97Z" fill="#151515"/>
<path d="M46.7473 18.739C47.0874 19.0791 45.3527 24.3174 45.3527 29.7598C45.3527 31.0183 45.8969 31.7326 45.8969 31.9707C45.8969 32.0388 45.8629 32.0728 45.7949 32.0728H42.5294C42.3934 32.0728 42.2913 31.9707 42.2913 31.9027C42.2913 23.7051 43.9581 20.5418 43.6519 20.2696C43.3798 19.9635 33.2434 21.3921 31.4066 21.3921C31.1345 21.3921 32.0189 26.2903 32.0189 31.6646C32.0189 31.8347 31.9168 32.0728 31.6787 32.0728H29.1956C29.0596 32.0728 28.6854 32.0728 28.6854 31.7666C28.6854 31.4265 29.0596 30.0319 29.0596 25.2698C29.0596 21.6642 28.0732 20.9499 27.9031 20.7799C27.733 20.6098 29.4678 19.3172 30.114 19.3172C30.6583 19.3172 31.1685 19.3172 31.6787 19.3172C31.9508 18.2288 34.0938 14.6232 35.5564 14.6232H40.8627C40.9648 12.6503 41.8832 10.5754 41.8832 10.2693C41.8832 9.92914 32.8012 10.0652 32.6652 10.0652C32.5291 10.0652 33.3114 10.8135 33.3114 12.1401C33.3114 12.4122 30.8964 14.113 30.3181 14.113C30.1481 14.113 30.5903 13.6708 30.5903 12.6843C30.5903 10.8475 28.4133 8.60256 28.6174 8.39847C28.8215 8.2284 44.4683 8.39847 44.8425 8.39847C45.2166 8.39847 43.4478 11.1197 43.4478 13.7388C43.4478 15.9498 44.0601 18.1267 44.2642 18.773C45.7949 18.6709 46.6112 18.6029 46.7473 18.739ZM34.1958 19.2492C37.0531 19.1812 39.4341 19.0791 41.3389 18.9431C41.2029 18.3648 41.0328 17.4464 40.9308 16.494C39.7062 16.3579 37.7334 16.2219 35.0122 16.2219C34.8421 16.2219 34.2979 17.6845 34.1958 19.2492Z" fill="#151515"/>
<path d="M59.1186 8.67059C59.1186 15.7797 62.1799 26.3923 62.1799 31.7326C62.1799 31.8687 62.1119 32.0728 61.8738 32.0728H59.2886C59.0505 32.0728 59.0165 31.8347 59.0165 31.6986C59.0165 31.6646 59.0165 31.5966 59.0505 31.4605C59.0505 30.372 58.9825 29.2155 58.8805 28.059C58.5403 26.5964 57.792 25.2698 56.0232 25.2698C54.0164 25.2698 52.6898 25.78 51.9074 26.2562C51.6693 27.1746 51.5333 28.093 51.5333 29.0114C51.5333 30.9503 52.0435 32.0728 51.7714 32.0728H48.9822C48.8801 32.0728 48.7441 32.0047 48.7441 30.304C48.7441 23.2289 55.6831 18.1267 56.0572 9.99717C54.9007 9.92914 51.9755 9.86111 51.9755 10.0652C51.9755 10.3033 52.7918 12.9905 52.7918 15.2354C52.7918 17.4464 49.3563 19.2152 49.1863 19.2152C48.9822 19.2152 48.7441 19.0451 48.8121 18.9431C48.9141 18.841 49.8665 18.1267 49.8665 16.2559C49.8665 12.4122 48.3699 10.9836 48.3699 10.5074C48.3699 10.0652 50.819 8.39847 51.1591 8.39847C51.4652 8.39847 58.7784 8.39847 58.7784 8.39847C58.9485 8.39847 59.1186 8.50052 59.1186 8.67059ZM58.1321 23.467C58.2002 23.467 58.2682 23.501 58.3362 23.501C57.9281 20.5077 57.4178 17.5825 57.0097 15.0314C55.6831 18.1947 53.4381 21.4602 52.2816 24.8957C53.5401 24.2494 55.547 23.467 58.1321 23.467Z" fill="#151515"/>
<path d="M78.54 8.39847C78.8121 8.39847 78.9821 9.11278 78.9481 9.1468C78.3019 9.79308 78.744 14.7252 78.0638 15.4395C76.6351 16.8341 75.4786 17.0382 75.4786 16.8341C75.4786 16.426 76.0229 15.9498 76.0229 9.623H72.1112C72.1452 11.6299 71.8731 16.9022 71.8731 30.8142C71.8731 31.9027 71.8731 32.1068 71.635 32.1068H69.424C68.6757 32.1068 69.2199 32.1068 69.2199 12.3782C69.2199 11.1197 69.1859 10.2353 69.1519 9.623H65.0701C64.6279 9.623 66.2606 17.4804 65.8524 17.8886C65.4102 18.3308 62.9612 18.705 62.8251 18.5689C62.7231 18.4669 63.1993 17.6165 63.1993 14.9973C63.1993 12.4122 61.9407 10.4394 61.9407 10.2353C61.9407 9.99717 63.9136 8.39847 64.4578 8.39847H69.424C71.9071 8.39847 71.3969 8.39847 71.6009 8.39847H78.54Z" fill="#151515"/>
<path d="M92.1355 8.39847C93.0539 8.39847 92.3736 8.53453 92.3736 30.8142C92.3736 31.9027 92.4076 32.0728 92.1355 32.0728H89.9246C89.2102 32.0728 89.6865 32.0728 89.7205 15.1674C87.6456 18.2628 83.5638 21.8003 83.5638 25.2358C83.5638 26.9365 83.5298 28.7733 83.5298 30.8142C83.5298 31.9027 83.5638 32.0728 83.3257 32.0728H81.0807C80.3324 32.0728 80.8766 32.0728 80.8766 12.3782C80.8766 9.04475 80.6725 8.39847 81.1147 8.39847C83.5638 8.39847 83.0876 8.39847 83.2917 8.39847C84.006 8.39847 83.7679 8.4665 83.5978 19.4533C85.7747 17.1063 89.6865 14.0449 89.6865 10.3713C89.6524 8.77263 89.6184 8.39847 89.9586 8.39847C92.4076 8.39847 91.8974 8.39847 92.1355 8.39847Z" fill="#151515"/>
<path d="M105.145 15.6046C105.27 15.6683 105.26 15.8591 105.126 15.905L102.007 16.9816L96.3948 18.6877C96.2953 18.7179 96.2532 18.8357 96.3113 18.9209L98.085 21.5245C98.1246 21.5828 98.2001 21.6057 98.2664 21.5803C98.2663 21.5804 98.2665 21.5803 98.2664 21.5803C102.051 20.1308 104.752 18.7123 106.021 17.9918C106.148 17.9194 106.296 18.0479 106.241 18.1836L103.299 25.4885C103.271 25.5572 103.296 25.6354 103.359 25.6745L106.41 27.5842C106.488 27.6326 106.59 27.6037 106.63 27.5211C106.63 27.5212 106.63 27.5209 106.63 27.5211C108.007 24.6644 109.757 20.4891 110.325 18.2458C110.349 18.148 110.459 18.098 110.548 18.1442C113.695 19.7739 117.199 20.9347 119.092 21.3407C119.092 21.3406 119.092 21.3407 119.092 21.3407C119.13 21.3489 119.169 21.3416 119.203 21.3211L123.851 18.477C123.98 18.398 123.93 18.1992 123.78 18.1901C117.785 17.829 113.406 16.0293 111.96 15.1976C111.862 15.1412 111.868 15.0009 111.968 14.9472C114.736 13.4656 118.554 13.7137 119.726 14.1095C119.774 14.1256 119.825 14.1189 119.867 14.0902L122.981 11.9482C123.084 11.8773 123.064 11.7208 122.946 11.6811C117.925 9.9922 112.917 11.6457 110.72 12.7415C110.612 12.7954 110.486 12.7118 110.494 12.5918C110.825 7.04891 108.549 1.95757 107.364 0.0663209C107.331 0.0136917 107.271 -0.0113247 107.211 0.00525155C106.319 0.250328 104.654 1.58553 104.379 2.5578C104.369 2.59298 104.375 2.63011 104.392 2.66235C106.468 6.64257 107.317 10.1945 107.062 12.2562C107.049 12.361 106.932 12.4163 106.84 12.3648C104.141 10.85 102.619 9.10995 101.823 8.19993C101.472 7.79877 101.262 7.55892 101.155 7.57078C101.112 7.57555 100.991 7.59278 100.814 7.61815C100.001 7.73452 97.9902 8.02221 96.7392 8.06498C96.6159 8.0692 96.5419 8.20706 96.6132 8.3069C98.7452 11.2921 103.191 14.6059 105.145 15.6046Z" fill="#964445"/>
</svg>
