<svg width="58" height="56" viewBox="0 0 58 56" fill="none" xmlns="http://www.w3.org/2000/svg">
<path fill-rule="evenodd" clip-rule="evenodd" d="M23.6516 0.148857C22.7269 0.482727 22.021 1.29592 21.6277 2.48023C21.3874 3.20365 21.3616 4.43033 21.5734 5.05021C21.8889 5.97314 23.7038 7.43738 24.9007 7.73448C25.4402 7.86849 25.468 7.89721 25.9065 8.77543C26.4785 9.92062 26.5266 10.5739 26.0723 11.0329C25.6121 11.4981 24.9138 11.5235 23.2845 11.1345L21.9448 10.8146L20.581 11.0546C18.268 11.4617 17.521 11.2486 14.2496 9.24891C13.0568 8.51977 12.4032 8.21228 11.0727 7.75455C9.47392 7.20437 9.33956 7.17787 8.12678 7.17262C6.882 7.16725 6.8381 7.17624 5.97755 7.61038C4.11795 8.54872 1.13971 11.3254 0.429695 12.783C0.0876253 13.4852 0.0499642 13.6707 0.00976148 14.8551C-0.0146143 15.5705 0.00825965 16.4376 0.0605925 16.7819L0.155554 17.4077L1.71156 17.3887C2.56725 17.3782 3.27681 17.3592 3.28836 17.3464C3.2998 17.3337 3.23753 16.9556 3.14996 16.5061C2.91787 15.3145 2.9181 13.8027 3.15042 13.2408C3.79887 11.6725 5.79768 10.106 7.57711 9.77167C8.98294 9.50749 10.7449 10.148 13.2894 11.8485C14.9079 12.9301 16.1982 14.2507 16.8139 15.4555C17.5368 16.8698 17.7173 17.4139 18.5768 20.7679C19.1748 23.1008 19.588 24.4221 20.2567 26.1378C21.9545 30.4949 23.0533 32.4413 24.334 33.3603C26.279 34.7559 26.7427 35.3099 27.2682 36.8659C27.4621 37.4399 27.5262 37.8881 27.5201 38.628C27.5108 39.7447 27.2239 40.6918 26.0522 43.4726C25.7006 44.3072 25.3192 45.4367 25.2047 45.9824C24.9233 47.3233 24.9235 50.1341 25.2052 51.8193C25.4387 53.217 25.9753 55.9439 26.027 55.9962C26.0854 56.0551 28.5678 55.412 28.6812 55.3086C28.7453 55.25 28.6879 54.7576 28.5367 54.0698C28.1266 52.2035 27.9132 50.537 27.9798 49.718C28.0523 48.8244 28.4695 47.1533 29.0869 45.282C29.6975 43.4321 31.4062 38.8277 31.5324 38.6924C31.6151 38.6038 36.2468 37.9564 36.9617 37.9335C37.0716 37.93 37.4445 38.3896 37.8804 39.0657C39.0561 40.8893 40.308 42.0526 44.5811 45.291C45.9284 46.3122 46.4038 46.7809 46.7208 47.4001C47.0446 48.0329 47.5033 50.7529 47.7563 53.5405C47.8278 54.3292 47.8496 54.3822 48.0812 54.3277C48.2178 54.2954 49.2845 54.1143 50.4519 53.925C51.6192 53.7357 52.5925 53.5624 52.6148 53.5399C52.7324 53.4212 51.614 49.5824 51.0763 48.2588C50.325 46.4097 47.9931 43.586 46.2671 42.4355C45.7495 42.0904 44.5897 41.4327 43.6899 40.974C41.3502 39.7811 40.3483 38.9291 39.6355 37.5261C39.0223 36.319 39.1809 34.0109 40.1909 29.4489C41.0958 25.3611 41.1251 25.0752 41.0416 21.1757C40.9589 17.3209 41.0324 16.6982 41.749 15.1734C42.3095 13.9805 43.6758 12.6115 44.9586 11.9575C45.745 11.5565 45.9622 11.497 46.6337 11.4993C48.8086 11.5064 51.2829 13.2668 52.9532 15.9953C53.596 17.0456 54.8516 19.5242 55.2372 20.5044C55.3446 20.7773 55.4978 21.001 55.5778 21.0017C55.6577 21.0023 56.2549 20.8887 56.9047 20.7493C58.273 20.4556 58.1964 20.6953 57.5595 18.7006C56.8324 16.4229 55.9838 14.9809 54.3012 13.1632C52.9106 11.6611 50.2248 10.0371 48.3399 9.55874C46.513 9.09505 45.3985 9.30168 43.2464 10.5031C41.9426 11.2311 40.4403 11.8121 39.3219 12.021C38.4363 12.1864 37.8861 12.0091 36.777 11.2005C35.7255 10.434 35.317 10.2063 34.7876 10.0912C34.2981 9.98459 32.8438 10.2124 31.7119 10.5728C31.2135 10.7316 30.7897 10.8445 30.7699 10.8237C30.7502 10.8029 30.373 9.89191 29.9317 8.79901L29.1293 6.81213L29.5726 6.23078C30.1435 5.48237 30.2928 5.01238 30.2194 4.19522C30.0946 2.80336 29.0372 1.43379 27.5602 0.75099C26.0334 0.0450772 24.5652 -0.181044 23.6516 0.148857ZM23.0609 13.066C21.6653 13.2335 20.5166 13.7439 20.0041 14.4241C19.7065 14.8191 19.6803 14.9344 19.6922 15.7974C19.7148 17.4238 20.7182 20.5132 22.2203 23.5805C23.7616 26.7279 24.8503 28.3881 27.431 31.5264C28.1043 32.3451 28.7264 33.0747 28.8135 33.1477C28.9355 33.2501 29.6961 33.0475 32.1368 32.2625L35.3018 31.2443L35.382 30.0623C35.4772 28.6578 35.8226 26.7642 36.0727 26.2755C36.1711 26.0832 36.5174 25.5927 36.8421 25.1851C37.6028 24.2312 37.6792 24.0746 38.031 22.7496C38.8854 19.5312 38.6925 16.2026 37.549 14.4339C36.8665 13.3782 35.9766 13.2697 33.9608 13.9963C32.1995 14.6311 31.7369 14.6245 29.7141 13.9347C27.5941 13.2116 24.8415 12.8523 23.0609 13.066Z" fill="#4AAFEE"/>
</svg>
