<svg width="202" height="60" viewBox="0 0 202 60" fill="none" xmlns="http://www.w3.org/2000/svg">
<path d="M21.6826 29.0595C21.6826 50.9627 22.7256 57.957 22.7256 58.3251C22.7256 58.6932 22.2348 59 22.0507 59H1.49727C0.147492 59 1.12915 59 1.12915 23.4763C1.12915 17.4637 0.761027 16.298 1.55862 16.298H11.7433C16.897 16.298 17.8173 15.9912 21.0077 15.9912C21.4985 15.9912 22.2348 18.1999 21.1304 18.1999C20.3941 18.1999 13.8907 21.329 9.35052 25.8691C9.22781 25.9305 9.16646 26.0532 9.04375 26.1759C11.9274 24.7647 15.3018 23.8444 16.5289 23.8444C20.5782 23.8444 21.6826 25.7464 21.6826 29.0595ZM6.3442 18.9975C6.3442 20.4087 6.3442 22.556 6.22149 25.8691C11.4979 21.0222 15.2405 18.6294 15.3632 18.5067C15.6086 18.2613 9.16646 18.9975 6.3442 18.9975ZM16.7743 55.4415C16.7743 53.969 16.7129 52.0057 16.7129 49.2448C16.7129 31.759 17.5719 27.3416 12.725 27.3416C9.77999 27.3416 6.16013 30.5933 6.16013 31.8204C6.03743 37.4036 5.97607 45.0114 5.91472 55.4415H16.7743Z" fill="white"/>
<path d="M50.7291 22.7401C50.7291 24.0899 51.5267 24.0285 51.5267 24.0899C51.5267 24.7034 45.7595 28.2005 45.7595 27.587C45.7595 24.3353 47.8455 21.0222 47.8455 20.5314C47.8455 20.5314 45.3914 18.5067 41.2193 18.5067C36.986 18.5067 34.5932 19.427 34.5932 19.6724C34.5932 23.1696 35.5748 27.7097 36.8019 32.7407C39.3787 31.2069 43.1827 29.4276 45.8822 29.4276C47.3547 29.4276 48.2136 33.9064 49.0726 33.9064C49.8702 33.9064 50.4224 33.5997 50.4224 33.7224C50.4224 34.52 46.189 37.5876 45.3914 37.5876C44.5324 37.5876 43.06 32.9861 40.9126 32.9861C39.9309 32.9861 38.4584 33.661 37.17 34.3972C38.6425 40.2872 40.3604 46.6066 41.158 52.4352C42.4464 47.711 44.5324 44.7046 44.5324 42.4959C44.5324 41.3302 43.8575 40.9621 43.8575 40.594C43.8575 40.1645 49.5021 40.2872 49.5021 40.6553C49.5021 44.3979 43.7962 50.4105 43.7962 58.3251C43.7962 58.8159 43.4281 59.0614 43.06 59.0614H37.7222C36.986 59.0614 36.986 58.5092 36.986 58.3251C36.986 58.1411 37.2927 56.3004 37.2927 54.7666C37.2927 49.1834 29.5622 30.2866 29.5622 21.9425C29.5622 21.2062 34.7772 15.5004 42.6918 15.5004C50.6678 15.5004 52.8765 18.2613 52.8765 18.5067C52.8765 18.7521 50.7291 21.513 50.7291 22.7401Z" fill="white"/>
<path d="M92.4663 34.9494C93.0798 35.563 89.9508 45.0114 89.9508 54.828C89.9508 57.098 90.9325 58.3865 90.9325 58.8159C90.9325 58.9386 90.8711 59 90.7484 59H84.8585C84.613 59 84.429 58.8159 84.429 58.6932C84.429 43.907 87.4353 38.2012 86.8831 37.7103C86.3923 37.1582 68.1089 39.735 64.7959 39.735C64.305 39.735 65.9002 48.5699 65.9002 58.2638C65.9002 58.5705 65.7162 59 65.2867 59H60.8079C60.5625 59 59.8876 59 59.8876 58.4478C59.8876 57.8343 60.5625 55.3188 60.5625 46.7293C60.5625 40.2258 58.7832 38.9374 58.4765 38.6306C58.1697 38.3239 61.2987 35.9924 62.4644 35.9924C63.4461 35.9924 64.3664 35.9924 65.2867 35.9924C65.7775 34.0291 69.6428 27.5257 72.281 27.5257H81.8521C82.0362 23.9672 83.6927 20.2246 83.6927 19.6724C83.6927 19.0589 67.3114 19.3043 67.0659 19.3043C66.8205 19.3043 68.2317 20.6541 68.2317 23.0469C68.2317 23.5377 63.8756 26.6054 62.8326 26.6054C62.5258 26.6054 63.3234 25.8078 63.3234 24.0285C63.3234 20.7154 59.3968 16.6661 59.7649 16.298C60.133 15.9912 88.3556 16.298 89.0305 16.298C89.7054 16.298 86.515 21.2062 86.515 25.9305C86.515 29.9184 87.6194 33.8451 87.9875 35.0108C90.7484 34.8267 92.2209 34.704 92.4663 34.9494ZM69.8269 35.8697C74.9805 35.747 79.2753 35.563 82.7111 35.3176C82.4657 34.2745 82.1589 32.618 81.9748 30.9001C79.7661 30.6547 76.2076 30.4093 71.2993 30.4093C70.9926 30.4093 70.0109 33.0475 69.8269 35.8697Z" fill="white"/>
<path d="M118.462 16.7888C118.462 29.6117 123.984 48.754 123.984 58.3865C123.984 58.6319 123.861 59 123.432 59H118.769C118.339 59 118.278 58.5705 118.278 58.3251C118.278 58.2638 118.278 58.1411 118.339 57.8956C118.339 55.9323 118.217 53.8463 118.032 51.7603C117.419 49.1221 116.069 46.7293 112.879 46.7293C109.259 46.7293 106.866 47.6496 105.455 48.5086C105.026 50.1651 104.78 51.8216 104.78 53.4782C104.78 56.9753 105.7 59 105.21 59H100.179C99.9946 59 99.7491 58.8773 99.7491 55.8096C99.7491 43.0481 112.265 33.8451 112.94 19.1816C110.854 19.0589 105.578 18.9362 105.578 19.3043C105.578 19.7338 107.05 24.5807 107.05 28.63C107.05 32.618 100.854 35.8084 100.547 35.8084C100.179 35.8084 99.7491 35.5016 99.8718 35.3176C100.056 35.1335 101.774 33.8451 101.774 30.4706C101.774 23.5377 99.0743 20.9608 99.0743 20.1019C99.0743 19.3043 103.492 16.298 104.105 16.298C104.657 16.298 117.848 16.298 117.848 16.298C118.155 16.298 118.462 16.482 118.462 16.7888ZM116.683 43.4776C116.805 43.4776 116.928 43.5389 117.051 43.5389C116.315 38.1398 115.394 32.8634 114.658 28.2619C112.265 33.9678 108.216 39.8577 106.13 46.0544C108.4 44.8887 112.02 43.4776 116.683 43.4776Z" fill="white"/>
<path d="M157.174 16.298C157.665 16.298 157.972 17.5864 157.91 17.6477C156.745 18.8135 157.542 27.7097 156.315 28.9981C153.738 31.5136 151.652 31.8818 151.652 31.5136C151.652 30.7774 152.634 29.9184 152.634 18.5067H145.578C145.64 22.1265 145.149 31.6363 145.149 56.7299C145.149 58.6932 145.149 59.0614 144.719 59.0614H140.731C139.382 59.0614 140.363 59.0614 140.363 23.4763C140.363 21.2062 140.302 19.6111 140.241 18.5067H132.878C132.081 18.5067 135.025 32.6794 134.289 33.4156C133.492 34.2132 129.074 34.8881 128.829 34.6427C128.645 34.4586 129.504 32.9248 129.504 28.2005C129.504 23.5377 127.234 19.9792 127.234 19.6111C127.234 19.1816 130.792 16.298 131.774 16.298H140.731C145.21 16.298 144.29 16.298 144.658 16.298H157.174Z" fill="white"/>
<path d="M185.378 16.298C187.035 16.298 185.807 16.5434 185.807 56.7299C185.807 58.6932 185.869 59 185.378 59H181.39C180.102 59 180.961 59 181.022 28.5073C177.279 34.0905 169.917 40.4712 169.917 46.6679C169.917 49.7356 169.856 53.0487 169.856 56.7299C169.856 58.6932 169.917 59 169.487 59H165.438C164.088 59 165.07 59 165.07 23.4763C165.07 17.4637 164.702 16.298 165.499 16.298C169.917 16.298 169.058 16.298 169.426 16.298C170.715 16.298 170.285 16.4207 169.978 36.2379C173.905 32.0045 180.961 26.4826 180.961 19.8565C180.899 16.9729 180.838 16.298 181.451 16.298C185.869 16.298 184.949 16.298 185.378 16.298Z" fill="white"/>
<path d="M188.794 4.94545C188.598 4.94545 187.516 6.33636 187 7.03182C187.718 8.45364 189.582 9.63333 190.424 10.0455L188.06 11.5909L189.038 12.75C190.669 12.2091 191.565 11.5136 192.054 11.1273L191.076 15.6091L193.685 17C194.272 15.1455 194.364 12.6212 194.337 11.5909C196.228 12.1473 198.277 12.2864 199.065 12.2864L202 9.81364C198.413 10.0609 196.103 9.35 195.397 8.96364C196.832 7.78909 198.44 7.85606 199.065 8.03636L201.022 6.02727C198.022 5.22364 195.152 6.6197 194.093 7.41818C193.962 3.95636 192.408 1.0303 191.647 0C190.734 0.68 190.179 1.72576 190.016 2.16364C191.321 4.38909 191.429 6.33636 191.321 7.03182C189.038 6.10455 189.038 4.94545 188.794 4.94545Z" fill="white"/>
</svg>
