<svg width="67" height="69" viewBox="0 0 67 69" fill="none" xmlns="http://www.w3.org/2000/svg">
<path fill-rule="evenodd" clip-rule="evenodd" d="M27.5 27.2602C17.807 31.3392 15 32.9412 15 34.3972C15 35.6572 16.069 36.5812 18.254 37.2072C20.872 37.9582 21.738 38.9132 22.693 42.0992C24.066 46.6812 25.845 47.7522 28.337 45.4972C29.962 44.0262 30.389 44.1092 33.831 46.5582C37.051 48.8492 37.749 49.0172 38.912 47.7812C40.369 46.2342 44.777 24.1072 43.909 22.7022C42.955 21.1592 40.148 21.9392 27.5 27.2602ZM29.109 29.2482L17.218 34.2922L20.345 35.5672C23.244 36.7502 23.853 36.6002 28.735 33.4962C38.023 27.5912 39.151 27.6202 32.75 33.5982C28.495 37.5722 26.5 40.1892 26.5 41.7972C26.5 44.0802 26.565 44.1002 28.462 42.3832C30.353 40.6722 30.54 40.7052 33.606 43.2852C35.356 44.7572 37.097 45.5992 37.475 45.1552C38.272 44.2202 41.911 24.8802 41.366 24.4762C41.164 24.3272 35.649 26.4752 29.109 29.2482Z" fill="black"/>
</svg>
