<svg width="108" height="117" viewBox="0 0 108 117" fill="none" xmlns="http://www.w3.org/2000/svg">
<path d="M12.913 34.0364C11.5043 34.0364 3.71739 43.6091 0 48.3955C5.16522 58.1809 18.587 66.3 24.6522 69.1364L7.63043 79.7727L14.6739 87.75C26.413 84.0273 32.8696 79.2409 36.3913 76.5818L29.3478 107.427L48.1304 117C52.3565 104.236 53.0217 86.8636 52.8261 79.7727C66.4435 83.6018 81.1956 84.5591 86.8696 84.5591L108 67.5409C82.1739 69.2427 65.5435 64.35 60.4565 61.6909C70.787 53.6073 82.3696 54.0682 86.8696 55.3091L100.957 41.4818C79.3565 35.9509 58.6956 45.5591 51.0652 51.0545C50.1261 27.2291 38.9348 7.09091 33.4565 0C26.8826 4.68 22.8913 11.8773 21.7174 14.8909C31.1087 30.2073 31.8913 43.6091 31.1087 48.3955C14.6739 42.0136 14.6739 34.0364 12.913 34.0364Z" fill="#151515"/>
</svg>
