<svg width="208" height="46" viewBox="0 0 208 46" fill="none" xmlns="http://www.w3.org/2000/svg">
<path d="M57.44 18.48C57.44 32.76 58.12 37.32 58.12 37.56C58.12 37.8 57.8 38 57.68 38H44.28C43.4 38 44.04 38 44.04 14.84C44.04 10.92 43.8 10.16 44.32 10.16H50.96C54.32 10.16 54.92 9.96 57 9.96C57.32 9.96 57.8 11.4 57.08 11.4C56.6 11.4 52.36 13.44 49.4 16.4C49.32 16.44 49.28 16.52 49.2 16.6C51.08 15.68 53.28 15.08 54.08 15.08C56.72 15.08 57.44 16.32 57.44 18.48ZM47.44 11.92C47.44 12.84 47.44 14.24 47.36 16.4C50.8 13.24 53.24 11.68 53.32 11.6C53.48 11.44 49.28 11.92 47.44 11.92ZM54.24 35.68C54.24 34.72 54.2 33.44 54.2 31.64C54.2 20.24 54.76 17.36 51.6 17.36C49.68 17.36 47.32 19.48 47.32 20.28C47.24 23.92 47.2 28.88 47.16 35.68H54.24ZM76.3772 14.36C76.3772 15.24 76.8972 15.2 76.8972 15.24C76.8972 15.64 73.1372 17.92 73.1372 17.52C73.1372 15.4 74.4972 13.24 74.4972 12.92C74.4972 12.92 72.8972 11.6 70.1772 11.6C67.4172 11.6 65.8572 12.2 65.8572 12.36C65.8572 14.64 66.4972 17.6 67.2972 20.88C68.9772 19.88 71.4572 18.72 73.2172 18.72C74.1772 18.72 74.7372 21.64 75.2972 21.64C75.8172 21.64 76.1772 21.44 76.1772 21.52C76.1772 22.04 73.4172 24.04 72.8972 24.04C72.3372 24.04 71.3772 21.04 69.9772 21.04C69.3372 21.04 68.3772 21.48 67.5372 21.96C68.4972 25.8 69.6172 29.92 70.1372 33.72C70.9772 30.64 72.3372 28.68 72.3372 27.24C72.3372 26.48 71.8972 26.24 71.8972 26C71.8972 25.72 75.5772 25.8 75.5772 26.04C75.5772 28.48 71.8572 32.4 71.8572 37.56C71.8572 37.88 71.6172 38.04 71.3772 38.04H67.8972C67.4172 38.04 67.4172 37.68 67.4172 37.56C67.4172 37.44 67.6172 36.24 67.6172 35.24C67.6172 31.6 62.5772 19.28 62.5772 13.84C62.5772 13.36 65.9772 9.64 71.1372 9.64C76.3372 9.64 77.7772 11.44 77.7772 11.6C77.7772 11.76 76.3772 13.56 76.3772 14.36ZM103.588 22.32C103.988 22.72 101.948 28.88 101.948 35.28C101.948 36.76 102.588 37.6 102.588 37.88C102.588 37.96 102.548 38 102.468 38H98.6281C98.4681 38 98.3481 37.88 98.3481 37.8C98.3481 28.16 100.308 24.44 99.9481 24.12C99.6281 23.76 87.7081 25.44 85.5481 25.44C85.2281 25.44 86.2681 31.2 86.2681 37.52C86.2681 37.72 86.1481 38 85.8681 38H82.9481C82.7881 38 82.3481 38 82.3481 37.64C82.3481 37.24 82.7881 35.6 82.7881 30C82.7881 25.76 81.6281 24.92 81.4281 24.72C81.2281 24.52 83.2681 23 84.0281 23C84.6681 23 85.2681 23 85.8681 23C86.1881 21.72 88.7081 17.48 90.4281 17.48H96.6681C96.7881 15.16 97.8681 12.72 97.8681 12.36C97.8681 11.96 87.1881 12.12 87.0281 12.12C86.8681 12.12 87.7881 13 87.7881 14.56C87.7881 14.88 84.9481 16.88 84.2681 16.88C84.0681 16.88 84.5881 16.36 84.5881 15.2C84.5881 13.04 82.0281 10.4 82.2681 10.16C82.5081 9.96 100.908 10.16 101.348 10.16C101.788 10.16 99.7081 13.36 99.7081 16.44C99.7081 19.04 100.428 21.6 100.668 22.36C102.468 22.24 103.428 22.16 103.588 22.32ZM88.8281 22.92C92.1881 22.84 94.9881 22.72 97.2281 22.56C97.0681 21.88 96.8681 20.8 96.7481 19.68C95.3081 19.52 92.9881 19.36 89.7881 19.36C89.5881 19.36 88.9481 21.08 88.8281 22.92ZM120.536 10.48C120.536 18.84 124.136 31.32 124.136 37.6C124.136 37.76 124.056 38 123.776 38H120.736C120.456 38 120.416 37.72 120.416 37.56C120.416 37.52 120.416 37.44 120.456 37.28C120.456 36 120.376 34.64 120.256 33.28C119.856 31.56 118.976 30 116.896 30C114.536 30 112.976 30.6 112.056 31.16C111.776 32.24 111.616 33.32 111.616 34.4C111.616 36.68 112.216 38 111.896 38H108.616C108.496 38 108.336 37.92 108.336 35.92C108.336 27.6 116.496 21.6 116.936 12.04C115.576 11.96 112.136 11.88 112.136 12.12C112.136 12.4 113.096 15.56 113.096 18.2C113.096 20.8 109.056 22.88 108.856 22.88C108.616 22.88 108.336 22.68 108.416 22.56C108.536 22.44 109.656 21.6 109.656 19.4C109.656 14.88 107.896 13.2 107.896 12.64C107.896 12.12 110.776 10.16 111.176 10.16C111.536 10.16 120.136 10.16 120.136 10.16C120.336 10.16 120.536 10.28 120.536 10.48ZM119.376 27.88C119.456 27.88 119.536 27.92 119.616 27.92C119.136 24.4 118.536 20.96 118.056 17.96C116.496 21.68 113.856 25.52 112.496 29.56C113.976 28.8 116.336 27.88 119.376 27.88ZM145.775 10.16C146.095 10.16 146.295 11 146.255 11.04C145.495 11.8 146.015 17.6 145.215 18.44C143.535 20.08 142.175 20.32 142.175 20.08C142.175 19.6 142.815 19.04 142.815 11.6H138.215C138.255 13.96 137.935 20.16 137.935 36.52C137.935 37.8 137.935 38.04 137.655 38.04H135.055C134.175 38.04 134.815 38.04 134.815 14.84C134.815 13.36 134.775 12.32 134.735 11.6H129.935C129.415 11.6 131.335 20.84 130.855 21.32C130.335 21.84 127.455 22.28 127.295 22.12C127.175 22 127.735 21 127.735 17.92C127.735 14.88 126.255 12.56 126.255 12.32C126.255 12.04 128.575 10.16 129.215 10.16H135.055C137.975 10.16 137.375 10.16 137.615 10.16H145.775ZM164.163 10.16C165.243 10.16 164.443 10.32 164.443 36.52C164.443 37.8 164.483 38 164.163 38H161.563C160.723 38 161.283 38 161.323 18.12C158.883 21.76 154.083 25.92 154.083 29.96C154.083 31.96 154.043 34.12 154.043 36.52C154.043 37.8 154.083 38 153.803 38H151.163C150.283 38 150.923 38 150.923 14.84C150.923 10.92 150.683 10.16 151.203 10.16C154.083 10.16 153.523 10.16 153.763 10.16C154.603 10.16 154.323 10.24 154.123 23.16C156.683 20.4 161.283 16.8 161.283 12.48C161.243 10.6 161.203 10.16 161.603 10.16C164.483 10.16 163.883 10.16 164.163 10.16Z" fill="white"/>
<path d="M163.196 4.2C163.065 4.2 162.344 5.1 162 5.55C162.478 6.47 163.721 7.23333 164.283 7.5L162.707 8.5L163.359 9.25C164.446 8.9 165.043 8.45 165.37 8.2L164.717 11.1L166.457 12C166.848 10.8 166.909 9.16667 166.891 8.5C168.152 8.86 169.518 8.95 170.043 8.95L172 7.35C169.609 7.51 168.069 7.05 167.598 6.8C168.554 6.04 169.627 6.08333 170.043 6.2L171.348 4.9C169.348 4.38 167.435 5.28333 166.728 5.8C166.641 3.56 165.605 1.66667 165.098 1C164.489 1.44 164.12 2.11667 164.011 2.4C164.88 3.84 164.953 5.1 164.88 5.55C163.359 4.95 163.359 4.2 163.196 4.2Z" fill="white"/>
</svg>
