<svg width="129" height="38" viewBox="0 0 129 38" fill="none" xmlns="http://www.w3.org/2000/svg">
<path d="M14.4402 17.48C14.4402 31.76 15.1202 36.32 15.1202 36.56C15.1202 36.8 14.8002 37 14.6802 37H1.28018C0.400176 37 1.04018 37 1.04018 13.84C1.04018 9.92 0.800176 9.16 1.32018 9.16H7.96018C11.3202 9.16 11.9202 8.96 14.0002 8.96C14.3202 8.96 14.8002 10.4 14.0802 10.4C13.6002 10.4 9.36018 12.44 6.40018 15.4C6.32018 15.44 6.28018 15.52 6.20018 15.6C8.08018 14.68 10.2802 14.08 11.0802 14.08C13.7202 14.08 14.4402 15.32 14.4402 17.48ZM4.44018 10.92C4.44018 11.84 4.44018 13.24 4.36018 15.4C7.80018 12.24 10.2402 10.68 10.3202 10.6C10.4802 10.44 6.28018 10.92 4.44018 10.92ZM11.2402 34.68C11.2402 33.72 11.2002 32.44 11.2002 30.64C11.2002 19.24 11.7602 16.36 8.60018 16.36C6.68018 16.36 4.32018 18.48 4.32018 19.28C4.24018 22.92 4.20018 27.88 4.16018 34.68H11.2402Z" fill="white"/>
<path d="M33.3774 13.36C33.3774 14.24 33.8974 14.2 33.8974 14.24C33.8974 14.64 30.1374 16.92 30.1374 16.52C30.1374 14.4 31.4974 12.24 31.4974 11.92C31.4974 11.92 29.8974 10.6 27.1774 10.6C24.4174 10.6 22.8574 11.2 22.8574 11.36C22.8574 13.64 23.4974 16.6 24.2974 19.88C25.9774 18.88 28.4574 17.72 30.2174 17.72C31.1774 17.72 31.7374 20.64 32.2974 20.64C32.8174 20.64 33.1774 20.44 33.1774 20.52C33.1774 21.04 30.4174 23.04 29.8974 23.04C29.3374 23.04 28.3774 20.04 26.9774 20.04C26.3374 20.04 25.3774 20.48 24.5374 20.96C25.4974 24.8 26.6174 28.92 27.1374 32.72C27.9774 29.64 29.3374 27.68 29.3374 26.24C29.3374 25.48 28.8974 25.24 28.8974 25C28.8974 24.72 32.5774 24.8 32.5774 25.04C32.5774 27.48 28.8574 31.4 28.8574 36.56C28.8574 36.88 28.6174 37.04 28.3774 37.04H24.8974C24.4174 37.04 24.4174 36.68 24.4174 36.56C24.4174 36.44 24.6174 35.24 24.6174 34.24C24.6174 30.6 19.5774 18.28 19.5774 12.84C19.5774 12.36 22.9774 8.64 28.1374 8.64C33.3374 8.64 34.7774 10.44 34.7774 10.6C34.7774 10.76 33.3774 12.56 33.3774 13.36Z" fill="white"/>
<path d="M60.5883 21.32C60.9883 21.72 58.9483 27.88 58.9483 34.28C58.9483 35.76 59.5883 36.6 59.5883 36.88C59.5883 36.96 59.5483 37 59.4683 37H55.6283C55.4683 37 55.3483 36.88 55.3483 36.8C55.3483 27.16 57.3083 23.44 56.9483 23.12C56.6283 22.76 44.7083 24.44 42.5483 24.44C42.2283 24.44 43.2683 30.2 43.2683 36.52C43.2683 36.72 43.1483 37 42.8683 37H39.9483C39.7883 37 39.3483 37 39.3483 36.64C39.3483 36.24 39.7883 34.6 39.7883 29C39.7883 24.76 38.6283 23.92 38.4283 23.72C38.2283 23.52 40.2683 22 41.0283 22C41.6683 22 42.2683 22 42.8683 22C43.1883 20.72 45.7083 16.48 47.4283 16.48H53.6683C53.7883 14.16 54.8683 11.72 54.8683 11.36C54.8683 10.96 44.1883 11.12 44.0283 11.12C43.8683 11.12 44.7883 12 44.7883 13.56C44.7883 13.88 41.9483 15.88 41.2683 15.88C41.0683 15.88 41.5883 15.36 41.5883 14.2C41.5883 12.04 39.0283 9.4 39.2683 9.16C39.5083 8.96 57.9083 9.16 58.3483 9.16C58.7883 9.16 56.7083 12.36 56.7083 15.44C56.7083 18.04 57.4283 20.6 57.6683 21.36C59.4683 21.24 60.4283 21.16 60.5883 21.32ZM45.8283 21.92C49.1883 21.84 51.9883 21.72 54.2283 21.56C54.0683 20.88 53.8683 19.8 53.7483 18.68C52.3083 18.52 49.9883 18.36 46.7883 18.36C46.5883 18.36 45.9483 20.08 45.8283 21.92Z" fill="white"/>
<path d="M77.5364 9.48C77.5364 17.84 81.1364 30.32 81.1364 36.6C81.1364 36.76 81.0564 37 80.7764 37H77.7364C77.4564 37 77.4164 36.72 77.4164 36.56C77.4164 36.52 77.4164 36.44 77.4564 36.28C77.4564 35 77.3764 33.64 77.2564 32.28C76.8564 30.56 75.9764 29 73.8964 29C71.5364 29 69.9764 29.6 69.0564 30.16C68.7764 31.24 68.6164 32.32 68.6164 33.4C68.6164 35.68 69.2164 37 68.8964 37H65.6164C65.4964 37 65.3364 36.92 65.3364 34.92C65.3364 26.6 73.4964 20.6 73.9364 11.04C72.5764 10.96 69.1364 10.88 69.1364 11.12C69.1364 11.4 70.0964 14.56 70.0964 17.2C70.0964 19.8 66.0564 21.88 65.8564 21.88C65.6164 21.88 65.3364 21.68 65.4164 21.56C65.5364 21.44 66.6564 20.6 66.6564 18.4C66.6564 13.88 64.8964 12.2 64.8964 11.64C64.8964 11.12 67.7764 9.16 68.1764 9.16C68.5364 9.16 77.1364 9.16 77.1364 9.16C77.3364 9.16 77.5364 9.28 77.5364 9.48ZM76.3764 26.88C76.4564 26.88 76.5364 26.92 76.6164 26.92C76.1364 23.4 75.5364 19.96 75.0564 16.96C73.4964 20.68 70.8564 24.52 69.4964 28.56C70.9764 27.8 73.3364 26.88 76.3764 26.88Z" fill="white"/>
<path d="M102.775 9.16C103.095 9.16 103.295 10 103.255 10.04C102.495 10.8 103.015 16.6 102.215 17.44C100.535 19.08 99.1752 19.32 99.1752 19.08C99.1752 18.6 99.8152 18.04 99.8152 10.6H95.2152C95.2552 12.96 94.9352 19.16 94.9352 35.52C94.9352 36.8 94.9352 37.04 94.6552 37.04H92.0552C91.1752 37.04 91.8152 37.04 91.8152 13.84C91.8152 12.36 91.7752 11.32 91.7352 10.6H86.9352C86.4152 10.6 88.3352 19.84 87.8552 20.32C87.3352 20.84 84.4552 21.28 84.2952 21.12C84.1752 21 84.7352 20 84.7352 16.92C84.7352 13.88 83.2552 11.56 83.2552 11.32C83.2552 11.04 85.5752 9.16 86.2152 9.16H92.0552C94.9752 9.16 94.3752 9.16 94.6152 9.16H102.775Z" fill="white"/>
<path d="M121.163 9.16C122.243 9.16 121.443 9.32 121.443 35.52C121.443 36.8 121.483 37 121.163 37H118.563C117.723 37 118.283 37 118.323 17.12C115.883 20.76 111.083 24.92 111.083 28.96C111.083 30.96 111.043 33.12 111.043 35.52C111.043 36.8 111.083 37 110.803 37H108.163C107.283 37 107.923 37 107.923 13.84C107.923 9.92 107.683 9.16 108.203 9.16C111.083 9.16 110.523 9.16 110.763 9.16C111.603 9.16 111.323 9.24 111.123 22.16C113.683 19.4 118.283 15.8 118.283 11.48C118.243 9.6 118.203 9.16 118.603 9.16C121.483 9.16 120.883 9.16 121.163 9.16Z" fill="white"/>
<path d="M120.196 3.2C120.065 3.2 119.344 4.1 119 4.55C119.478 5.47 120.721 6.23333 121.283 6.5L119.707 7.5L120.359 8.25C121.446 7.9 122.044 7.45 122.37 7.2L121.718 10.1L123.457 11C123.848 9.8 123.91 8.16667 123.891 7.5C125.152 7.86 126.518 7.95 127.044 7.95L129 6.35C126.609 6.51 125.069 6.05 124.598 5.8C125.555 5.04 126.627 5.08333 127.044 5.2L128.348 3.9C126.348 3.38 124.435 4.28333 123.728 4.8C123.641 2.56 122.605 0.666667 122.098 0C121.489 0.44 121.12 1.11667 121.011 1.4C121.881 2.84 121.953 4.1 121.881 4.55C120.359 3.95 120.359 3.2 120.196 3.2Z" fill="white"/>
</svg>
