<svg width="67" height="69" viewBox="0 0 67 69" fill="none" xmlns="http://www.w3.org/2000/svg">
<path d="M33.7706 46.448C27.9786 46.448 23.9146 43.44 23.6586 38.288H27.3066C27.5626 41.36 29.3866 43.44 33.6746 43.44C37.3546 43.44 38.4746 41.84 38.4746 39.76C38.4746 36.848 36.2346 36.432 32.0746 35.376C28.4906 34.416 24.5546 33.264 24.5546 28.912C24.5546 24.944 27.6266 22.672 32.5546 22.672C37.7706 22.672 41.1626 25.328 41.5146 29.936H37.8666C37.4826 27.184 35.9146 25.68 32.5866 25.68C29.7066 25.68 28.2346 26.736 28.2346 28.72C28.2346 31.28 30.6346 31.824 33.5786 32.56C37.9946 33.68 42.1546 34.736 42.1546 39.568C42.1546 43.504 39.4986 46.448 33.7706 46.448Z" fill="white"/>
</svg>
