<svg width="15" height="16" viewBox="0 0 15 16" fill="none" xmlns="http://www.w3.org/2000/svg">
<path d="M1.10131 4.58037C0.905059 4.58037 0.517896 5.47221 0 6.11632C0.719603 7.43318 3.11838 8.37952 3.96337 8.76122L0.365356 10.7353L1.34562 11.9662C2.69034 11.5625 4.1168 10.2762 4.60744 9.91836L3.39096 14.4568L5.11938 15.3735C5.70815 13.6558 6.44382 10.8726 6.41657 9.91836C8.3137 10.4337 10.9841 10.7353 11.7746 10.7353L14.3486 9.08918C10.7505 9.3182 8.04648 8.45783 7.33778 8.09999C8.77699 7.01215 10.8064 6.77586 11.4333 6.94285L13.3673 5.58233C10.358 4.83802 7.47962 6.13102 6.41657 6.87056C6.28573 3.6643 4.72659 0.954245 3.96337 0C3.04751 0.629802 3.06453 1.41281 2.90098 1.81837C4.20935 3.87953 4.71647 6.29874 4.60744 6.94285C2.3178 6.08403 1.34663 4.58037 1.10131 4.58037Z" fill="black"/>
</svg>
