<svg width="55" height="48" viewBox="0 0 55 48" fill="none" xmlns="http://www.w3.org/2000/svg">
<path d="M52.8914 0.065084C52.6235 0.161515 48.1877 1.87584 45.7127 2.82943C44.4483 3.32229 42.5626 4.05088 41.534 4.44732C36.8518 6.23664 33.7445 7.43667 32.9624 7.7581C32.7588 7.84382 31.0016 8.51883 29.0516 9.26885C22.6336 11.7332 19.5478 12.9225 17.3192 13.7904C16.1085 14.2511 14.1584 15.0118 12.9798 15.4618C11.8012 15.9118 10.3441 16.4797 9.74405 16.7047C8.0083 17.3797 6.63684 17.9047 3.92607 18.9548C0.422423 20.3048 0.433137 20.2941 0.165275 20.8512C-0.113302 21.4298 -0.0383009 22.0513 0.379565 22.5013C0.636713 22.8013 1.66531 23.2299 4.94395 24.4084C8.10473 25.5549 13.4298 27.5799 13.5263 27.6764C13.5906 27.7407 13.7406 28.1264 13.8584 28.5442C13.987 28.9514 14.2977 29.9907 14.5656 30.8479C15.1334 32.6586 15.8299 34.9087 16.837 38.1337C18.6157 43.8874 18.5835 43.791 19.0121 44.0803C19.4407 44.3803 20.1585 44.4446 20.5657 44.2196C20.6943 44.1553 22.0979 43.041 23.6943 41.7338C25.2801 40.4374 26.9515 39.0766 27.4016 38.723C28.6873 37.673 29.4909 37.598 30.6266 38.4016C31.3552 38.9266 39.2411 44.6482 41.5233 46.3089C42.4876 47.0161 43.4412 47.6375 43.634 47.7018C44.1162 47.8518 44.7162 47.6696 45.1019 47.2625C45.4234 46.9303 45.3269 47.3161 47.7484 35.6694C48.0377 34.2872 49.0127 29.5621 49.9342 25.1692C50.8449 20.7762 51.8842 15.7618 52.2485 14.0261C52.6128 12.2903 53.2128 9.39742 53.5878 7.59738C54.745 2.09013 54.8414 1.56512 54.7664 1.21154C54.6164 0.386519 53.6414 -0.202779 52.8914 0.065084ZM42.9269 10.051C42.9805 10.1689 43.034 10.3082 43.034 10.3617C43.034 10.4153 42.1554 11.2725 41.084 12.2689C40.0018 13.2654 38.8125 14.369 38.4268 14.7332C38.0411 15.0975 36.6696 16.3726 35.3731 17.5619C34.0767 18.7619 32.7267 20.0155 32.3731 20.3584C32.0195 20.6905 29.6837 22.8656 27.1766 25.1906C24.6694 27.5157 22.4407 29.6264 22.205 29.8836C21.5086 30.655 21.3264 31.2336 20.9729 33.7622C20.8014 35.0158 20.6193 36.3337 20.5764 36.6873C20.48 37.5766 20.1478 37.8766 19.5264 37.6409C19.3335 37.5659 19.3764 37.6944 17.7371 31.9729C16.4728 27.5585 16.3763 27.0014 16.7085 26.2406C16.9549 25.6942 17.5335 25.2013 18.98 24.312C19.6871 23.8834 20.5764 23.3263 20.9621 23.0799C21.3479 22.8334 22.2907 22.2548 23.0515 21.7941C24.5086 20.9155 26.4265 19.7369 27.0694 19.3298C27.273 19.2012 28.2694 18.5905 29.2659 17.969C30.273 17.3583 32.7802 15.8154 34.8374 14.5404C36.9053 13.2654 39.4554 11.6903 40.5161 11.0367C41.5769 10.3832 42.5304 9.84743 42.6269 9.84743C42.734 9.84743 42.8626 9.94386 42.9269 10.051Z" fill="#F4F4F4"/>
</svg>
