<svg width="48" height="48" viewBox="0 0 48 48" fill="none" xmlns="http://www.w3.org/2000/svg">
<path fill-rule="evenodd" clip-rule="evenodd" d="M18.782 0.433157C7.34469 3.04116 -0.645748 13.6823 0.0411064 25.3909C0.628306 35.4043 6.78125 43.4977 16.4593 46.9866C18.9319 47.878 19.848 48 24.0619 48C28.2757 48 29.1918 47.878 31.6644 46.9866C39.1891 44.2739 44.84 38.5 47.1673 31.1464C47.8557 28.9716 48.014 27.5841 47.9991 23.8561C47.983 19.8813 47.8427 18.8668 46.9722 16.4373C45.5958 12.5972 43.8568 9.82919 41.0611 7.03049C36.5295 2.49439 31.4141 0.260109 25.0212 0.0256683C22.5793 -0.0641174 20.3141 0.0839906 18.782 0.433157ZM25.2117 20.399C25.3681 23.2149 25.5203 23.8707 26.0408 23.9697C26.7756 24.1101 28.5096 21.7569 29.7426 18.9467L30.5498 17.1072L33.3118 17.22C34.8311 17.2822 36.1347 17.5166 36.2087 17.7411C36.2827 17.9652 35.6065 19.2448 34.7062 20.5851C33.8058 21.9249 32.7683 23.4678 32.4003 24.0142C32.0327 24.5602 31.7326 25.0935 31.7338 25.199C31.7349 25.3046 32.5329 26.2542 33.5073 27.3094C36.1109 30.1296 36.5901 30.9365 35.9136 31.3651C35.0577 31.9073 31.418 31.7799 30.2324 31.166C29.6418 30.8601 28.8741 30.1756 28.5268 29.6446C28.1792 29.1139 27.5203 28.4789 27.0626 28.2337C26.3731 27.8642 26.1435 27.9072 25.7211 28.4854C25.4409 28.8687 25.2117 29.6645 25.2117 30.2531C25.2117 31.6379 23.9292 32.0001 21.2328 31.3774C18.5893 30.7673 16.6521 29.3438 14.6801 26.5612C12.3639 23.2936 9.7023 17.9333 10.1653 17.4698C10.37 17.2649 11.4643 17.1506 12.5977 17.2154L14.6582 17.3332L16.1186 20.0191C17.8438 23.1915 18.787 24.2421 19.6222 23.9213C20.4658 23.5975 20.4919 18.6105 19.654 17.7718C19.3378 17.4552 19.0791 17.0903 19.0791 16.9606C19.0791 16.8313 20.4156 16.7757 22.0496 16.8375L25.0201 16.9495L25.2117 20.399Z" fill="#F4F4F4"/>
</svg>
